<?xml version="1.0" encoding="UTF-8" standalone="no"?>
<svg
   xmlns:dc="http://purl.org/dc/elements/1.1/"
   xmlns:cc="http://creativecommons.org/ns#"
   xmlns:rdf="http://www.w3.org/1999/02/22-rdf-syntax-ns#"
   xmlns:svg="http://www.w3.org/2000/svg"
   xmlns="http://www.w3.org/2000/svg"
   xmlns:sodipodi="http://sodipodi.sourceforge.net/DTD/sodipodi-0.dtd"
   xmlns:inkscape="http://www.inkscape.org/namespaces/inkscape"
   height="480"
   width="640"
   viewBox="0 0 640 480"
   id="svg2"
   version="1.1"
   inkscape:version="0.91 r13725"
   sodipodi:docname="ai.svg">
  <metadata
     id="metadata1529">
    <rdf:RDF>
      <cc:Work
         rdf:about="">
        <dc:format>image/svg+xml</dc:format>
        <dc:type
           rdf:resource="http://purl.org/dc/dcmitype/StillImage" />
      </cc:Work>
    </rdf:RDF>
  </metadata>
  <sodipodi:namedview
     pagecolor="#ffffff"
     bordercolor="#666666"
     borderopacity="1"
     objecttolerance="10"
     gridtolerance="10"
     guidetolerance="10"
     inkscape:pageopacity="0"
     inkscape:pageshadow="2"
     inkscape:window-width="2560"
     inkscape:window-height="1027"
     id="namedview1527"
     showgrid="false"
     inkscape:zoom="2.5455844"
     inkscape:cx="596.91289"
     inkscape:cy="87.240251"
     inkscape:window-x="1358"
     inkscape:window-y="-8"
     inkscape:window-maximized="1"
     inkscape:current-layer="g9" />
  <defs
     id="defs4">
    <clipPath
       id="a">
      <path
         fill-opacity=".67"
         d="M0 0h640v480H0z"
         id="path7" />
    </clipPath>
  </defs>
  <g
     clip-path="url(#a)"
     id="g9">
    <path
       fill-rule="evenodd"
       fill="#fff"
       d="M.426.42H403.1v240.067H.427z"
       id="path11" />
    <path
       d="M.426.422L.41 18.44l96.093 59.27 36.155 1.257L.424.422z"
       fill="#c00"
       id="path13" />
    <path
       d="M41.573.422l116.494 73.046V.422H41.573z"
       fill="#006"
       id="path15" />
    <path
       d="M173.607.422v93.25H.423v53.288h173.184v93.25h53.286v-93.25h173.185V93.673H226.893V.423h-53.286z"
       fill="#c00"
       id="path17" />
    <path
       d="M242.435.422V69.25L356.407.955 242.435.422z"
       fill="#006"
       id="path19" />
    <path
       d="M246.032 76.754l32.054-.31L402.604.955l-33.037.647-123.535 75.154z"
       fill="#c00"
       id="path21" />
    <path
       d="M401.34 21.09l-95.12 56.62 93.853.42v84.37h-79.93l79.19 51.51 1.163 26.2-42.297-.605-115.763-68.222v68.828h-84.37v-68.827l-108.59 68.643-49.046.185v239.794h799.294V.426l-397.537-.43M.43 27.06l-.42 49.8 84.146 1.266L.43 27.06zM.426 162.497v51.066l79.93-50.533-79.93-.533z"
       fill="#006"
       id="path23" />
    <path
       d="M308.217 164.606l-33.322-.31 125.597 75.067-.826-17.174-91.453-57.584zM31.637 240.63l117.767-74.225-30.93.247L.423 240.518"
       fill="#c00"
       id="path25" />
    <path
       d="M462.054 261.24c-1.092 27.557-.254 58.587 4.054 88.07 4.763 15.404 4.126 23.866 11.203 33.098l99.07-.772c5.97-9.712 10.397-24.44 10.968-30.295 5.532-29.776 5.664-62.636 5.796-92.028-9.962 5.296-23.008 9.05-35.67 7.402-10.152-.774-19.53-3.09-30.454-9.264-9.475 5.676-12.778 8.268-28.423 8.93-12.18.6-22.048 1.588-36.543-5.14z"
       id="path91"
       fill="#fff" />
    <path
       d="M477.524 381.794c7.05 14.84 31.99 49.848 51.04 49.166 18.5-.662 39.393-34.82 47.567-49.166h-98.606z"
       id="path1217"
       fill="#0cf" />
  </g>
</svg>
