<svg xmlns="http://www.w3.org/2000/svg" xmlns:xlink="http://www.w3.org/1999/xlink" height="480" width="640" viewBox="0 0 640 480"><path fill="#e41e20" d="M0 0h640v480H0z"/><path id="a" d="M272 93c-5 0-12 2-12 5-13-2-15 4-14 8l4-3c2 0 4 0 6 2l4 4c-4 1-8 0-11-1l-6-2-4-4c-3-3-6-2-5 2 2 4 6 6 10 7l9 1h10l-6 3-11-3c1 2 4 5 10 6 9 2 17 3 22 6 6 3 9 7 11 9 5 6 5 10 6 11 0 9-3 14-8 16-3 0-8-1-10-3s-4-6-3-12c0-2 3-8 0-10-10-6-23-11-32-15-2-1-4 3-5 4-16-2-30-12-36-24-4-7-11 0-10 8 2 8 8 13 15 18 8 4 17 8 27 8 5 1 5 7-1 8-12 1-22 0-31-9-7-6-11 2-9 6 3 13 22 17 41 12 7-1 3 7 1 7-8 6-22 11-35 0-5-4-9-1-7 6 5 16 27 13 41 5 4-2 7 2 3 6-18 13-27 13-35 8-11-4-12 7-6 11 7 4 24 1 37-7 5-4 6 2 2 5-15 13-21 16-36 14-8-1-8 9-2 13 9 5 25-4 37-14 6-3 6 2 4 7-8 10-15 16-22 18-7 3-14 2-18 1-6-2-7 4-4 9 2 4 10 5 19 2 8-3 18-11 24-19 5-5 5 2 2 6-12 20-24 28-39 26-7-1-9 5-4 9 7 7 17 7 25 0l29-30c5-4 7 0 5 8-1 5-5 10-14 14-7 3-2 9 3 9 3 0 8-3 12-8 6-6 6-10 9-20 3-5 8-2 8 2-2 10-4 12-9 16s3 6 6 4c7-6 10-12 13-18 2-5 7-3 5 5-6 17-16 24-34 27l-2 4 7 7-30 8-15-10c-1-3-2-8-10-5-5-2-7-1-10 1 4 0 6 1 7 3 3 6 8 6 13 5l8 8-17-1c-6-6-10-6-14-1-4 1-5 1-7 5 3-2 5-2 7-1 6 4 10 3 13 0l18 1-8 5c-9-2-13 1-15 8-1 3-2 6-1 10 1-3 2-6 5-7 8 2 11-2 11-6 4-4 10-4 14-8l11 4c2 5 6 7 12 6 7 0 5 3 6 5 2-3 2-6-3-9-1-5-5-7-9-4l-10-4c11-4 19-5 30-8l7 7h4c7-10 10-19 16-26 3-2 6-6 9-7l6 1 2 9-4 11-6 8c-4 5-9 8-12 10-7 5-9 3-14 2-7 1-8 4-3 9 5 2 9 2 13 2 3-1 6-5 9-7 3-3 7 1 4 5-6 7-12 11-19 11-8 1-6 5-1 7 9 4 17-3 21-7s6-4 5 1c-3 10-7 14-14 15-6-1-6 4-2 7 10 6 17-5 20-12 2-6 6-3 6 2 0 7-3 12-11 19l20 31 19-214-19-34-11-11v-1l5-1c-4-5-8-6-15-8l9-1c-2-3-7-8-14-10l10-7c-8 0-14-1-20-3l-12-4zm1 9c4 0 6 1 6 3 0 1-2 2-6 2s-6-1-6-3c0-1 2-2 6-2z"/><use height="100%" width="100%" xlink:href="#a" transform="matrix(-1 0 0 1 640 0)"/></svg>