<?xml version="1.0" encoding="UTF-8" standalone="no"?>
<svg
   xmlns:dc="http://purl.org/dc/elements/1.1/"
   xmlns:cc="http://creativecommons.org/ns#"
   xmlns:rdf="http://www.w3.org/1999/02/22-rdf-syntax-ns#"
   xmlns:svg="http://www.w3.org/2000/svg"
   xmlns="http://www.w3.org/2000/svg"
   xmlns:sodipodi="http://sodipodi.sourceforge.net/DTD/sodipodi-0.dtd"
   xmlns:inkscape="http://www.inkscape.org/namespaces/inkscape"
   height="480"
   width="640"
   viewBox="0 0 640 480"
   id="svg2"
   version="1.1"
   inkscape:version="0.91 r13725"
   sodipodi:docname="bm.svg">
  <metadata
     id="metadata202">
    <rdf:RDF>
      <cc:Work
         rdf:about="">
        <dc:format>image/svg+xml</dc:format>
        <dc:type
           rdf:resource="http://purl.org/dc/dcmitype/StillImage" />
      </cc:Work>
    </rdf:RDF>
  </metadata>
  <defs
     id="defs200" />
  <sodipodi:namedview
     pagecolor="#ffffff"
     bordercolor="#666666"
     borderopacity="1"
     objecttolerance="10"
     gridtolerance="10"
     guidetolerance="10"
     inkscape:pageopacity="0"
     inkscape:pageshadow="2"
     inkscape:window-width="1366"
     inkscape:window-height="715"
     id="namedview198"
     showgrid="false"
     inkscape:zoom="0.45"
     inkscape:cx="320"
     inkscape:cy="240"
     inkscape:window-x="-8"
     inkscape:window-y="301"
     inkscape:window-maximized="1"
     inkscape:current-layer="svg2" />
  <path
     fill="#cf142b"
     d="M0 0h640v480H0z"
     id="path4" />
  <path
     fill="#00247d"
     d="M0 0h320v160H0z"
     id="path6" />
  <path
     d="M0 0v17.888L284.224 160H320v-17.888L35.776 0H0zm320 0v17.888L35.776 160H0v-17.888L284.224 0H320z"
     fill="#fff"
     id="path8" />
  <path
     d="M133.333 0v160h53.334V0h-53.334zM0 53.333v53.334h320V53.333H0z"
     fill="#fff"
     id="path10" />
  <path
     d="M0 64v32h320V64H0zM144 0v160h32V0h-32zM0 160l106.667-53.333h23.85L23.85 160H0zM0 0l106.667 53.333h-23.85L0 11.925V0zm189.483 53.333L296.15 0H320L213.333 53.333h-23.85zM320 160l-106.667-53.333h23.85L320 148.075V160z"
     fill="#cf142b"
     id="path12" />
</svg>
