<?xml version="1.0" encoding="UTF-8" standalone="no"?>
<svg
   xmlns:dc="http://purl.org/dc/elements/1.1/"
   xmlns:cc="http://creativecommons.org/ns#"
   xmlns:rdf="http://www.w3.org/1999/02/22-rdf-syntax-ns#"
   xmlns:svg="http://www.w3.org/2000/svg"
   xmlns="http://www.w3.org/2000/svg"
   xmlns:xlink="http://www.w3.org/1999/xlink"
   xmlns:sodipodi="http://sodipodi.sourceforge.net/DTD/sodipodi-0.dtd"
   xmlns:inkscape="http://www.inkscape.org/namespaces/inkscape"
   height="480"
   width="640"
   viewBox="0 0 640 480"
   id="svg2"
   version="1.1"
   inkscape:version="0.91 r13725"
   sodipodi:docname="bn.svg">
  <metadata
     id="metadata69">
    <rdf:RDF>
      <cc:Work
         rdf:about="">
        <dc:format>image/svg+xml</dc:format>
        <dc:type
           rdf:resource="http://purl.org/dc/dcmitype/StillImage" />
      </cc:Work>
    </rdf:RDF>
  </metadata>
  <defs
     id="defs67" />
  <sodipodi:namedview
     pagecolor="#ffffff"
     bordercolor="#666666"
     borderopacity="1"
     objecttolerance="10"
     gridtolerance="10"
     guidetolerance="10"
     inkscape:pageopacity="0"
     inkscape:pageshadow="2"
     inkscape:window-width="2560"
     inkscape:window-height="1027"
     id="namedview65"
     showgrid="false"
     inkscape:zoom="0.05625"
     inkscape:cx="565.36588"
     inkscape:cy="-2394.1625"
     inkscape:window-x="1358"
     inkscape:window-y="-8"
     inkscape:window-maximized="1"
     inkscape:current-layer="g10" />
  <path
     fill="#f7e017"
     d="M0 0h640v480H0z"
     id="path4" />
  <path
     d="M0 33.333v213.334l640 100V233.333z"
     fill="#fff"
     id="path6" />
  <path
     d="M0 146.667v100l640 200v-100z"
     id="path8" />
  <g
     transform="translate(-160) scale(.66667)"
     fill="#cf1126"
     id="g10">
    <path
       d="M695.74 569.72c-19.36-2.57-37.11-8.73-49.44-17.17-2.39-1.64-4.64-2.98-4.99-2.98-.36 0-.65 1.82-.65 4.07 0 6.37-2.56 9.58-9 11.25-6.16 1.6-15.56-1.63-23.18-7.95-7.89-6.55-17-11.55-24.71-13.55-6.35-1.66-14.78-1.39-20.87.65-2.83.95-6.05 2.29-7.17 2.98-1.11.69-2.36 1.25-2.76 1.25-1.08 0-.93-6.85.2-9.04 1.49-2.87 5.16-5.7 9.44-7.26 2.16-.79 3.93-1.8 3.93-2.25 0-.45-.73-2.1-1.62-3.65-2.9-5.08-1.71-10 3.35-13.87 5.18-3.96 13.95-4.64 21.7-1.69 1.95.74 3.77 1.35 4.04 1.35 1.02 0 .4-1.43-2.41-5.52-3.24-4.74-3.88-7.08-3.48-12.72.52-7.14 6.34-12.98 13.47-13.5 5.82-.42 9.44 1.54 18.03 9.72 25.65 24.46 53.54 37.94 86.07 41.59 8.21.92 24.73.43 34.42-1.03 29.27-4.41 58.76-19.13 81.79-40.82 6.38-6.01 9.45-7.6 14.68-7.62 4.55-.02 7.74 1.45 11 5.05 2.97 3.3 3.98 6.43 3.66 11.44-.21 3.21-.73 4.79-2.64 7.9-2.82 4.59-2.34 5.01 3.24 2.85 7.54-2.94 16.83-1.58 21.84 3.18 4.41 4.19 4.83 8.38 1.4 14.06-1.25 2.08-2.27 4.03-2.27 4.34 0 .57.95.84 5.53 1.58 5.99.96 9.42 5.41 9.42 12.21 0 2.04-.25 3.7-.56 3.7-.3 0-2.57-.83-5.04-1.85-6.98-2.88-10.95-3.62-19.11-3.57-6.21.04-8.35.33-12.68 1.74-6.63 2.17-13.72 6.35-19.5 11.5-6.37 5.68-10.38 7.47-16.58 7.42-5.76-.06-9.7-1.73-11.78-5.02-1.11-1.76-1.27-2.83-1-6.81.18-2.59.14-4.71-.07-4.71-.22 0-2.46 1.42-4.99 3.17-6.64 4.56-10.87 6.82-18.47 9.83-23.18 9.17-56.63 13.14-82.24 9.75z"
       id="path12" />
    <path
       d="M706.34 525.17c-38.58-3.703-75.494-23.798-97.939-55.657-24.37-33.235-32.05-77.117-24.611-117.24 3.954-18.267 11.929-36.546 25.544-49.554-10.85 23.003-14.516 49.369-8.73 74.29 8.99 49.753 51.036 91.87 101.34 99.156 19.9 5.761 40.487-.324 59.496-6.493 41.935-14.78 73.88-54.583 77.777-99.08 3.336-24.077-.36-49.113-11.207-70.915 6.183 3.269 13.987 16.087 18.59 24.707 16.002 31.003 16.733 68.155 7.312 101.24-12.78 42.097-44.965 78.978-87.511 92.382-19.308 6.308-39.842 8.231-60.058 7.167z"
       id="path14" />
    <g
       id="a">
      <path
         d="M481.53 302.7c-3.257 3.26-.77 9.271-.946 13.543 1.688 13.158 3.785 26.484 8.697 38.87 6.015 12.102 18.79 18.573 26.533 29.268 2.767 5.155 1.785 11.355 2.368 16.994.458 15.366.316 30.743.047 46.111 6.939 3.482 14.474 6.986 22.456 5.647 4.73-1.13 13.512-1.832 14.496-6.543-.383-26.5-.63-53.01-.983-79.506-2.69-8.119-10.951-12.32-17.129-17.515a155.468 155.468 0 0 1-14.188-16.099c-2.622-4.417-12.868-6.009-9.161 1.677 2.173 6.654 7.72 11.61 9.109 18.602.303 3.831 4.877 10.879.973 13.114-2.484-4.222-6.082-7.815-10.682-9.958-4.432-3.304-11.759-4.68-13.359-10.517-1.175-8.28-5.415-15.782-10.887-21.986 1.41-7.436.005-16.737-6.423-21.49l-.921-.212z"
         id="path23" />
    </g>
    <use
       height="100%"
       width="100%"
       xlink:href="#a"
       transform="matrix(-1 0 0 1 1440 0)"
       id="use31" />
    <path
       d="M731.53 460.22c.297-2.708-.32-5.473-1.703-7.935-2.123-4.326-5.121-8.166-8.046-11.96-2.757-1.616-4.287 3.657-6.12 5.17-2.857 4.277-6.443 8.657-6.617 14.036-1.607 2.502-4.604-2.04-5.896-3.535-2.468-3.491-4.336-7.62-4.03-11.987-.292-7.036 1.057-14.041 3.62-20.581 1.935-5.583 5.076-11.006 4.757-17.105.224-4.59-.708-9.658-4.426-12.745-3.538-2.776 2.291-3.368 4.143-1.928 3.168.212 4.882 5.448 7.777 4.152 1.153-2.735 1.382-5.997 3.76-8.13 2.333-3.196 4.772 1.356 5.57 3.488 1.648 1.873-.092 6.507 2.583 6.628 3.206-2.247 5.492-6.022 9.591-6.844 1.663-.949 4.504-.127 2.312 1.785-3.034 2.844-5.626 6.4-6.179 10.63-.928 5.308.4 10.69 2.713 15.47 4.446 9.39 7.885 19.997 5.636 30.445-1.043 4.644-4.198 8.645-8.032 11.34-.484.293-1.25.273-1.413-.394z"
       id="path35" />
    <path
       d="M726.73 389.63c-1.456-2.624-3.224-5.21-5.673-6.995-2.381-.005-3.85 2.999-5.468 4.573-1.134 2.11-2.512 5.638-5.305 2.88-4.444-2.594-5.23-8.276-5.202-12.959-.28-7.59 2.777-14.674 5.492-21.587 1.728-4.328 1.302-9.199.248-13.634-1.327-5.092-5.414-8.623-8.56-12.595.214-1.536 4.235-.697 5.748-.405 3.36.852 5.367 3.825 7.87 5.926 1.782-.54 1.055-4.14 1.884-5.833.062-2.382 3.233-5.522 4.541-2.112 1.959 2.168-.062 6.465 2.469 7.815 2.411-.893 3.6-3.529 5.866-4.72 2.23-1.52 5.378-1.69 7.778-.497.845 2.213-2.64 4.055-3.65 5.977-4.051 5.006-5.475 11.91-3.74 18.112 1.377 4.865 3.814 9.406 4.655 14.434 1.013 5.653.98 11.59-.484 17.16-.874 3.38-3.802 5.64-6.825 7.044-.746-.694-1.14-1.714-1.644-2.583z"
       id="path37" />
    <path
       d="M711.61 326.89c-3.36-2.46-4.47-4.81-4.47-9.46 0-2.38.44-3.67 2.01-5.83 2.31-3.2 1.89-4.21-1.38-3.27-5.26 1.51-7.77.13-7.95-4.35-.08-2.19.38-3.12 3.33-6.66 2.36-2.84 3.22-4.33 2.75-4.8-.46-.46-3.25 1.96-8.98 7.79-4.57 4.65-9.71 9.4-11.42 10.56-9.84 6.64-19.24 7.67-23.53 2.56-2.2-2.61-2.08-4.08.46-5.66 1.17-.72 3.14-2.38 4.39-3.69 2.95-3.07 11.74-9.41 16.1-11.61 3.54-1.79 4.38-3 2.08-3-2.98 0-12.54 6.22-19.79 12.88-2.13 1.97-5.2 4.16-6.81 4.87-3.62 1.6-10.73 2.19-13.89 1.15-2.23-.74-6.3-4.58-6.3-5.95 0-.36.93-1.16 2.06-1.77 1.13-.6 3.16-2.07 4.5-3.24 5.8-5.09 16.79-10.33 25.51-12.16 2.77-.58 1.75-1.98-1.34-1.84-5.99.26-17.88 5.83-24.98 11.69-8.32 6.86-20.87 6.21-24.91-1.29-.7-1.29-1.11-2.5-.91-2.69.19-.19 2.66-.93 5.49-1.65 3.06-.77 9.12-3.28 14.91-6.17 9.11-4.54 11.81-5.51 18.08-6.52 2.82-.45 2.97-1.83.23-2.15-3.53-.42-8.94 1.35-18.5 6.05-12.28 6.04-15.72 7.08-22.19 6.7-5.9-.36-9.23-1.87-14.02-6.4-3.13-2.97-7.57-10.51-6.7-11.38.21-.21 1.65 0 3.2.45 1.72.51 6.65.85 12.59.86 8.31.02 10.52-.2 14.95-1.48 7.41-2.14 17.26-7.15 24-12.18 12.89-9.64 23.4-13.51 36.8-13.57 12.37-.05 20.24 2.81 27.21 9.88 2.36 2.39 4.37 3.94 4.7 3.61.31-.31.65-4.49.75-9.29 0 0 3.64-.35 4.41.67 0 7.79.09 8.4 1.22 8.4.74 0 1.53-.76 2.02-1.94 1.06-2.55 4.98-6.04 9.17-8.16 9.05-4.59 24.71-4.73 37.29-.34 5.3 1.86 11.18 5.18 16.78 9.5 5.62 4.32 17.11 10.1 23.9 12.03 6.87 1.95 18.98 2.44 25.19 1.03 2.56-.58 4.96-1.06 5.34-1.06 2.29 0-1.61 7.63-6.19 12.1-8.37 8.18-19.26 8.14-34.58-.12-9.55-5.14-20.97-7.95-20.97-5.15 0 .58.6.97 1.49.97 3.32 0 9.73 2.23 18.67 6.47 9.67 4.6 15.1 6.54 18.32 6.54 2.34 0 2.41 1.45.23 4.65-2.31 3.41-6.23 5.1-11.77 5.09-5.29-.02-8.23-1.18-12.96-5.11-7.91-6.58-27.62-13.92-26.86-10 .15.78 1.1 1.26 3.13 1.57 6.86 1.05 14.91 4.89 23.15 11.06 2.54 1.91 5.18 3.79 5.85 4.19 1.13.66 1.15.86.26 2.53-1.48 2.76-5.21 4.9-9.25 5.32-5.23.54-9.78-1.02-14.49-4.96-9.94-8.32-19.31-14.34-22.31-14.34-2.45 0-1.35 1.35 2.97 3.64 5.68 3.01 11.52 7.08 15.82 11.03 2.03 1.88 4.32 3.74 5.08 4.15 1.8.96 1.73 2.37-.25 4.96-2.02 2.64-5.36 3.8-9.69 3.34-8.64-.91-15.38-5.08-25.97-16.07-4.14-4.29-7.83-7.8-8.21-7.8-1.41 0-.58 1.91 2.15 4.97 3.38 3.78 4.03 5.91 2.75 8.98-1.13 2.72-3.01 3.35-6.87 2.31-3.95-1.07-4.57-.1-1.98 3.12 3.86 4.81 3.29 10.7-1.44 14.75-1.47 1.25-3.01 2.28-3.43 2.28-.41 0-1.45-1.07-2.32-2.38-3.04-4.62-5.71-4.59-8.67.08-1.03 1.63-1.9 2.95-1.93 2.94-.04-.01-1.43-1.01-3.08-2.23z"
       id="path39" />
    <path
       d="M726.67 233.03l-5.13 4.06-4.6-3.47v27.74l9.73.12z"
       id="path41" />
  </g>
</svg>
