<?xml version="1.0" encoding="UTF-8" standalone="no"?>
<svg
   xmlns:dc="http://purl.org/dc/elements/1.1/"
   xmlns:cc="http://creativecommons.org/ns#"
   xmlns:rdf="http://www.w3.org/1999/02/22-rdf-syntax-ns#"
   xmlns:svg="http://www.w3.org/2000/svg"
   xmlns="http://www.w3.org/2000/svg"
   xmlns:sodipodi="http://sodipodi.sourceforge.net/DTD/sodipodi-0.dtd"
   xmlns:inkscape="http://www.inkscape.org/namespaces/inkscape"
   height="480"
   width="640"
   viewBox="0 0 640 480"
   id="svg2"
   version="1.1"
   inkscape:version="0.91 r13725"
   sodipodi:docname="bt.svg">
  <metadata
     id="metadata174">
    <rdf:RDF>
      <cc:Work
         rdf:about="">
        <dc:format>image/svg+xml</dc:format>
        <dc:type
           rdf:resource="http://purl.org/dc/dcmitype/StillImage" />
      </cc:Work>
    </rdf:RDF>
  </metadata>
  <defs
     id="defs172" />
  <sodipodi:namedview
     pagecolor="#ffffff"
     bordercolor="#666666"
     borderopacity="1"
     objecttolerance="10"
     gridtolerance="10"
     guidetolerance="10"
     inkscape:pageopacity="0"
     inkscape:pageshadow="2"
     inkscape:window-width="2560"
     inkscape:window-height="1027"
     id="namedview170"
     showgrid="false"
     inkscape:zoom="0.05625"
     inkscape:cx="-13424.582"
     inkscape:cy="1363.4933"
     inkscape:window-x="1358"
     inkscape:window-y="-8"
     inkscape:window-maximized="1"
     inkscape:current-layer="g8" />
  <path
     fill="#ffd520"
     d="M.1 0h640.1v480H.1z"
     id="path4" />
  <path
     d="M.1 480h640.1V0z"
     fill="#ff4e12"
     id="path6" />
  <g
     stroke="#000"
     stroke-width=".521"
     id="g8">
    <g
       fill="#fff"
       id="g10">
      <path
         d="M404.12 141.704c-1.547 1.545-4.763 6.181-5.41 7.984-6.697 20.09 11.18 35.097 21.637 56.664 8.243 17 7.213 43.787-5.667 60.786-4.406 5.815-3.09 7.47-8.757 13.394-2.173 2.272-4.636 5.15-3.863 13.393 3.607-1.288 8.757 2.06 9.786 4.894 2.577-1.288 6.184-.773 7.47.772 4.377-2.06 7.984-1.03 11.847 3.092 3.35-.516 6.956 0 10.303 3.605 1.803-3.605 5.41-4.893 7.983-4.12-.256-4.637 4.38-7.985 8.5-6.182-1.286-6.182 4.38-10.819 9.79-9.015 4.634-3.606 13.907-3.864 18.544 1.545-8.243-2.318-7.983 6.44-14.94 5.667 1.803 5.151-2.833 8.113-7.467 9.787 2.96-1.417 6.18-3.09 7.21-1.288 2.577-2.253 7.727-1.416 9.017-.257 3.41-1.095 6.697-.258 8.24 3.863 4.637 2.833 7.727 10.045 4.38 15.454-1.03-5.666-4.893-5.409-6.44-7.727-3.607 1.288-7.213 1.288-8.243-1.03-2.06 2.06-9.014 3.864-12.103.773-1.16 4.636-5.154 8.5-9.79 8.5 1.29 3.605-2.317 9.788-5.15 12.878 4.38 2.317 3.09 7.47 2.06 10.56 6.696 1.03 1.03 6.953 12.62 10.817-5.664 1.803-16.74 0-18.287-6.954-5.667-.256-9.53-5.923-9.27-11.85-4.38-4.12-5.024-10.043 1.03-14.164-5.154 1.545-7.987-6.697-15.457-3.348-3.714 1.666-13.52-1.16-13.39-4.637-1.547 2.576-10.947 1.546-12.238-2.833-3.09 1.674-10.303-1.159-10.173-5.409-3.994 1.803-9.4-1.416-9.143-5.537-3.734-.515-4.12-3.864-3.864-6.697-3.35-1.545-2.446-4.765-1.16-8.628-2.316-2.576-1.286-6.182.517-9.53-2.577-2.576-2.06-5.667-1.29-9.272-12.363-1.03-27.85-4.012-63.36-14.939-53.574-16.484-67.998 22.15-56.15 46.362 13.67 27.935-1.545 34 3.091 54.863 4.894 1.03 7.47 5.15 7.212 9.53 2.897.127 4.958 2.83 3.927 7.984 2.447-.45 5.603.256 7.663 2.316 1.804-3.346 7.728-4.12 10.819-.256 6.695-.517 10.045 4.893 9.788 11.59 3.603 6.44 2.317 14.297-1.547 19.317.387-2.703 0-6.567-.126-8.883-.24-4.264-6.184-5.154-5.54-8.63-3.09.256-6.053-1.417-7.083-3.734-1.803 1.543-4.378 2.06-6.568 1.287 3.477 1.546 6.182 7.726 5.152 11.846 1.803 3.093 1.416 8.76-.773 11.206-1.03 5.02-4.894 6.824-9.916 4.634 2.833-1.8 3.863-5.02 3.734-7.727-1.803-1.543-2.704-4.506-2.833-6.31-5.022.774-11.977-3.476-13.26-5.156-11.064 0-20.033 8.97-20.033 20.036-.515-4.123-5.728-8.183-5.084-11.66-3.09-9.53 1.288-18.416 13.909-20.216-1.545-3.607 3.863-7.344 1.803-11.464-2.632-5.263-7.47-12.106-14.68-20.09 4.378-7.47 3.09-17.514.514-23.696-3.698-8.877-7.212-6.697-20.348 7.726-21.408 23.507-49.968 17-75.21 32.454-6.706 4.107-13.392 5.667-6.18-1.543 7.211-7.214 26.271-14.424 38.634-20.607 23.152-11.577 42.756-30.908 50.483-68.512 18.157-88.368 84.992-59.24 127.232-42.756 39.657 15.477 32.453-19.575 12.363-40.695-24.146-25.386-19.317-45.331-7.983-61.3 20.346-2.834 59.37 4.25 51.513 11.075z"
         stroke-width=".41680000000000006"
         id="path78" />
    </g>
    <g
       fill="#fff"
       id="g118">
      <path
         d="M393.688 116.144c-.833-.76-2.24-1.481-4.763-2-7.797-1.599-3.77-8.627 2.866-8.564 14.163-15.454 22.117-3.541 39.374-8.435 6.04-1.712 10.186-1.206 13.477.217 7.726-5.15 16.79-3.712 23.36 2.341.73-1.16 1.71-2.047 3.086-2.43 6.05-1.68 10.944 3.48 12.617 10.176 4.717-.874 10.103 1.46 13.647 4.68 4.906-2.52 8.286-2.632 9.53-.04 4.38-2.061 10.054-3.353 12.886 3.601 2.834 6.954-6.696 4.894-8.243 19.575-.953 9.057-11.073 12.621-19.06 7.212-12.773-8.653-25.24-10.045-31.423 3.09-6.18 13.137-11.023 20.769-26.014 16.485-5.406-1.546-12.363.515-16.74 6.439-4.38 5.924-11.076.386-19.06 1.03 10.044-1.545 6.197-4.072 14.94-4.636 7.984-.515 5.924-7.984 11.074-9.015-20.09 5.152-19.317-2.318-35.8 2.833 7.21-9.272 18.543-4.12 24.21-9.53-14.94-.257-21.62-10.017-28.333-5.923-10.56 6.439-5.927 24.772-33.483 23.18-13.394-.772-21.894 1.03-29.877 9.016 13.91-28.847 32.83-13 41.983-22.15 5.41-5.41 9.53-9.531 12.363-14.682.997-1.814 2.347-2.85 4.033-3.25-22.923-7.213-9.06-18.447 13.35-19.219z"
         stroke-width=".41680000000000006"
         id="path150" />
    </g>
  </g>
</svg>
