<svg xmlns="http://www.w3.org/2000/svg" height="480" width="640" viewBox="0 0 640 480" version="1"><path fill="#ffd520" d="M0 0h640v480H0z"/><path d="M0 480h640V0z" fill="#ff4e12"/><g fill="#fff"><path d="M404 142c-1 1-5 6-5 8-7 20 11 35 21 56 9 17 8 44-5 61-5 6-3 8-9 14-2 2-5 5-4 13 4-1 9 2 10 5 2-1 6-1 7 1 5-2 8-1 12 3 4-1 7 0 10 3 2-3 6-5 8-4 0-4 5-8 9-6-1-6 4-11 10-9 4-4 14-4 18 2-8-3-8 6-15 5 2 5-2 8-7 10 3-1 6-3 7-1 3-3 8-2 9-1 4-1 7 0 8 4 5 3 8 10 5 16-1-6-5-6-7-8-3 1-7 1-8-1-2 2-9 4-12 1-1 4-5 8-10 8 1 4-2 10-5 13 4 2 3 8 2 11 7 1 1 7 13 11-6 1-17 0-19-7-5-1-9-6-9-12-4-4-5-10 1-14-5 1-8-7-15-4-4 2-14-1-14-4-1 2-11 1-12-3-3 1-10-1-10-6-4 2-10-1-9-5-4-1-4-4-4-7-3-1-3-5-1-9-3-2-2-6 0-9-2-3-2-6-1-9-12-1-28-4-63-15-54-17-68 22-57 46 14 28-1 34 4 55 4 1 7 5 7 9 3 1 5 3 4 8 2 0 5 1 7 3 2-4 8-4 11 0 7-1 10 4 10 11 4 7 2 14-2 19v-8c0-5-6-6-5-9-3 0-6-2-7-4-2 2-5 2-7 1 4 2 6 8 5 12 2 3 2 9-1 12-1 5-4 6-9 4 2-2 3-5 3-8-2-1-2-4-3-6-5 1-12-3-13-5-11 0-20 9-20 20 0-4-6-8-5-12-3-9 1-18 14-20-2-3 4-7 2-11-3-6-8-12-15-20 4-8 3-18 1-24-4-9-8-7-21 8-21 23-50 17-75 32-7 4-13 6-6-1 7-8 26-15 39-21 23-12 42-31 50-69 18-88 85-59 127-42 40 15 33-20 13-41-25-25-20-45-8-61 20-3 59 4 51 11z"/><path d="M394 116l-5-2c-8-1-4-8 3-8 14-16 22-4 39-9 6-2 10-1 14 0 7-5 16-3 23 3l3-3c6-1 11 4 13 10 4 0 10 2 13 5 5-2 9-3 10 0 4-2 10-3 13 4s-7 5-8 19c-1 9-12 13-20 7-12-8-25-10-31 4-6 13-11 20-26 16-5-1-12 1-17 6-4 6-11 1-19 2 10-2 6-5 15-5 8-1 6-8 11-9-20 5-19-2-36 3 8-10 19-4 25-10-15 0-22-10-29-6-10 7-6 25-33 23-14 0-22 1-30 9 14-28 33-13 42-22l12-14 4-4c-23-7-9-18 14-19z"/></g></svg>