<?xml version="1.0" encoding="UTF-8" standalone="no"?>
<svg
   xmlns:dc="http://purl.org/dc/elements/1.1/"
   xmlns:cc="http://creativecommons.org/ns#"
   xmlns:rdf="http://www.w3.org/1999/02/22-rdf-syntax-ns#"
   xmlns:svg="http://www.w3.org/2000/svg"
   xmlns="http://www.w3.org/2000/svg"
   xmlns:xlink="http://www.w3.org/1999/xlink"
   xmlns:sodipodi="http://sodipodi.sourceforge.net/DTD/sodipodi-0.dtd"
   xmlns:inkscape="http://www.inkscape.org/namespaces/inkscape"
   height="480"
   width="640"
   viewBox="0 0 640 480"
   id="svg2"
   version="1.1"
   inkscape:version="0.91 r13725"
   sodipodi:docname="bz.svg">
  <metadata
     id="metadata263">
    <rdf:RDF>
      <cc:Work
         rdf:about="">
        <dc:format>image/svg+xml</dc:format>
        <dc:type
           rdf:resource="http://purl.org/dc/dcmitype/StillImage" />
      </cc:Work>
    </rdf:RDF>
  </metadata>
  <sodipodi:namedview
     pagecolor="#ffffff"
     bordercolor="#666666"
     borderopacity="1"
     objecttolerance="10"
     gridtolerance="10"
     guidetolerance="10"
     inkscape:pageopacity="0"
     inkscape:pageshadow="2"
     inkscape:window-width="2560"
     inkscape:window-height="1027"
     id="namedview261"
     showgrid="false"
     inkscape:zoom="1.2727922"
     inkscape:cx="198.54421"
     inkscape:cy="155.9786"
     inkscape:window-x="1358"
     inkscape:window-y="-8"
     inkscape:window-maximized="1"
     inkscape:current-layer="svg2" />
  <defs
     id="defs4">
    <radialGradient
       id="a">
      <stop
         offset="0"
         stop-color="#ffef5d"
         id="stop7" />
      <stop
         offset="1"
         stop-color="#ea5700"
         id="stop9" />
    </radialGradient>
    <radialGradient
       id="b">
      <stop
         offset="0"
         stop-color="#952d1a"
         id="stop12" />
      <stop
         offset="1"
         stop-color="#570a00"
         id="stop14" />
    </radialGradient>
    <radialGradient
       xlink:href="#a"
       id="c"
       gradientTransform="scale(1.22624 .8155)"
       cx="247.075"
       cy="238.328"
       fx="247.075"
       fy="238.328"
       r="35.95"
       gradientUnits="userSpaceOnUse" />
    <radialGradient
       xlink:href="#a"
       id="d"
       gradientTransform="scale(.93615 1.06821)"
       cx="321.991"
       cy="152.954"
       fx="321.991"
       fy="152.954"
       r="10.578"
       gradientUnits="userSpaceOnUse" />
    <radialGradient
       xlink:href="#b"
       id="e"
       gradientTransform="scale(1.2242 .81686)"
       cx="364.21"
       cy="237.789"
       fx="364.21"
       fy="237.789"
       r="36.034"
       gradientUnits="userSpaceOnUse" />
    <radialGradient
       xlink:href="#b"
       id="f"
       gradientTransform="scale(.95596 1.04607)"
       cx="468.154"
       cy="156.129"
       fx="468.154"
       fy="156.129"
       r="10.739"
       gradientUnits="userSpaceOnUse" />
  </defs>
  <path
     fill="#ce1126"
     d="M0 0h640v480H0z"
     id="path20" />
  <path
     fill="#003f87"
     d="M0 34.285h640v411.427H0z"
     id="path22" />
  <circle
     cx="320"
     cy="240"
     r="188.572"
     fill="#fff"
     id="circle24" />
  <circle
     r="156.3"
     cy="239.04"
     cx="320"
     fill="none"
     stroke="#552300"
     stroke-width="3.939"
     id="circle26" />
  <path
     d="M301.942 73.191c14.136-15.166 26.918 2.353 26.577 10.562-.341 8.21-14.599 26.32-27.5 11.745 13.365 3.422 17.36-11.523 24.12-11.67-6.76.148-9.523-14.65-23.197-10.636zM154.803 192.115c-7.432-19.298 14.058-22.902 21.32-18.96 7.264 3.94 17.3 24.653-1.582 29.67 9.015-10.373-2.711-20.552.15-26.63-2.861 6.078-17.451 1.977-19.888 15.921zM471.949 173.03c19.361 7.589 7.533 25.754-.302 28.41-7.834 2.657-30.006-3.977-20.987-21.19 1.624 13.604 17.109 11.891 19.695 18.092-2.588-6.201 10.311-14.113 1.593-25.312zM218.797 377.414c-20.713-2.059-14.324-22.737-7.52-27.413 6.808-4.677 29.963-4.296 26.016 14.705-5.3-12.647-19.726-6.808-23.918-12.073 4.19 5.265-6.044 16.368 5.422 24.781zM428.134 362.448c.296 20.656-21.132 16.712-26.59 10.534-5.456-6.178-7.71-29.051 11.761-27.324-12.056 6.667-4.57 20.226-9.363 24.958 4.794-4.732 17.076 4.095 24.193-8.167zM169.894 152.87c-1.889-20.573 19.782-18.267 25.698-12.522 5.916 5.746 9.928 28.382-9.62 28.138 11.51-7.563 2.998-20.514 7.413-25.597-4.414 5.084-17.34-2.785-23.491 9.982zM192.09 345.878c-20.527-3.443-12.745-23.645-5.637-27.857 7.11-4.209 30.187-2.277 24.955 16.416-4.429-12.976-19.219-8.115-23.043-13.65 3.824 5.536-7.142 15.93 3.724 25.09zM354.291 74.042c18.641-9.195 24.32 11.687 21.063 19.241-3.255 7.554-23.065 19.458-29.911 1.284 11.268 7.91 20.353-4.651 26.725-2.407-6.372-2.244-3.66-17.052-17.877-18.118zM393.958 388.31c-9.24 18.512-26.49 5.292-28.501-2.678-2.011-7.97 6.509-29.341 23.036-18.978-13.794.465-13.373 15.923-19.814 17.96 6.441-2.038 13.306 11.38 25.28 3.696zM484.477 209.645c15.663 13.61-1.637 26.767-9.912 26.653-8.278-.113-26.909-13.763-12.58-26.962-3.082 13.352 12.08 16.91 12.414 23.61-.336-6.7 14.493-9.846 10.078-23.301zM221.504 100.838c4.674-20.132 24.537-11.23 28.354-3.938 3.815 7.291.508 30.037-17.986 23.753 13.311-3.62 9.298-18.56 15.09-22.021-5.792 3.46-15.6-8.019-25.457 2.207zM159.94 273.34c-18.24-9.957-4.191-26.491 3.918-28.144 8.108-1.654 29.258 7.711 18.116 23.654.123-13.695-15.455-13.942-17.23-20.416 1.775 6.475-12.027 12.705-4.805 24.907zM423.488 113.74c20.604-2.961 19.43 18.636 13.962 24.804-5.468 6.168-28.032 11.344-28.822-8.042 8.22 11.005 20.799 1.884 26.149 5.99-5.348-4.106 1.884-17.333-11.289-22.75zM306.3 408.115c-19.005 8.429-23.815-12.667-20.25-20.083 3.566-7.413 23.853-18.501 29.94-.063-10.933-8.363-20.53 3.817-26.803 1.316 6.274 2.5 2.952 17.183 17.114 18.83zM476.835 292.877c8.582 18.822-12.653 23.695-20.14 20.192-7.487-3.502-18.756-23.582-.207-29.71-8.374 10.888 3.945 20.352 1.453 26.59 2.492-6.238 17.304-3.01 18.894-17.071zM151.674 232.253c-11.94-16.924 8.02-25.608 16.032-23.538 8.011 2.068 22.826 19.735 5.738 29.161 6.202-12.238-7.668-19.28-6.381-25.867-1.288 6.586-16.444 6.131-15.39 20.244zM263.965 395.597c-19.536 7.136-22.9-14.238-18.837-21.395 4.062-7.159 25.056-16.86 29.875 1.943-10.34-9.077-20.74 2.434-26.831-.483 6.09 2.915 1.774 17.341 15.793 19.934zM258.33 81.541c11.575-17.171 26.956-1.848 27.913 6.312.956 8.161-10.275 28.26-25.315 15.864 13.74 1.309 15.334-14.072 21.987-15.266-6.653 1.193-11.712-12.993-24.585-6.91zM458.5 333.715c1.249 20.623-20.34 17.655-26.074 11.73-5.737-5.925-9.043-28.674 10.49-27.83-11.74 7.205-3.635 20.412-8.205 25.356 4.57-4.944 17.246 3.316 23.788-9.256zM453.19 139.277c20.407 4.088 11.981 24.036 4.741 28.02-7.24 3.982-30.243 1.323-24.416-17.197 4.009 13.109 18.949 8.718 22.594 14.37-3.644-5.65 7.65-15.693-2.918-25.193zM194.758 124.742c.198-20.659 21.526-16.21 26.832-9.904 5.307 6.307 7.014 29.227-12.411 27.04 12.214-6.38 5.053-20.113 9.959-24.731-4.906 4.618-16.972-4.495-24.38 7.596zM168.954 310.954c-18.573-9.334-5.099-26.334 2.949-28.26 8.047-1.926 29.505 6.716 18.92 23.027-.35-13.694-15.927-13.41-17.923-19.822 1.997 6.411-11.583 13.105-3.946 25.055zM392 91.014c19.476-7.296 23.017 14.046 19.017 21.239-4.002 7.192-24.914 17.067-29.89-1.696 10.413 8.99 20.72-2.605 26.833.262-6.115-2.867-1.92-17.329-15.96-19.805zM350.662 405.802c-15.146 14.203-26.69-4.125-25.787-12.293.904-8.17 16.372-25.303 28.241-9.907-13.099-4.296-18.11 10.355-24.866 10.056 6.756.297 8.496 15.246 22.411 12.144zM483.373 247.805c14.21 15.099-4.33 26.469-12.554 25.534-8.224-.935-25.384-16.371-9.794-28.078-4.414 12.979 10.311 18.027 9.967 24.727.344-6.701 15.416-8.357 12.38-22.183z"
     fill="#007f00"
     id="path28" />
  <g
     fill="#69f"
     id="g229" />
  <g
     fill="none"
     stroke="#000"
     stroke-width=".712"
     id="g233" />
</svg>
