<svg xmlns="http://www.w3.org/2000/svg" height="480" width="640" viewBox="0 0 640 480" version="1"><path fill="#ce1126" d="M0 0h640v480H0z"/><path fill="#003f87" d="M0 34h640v412H0z"/><circle cx="320" cy="240" r="189" fill="#fff"/><circle r="156" cy="239" cx="320" fill="none" stroke="#552300" stroke-width="4"/><path d="M302 73c14-15 27 3 27 11-1 8-15 26-28 11 13 4 17-11 24-11-7 0-9-15-23-11zM155 192c-8-19 14-23 21-19s17 25-1 30c9-11-3-21 0-27-3 6-18 2-20 16zm317-19c19 8 7 26 0 28-8 3-30-4-21-21 1 14 17 12 19 18-2-6 11-14 2-25zM219 377c-21-2-15-22-8-27s30-4 26 15c-5-13-19-7-24-12 5 5-6 16 6 24zm209-15c0 21-21 17-26 11-6-6-8-29 11-27-12 6-4 20-9 25 5-5 17 4 24-9zM170 153c-2-21 20-18 26-13 6 6 10 29-10 28 11-7 3-20 7-25-4 5-17-3-23 10zm22 193c-20-4-13-24-6-28 8-4 31-2 25 16-4-13-19-8-23-13 4 5-7 16 4 25zM354 74c19-9 25 12 21 19-3 8-23 20-30 2 12 7 21-5 27-3-6-2-3-17-18-18zm40 314c-9 19-27 6-29-2s7-30 23-19c-13 0-13 16-19 18 6-2 13 11 25 3zm90-178c16 13-1 26-9 26-9 0-27-13-13-27-3 14 12 17 12 24 0-7 15-10 10-23zM222 101c4-20 24-11 28-4s0 30-18 24c13-4 9-19 15-22-6 3-16-8-25 2zm-62 172c-18-10-4-26 4-28 8-1 29 8 18 24 0-14-15-14-17-21 2 7-12 13-5 25zm263-159c21-3 20 18 14 25-5 6-28 11-28-8 8 11 20 1 26 5-6-4 2-17-12-22zM306 408c-19 9-24-13-20-20s24-18 30 0c-11-8-21 4-27 1 6 3 3 17 17 19zm171-115c8 19-13 24-20 20-8-3-19-24-1-30-8 11 4 21 2 27 2-6 17-3 19-17zm-325-61c-12-17 8-25 16-23s23 19 5 29c7-12-7-19-6-26-1 7-16 6-15 20zm112 164c-20 7-23-15-19-22s25-17 30 2c-10-9-21 3-27 0 6 3 2 17 16 20zm-6-314c12-18 27-2 28 6s-10 28-25 16c14 1 15-14 22-16-7 2-12-13-25-6zm201 252c1 20-21 17-27 11-5-5-9-28 11-27-12 7-4 20-8 25 4-5 17 3 23-9zm-6-195c21 4 12 24 5 28s-30 2-24-17c4 13 18 9 22 14-4-5 8-15-3-25zm-258-14c0-21 21-16 27-10 5 6 7 29-13 27 12-7 5-20 10-25-5 5-17-4-24 8zm-26 186c-19-9-5-26 3-28s29 6 19 23c-1-14-16-14-18-20 2 6-12 13-4 25zM392 91c19-7 23 14 19 21s-25 17-30-1c11 9 21-3 27 0-6-3-2-18-16-20zm-41 315c-15 14-27-4-26-12 1-9 16-26 28-10-13-5-18 10-25 10 7 0 9 15 23 12zm132-158c15 15-4 26-12 25s-26-16-10-28c-4 13 10 18 10 25 0-7 15-8 12-22z" fill="#007f00"/></svg>