<?xml version="1.0" encoding="UTF-8" standalone="no"?>
<svg
   xmlns:dc="http://purl.org/dc/elements/1.1/"
   xmlns:cc="http://creativecommons.org/ns#"
   xmlns:rdf="http://www.w3.org/1999/02/22-rdf-syntax-ns#"
   xmlns:svg="http://www.w3.org/2000/svg"
   xmlns="http://www.w3.org/2000/svg"
   xmlns:sodipodi="http://sodipodi.sourceforge.net/DTD/sodipodi-0.dtd"
   xmlns:inkscape="http://www.inkscape.org/namespaces/inkscape"
   height="480"
   width="640"
   viewBox="0 0 640 480"
   id="svg2"
   version="1.1"
   inkscape:version="0.91 r13725"
   sodipodi:docname="dm.svg">
  <metadata
     id="metadata261">
    <rdf:RDF>
      <cc:Work
         rdf:about="">
        <dc:format>image/svg+xml</dc:format>
        <dc:type
           rdf:resource="http://purl.org/dc/dcmitype/StillImage" />
      </cc:Work>
    </rdf:RDF>
  </metadata>
  <sodipodi:namedview
     pagecolor="#ffffff"
     bordercolor="#666666"
     borderopacity="1"
     objecttolerance="10"
     gridtolerance="10"
     guidetolerance="10"
     inkscape:pageopacity="0"
     inkscape:pageshadow="2"
     inkscape:window-width="2560"
     inkscape:window-height="1027"
     id="namedview259"
     showgrid="false"
     inkscape:zoom="0.6363961"
     inkscape:cx="331.49795"
     inkscape:cy="353.62252"
     inkscape:window-x="1358"
     inkscape:window-y="-8"
     inkscape:window-maximized="1"
     inkscape:current-layer="g43" />
  <defs
     id="defs4">
    <clipPath
       id="a">
      <path
         fill-opacity=".67"
         d="M-85.01 0h682.67v512H-85.01z"
         id="path7" />
    </clipPath>
  </defs>
  <g
     fill-rule="evenodd"
     clip-path="url(#a)"
     transform="translate(79.7) scale(.94)"
     id="g9">
    <path
       fill="#108c00"
       d="M-258.27 0h1027.5v512h-1027.5z"
       id="path11" />
    <path
       fill="#ffd600"
       d="M-260 178.16H772.6v50.162H-260z"
       id="path13" />
    <path
       fill="#ffd600"
       d="M181.08 0h48.432v512H181.08z"
       id="path15" />
    <path
       d="M227.78 0h48.432v512H227.78z"
       id="path17" />
    <path
       d="M-260 226.59H772.6v50.162H-260z"
       id="path19" />
    <path
       fill="#fff"
       d="M-260 276.76H772.6v50.162H-260z"
       id="path21" />
    <path
       fill="#fff"
       d="M276.22 0h48.432v512H276.22z"
       id="path23" />
    <rect
       transform="scale(-1)"
       ry="137.51"
       width="273.75"
       y="-393.87"
       x="-394.56"
       height="275.03"
       fill="#e72910"
       id="rect25" />
    <g
       stroke-width="1pt"
       id="g27">
      <path
         d="M250.51 136.92c0-.258 5.61-15.997 5.61-15.997l5.098 15.74s17.08.515 17.08.257-13.51 10.32-13.51 10.32 6.373 18.062 6.118 17.546c-.255-.516-14.787-10.837-14.787-10.837s-14.787 10.32-14.532 10.32 5.608-17.03 5.608-17.03l-13.256-10.063 16.57-.258z"
         id="path29" />
      <path
         d="M251.274 137.72c0-.224 4.857-13.855 4.857-13.855l4.417 13.63s14.794.448 14.794.225-11.7 8.938-11.7 8.938 5.52 15.643 5.298 15.196c-.22-.447-12.807-9.386-12.807-9.386s-12.805 8.94-12.584 8.94 4.857-14.75 4.857-14.75l-11.48-8.716 14.35-.223z"
         fill="#ffe700"
         id="path31" />
    </g>
    <g
       stroke-width="1pt"
       id="g35">
      <path
         d="M356.875 211.8c0-.258 5.608-15.997 5.608-15.997l5.1 15.74s17.08.515 17.08.257-13.512 10.32-13.512 10.32 6.375 18.062 6.12 17.546c-.255-.516-14.787-10.837-14.787-10.837s-14.786 10.32-14.53 10.32 5.607-17.03 5.607-17.03l-13.256-10.063 16.57-.258z"
         id="path37" />
      <path
         d="M357.638 212.6c0-.224 4.857-13.855 4.857-13.855l4.416 13.63s14.795.448 14.795.225-11.702 8.938-11.702 8.938 5.52 15.643 5.3 15.196c-.222-.447-12.808-9.386-12.808-9.386s-12.806 8.94-12.585 8.94 4.857-14.75 4.857-14.75l-11.48-8.716 14.35-.223z"
         fill="#ffe700"
         id="path39" />
    </g>
    <g
       stroke-width="1pt"
       id="g43">
      <path
         d="M325.875 330.65c0-.258 5.608-15.997 5.608-15.997l5.1 15.74s17.08.515 17.08.257-13.512 10.32-13.512 10.32 6.375 18.062 6.12 17.546c-.255-.516-14.787-10.837-14.787-10.837S316.697 358 316.953 358s5.607-17.03 5.607-17.03l-13.256-10.063 16.57-.258z"
         id="path45" />
      <path
         d="M326.638 331.45c0-.224 4.857-13.855 4.857-13.855l4.416 13.63s14.795.448 14.795.225-11.702 8.938-11.702 8.938 5.52 15.643 5.3 15.196c-.222-.447-12.808-9.386-12.808-9.386s-12.806 8.94-12.585 8.94 4.857-14.75 4.857-14.75l-11.48-8.716 14.35-.223z"
         fill="#ffe700"
         id="path47" />
    </g>
    <g
       stroke-width="1pt"
       id="g51">
      <path
         d="M177.167 330.65c0-.258 5.608-15.997 5.608-15.997l5.1 15.74s17.08.515 17.08.257-13.512 10.32-13.512 10.32 6.374 18.062 6.12 17.546c-.256-.516-14.788-10.837-14.788-10.837S167.99 358 168.245 358s5.607-17.03 5.607-17.03l-13.256-10.063 16.57-.258z"
         id="path53" />
      <path
         d="M177.93 331.45c0-.224 4.857-13.855 4.857-13.855l4.416 13.63s14.794.448 14.794.225-11.702 8.938-11.702 8.938 5.52 15.643 5.3 15.196c-.222-.447-12.808-9.386-12.808-9.386s-12.806 8.94-12.585 8.94 4.857-14.75 4.857-14.75l-11.482-8.716 14.352-.223z"
         fill="#ffe700"
         id="path55" />
    </g>
    <g
       stroke-width="1pt"
       id="g59">
      <path
         d="M150.01 208.74c0-.258 5.608-15.997 5.608-15.997l5.1 15.74s17.08.515 17.08.257-13.512 10.32-13.512 10.32 6.374 18.062 6.12 17.546c-.256-.516-14.788-10.837-14.788-10.837s-14.786 10.32-14.53 10.32 5.607-17.03 5.607-17.03l-13.256-10.063 16.57-.258z"
         id="path61" />
      <path
         d="M150.773 209.54c0-.224 4.857-13.855 4.857-13.855l4.416 13.63s14.794.448 14.794.225-11.702 8.938-11.702 8.938 5.52 15.643 5.3 15.196c-.222-.447-12.808-9.386-12.808-9.386s-12.806 8.94-12.585 8.94 4.857-14.75 4.857-14.75l-11.48-8.716 14.35-.223z"
         fill="#ffe700"
         id="path63" />
    </g>
    <g
       stroke-width="1pt"
       id="g67">
      <path
         d="M324.615 174.14c0 .258-5.608 15.997-5.608 15.997l-5.1-15.74s-17.08-.515-17.08-.257 13.512-10.32 13.512-10.32-6.375-18.062-6.12-17.546c.255.516 14.787 10.837 14.787 10.837s14.786-10.32 14.53-10.32-5.607 17.03-5.607 17.03l13.256 10.063-16.57.258z"
         id="path69" />
      <path
         d="M323.852 173.34c0 .224-4.857 13.855-4.857 13.855l-4.416-13.63s-14.795-.448-14.795-.225 11.702-8.938 11.702-8.938-5.52-15.643-5.3-15.196c.222.447 12.808 9.386 12.808 9.386s12.806-8.94 12.585-8.94-4.857 14.75-4.857 14.75l11.48 8.716-14.35.223z"
         fill="#ffe700"
         id="path71" />
    </g>
    <g
       stroke-width="1pt"
       id="g75">
      <path
         d="M367.315 290.28c0 .258-5.608 15.997-5.608 15.997l-5.1-15.74s-17.08-.515-17.08-.257 13.512-10.32 13.512-10.32-6.375-18.062-6.12-17.546c.255.516 14.787 10.837 14.787 10.837s14.786-10.32 14.53-10.32-5.607 17.03-5.607 17.03l13.256 10.063-16.57.258z"
         id="path77" />
      <path
         d="M366.552 289.48c0 .224-4.857 13.855-4.857 13.855l-4.416-13.63s-14.795-.448-14.795-.225 11.702-8.938 11.702-8.938-5.52-15.643-5.3-15.196c.222.447 12.808 9.386 12.808 9.386s12.806-8.94 12.585-8.94-4.857 14.75-4.857 14.75l11.48 8.716-14.35.223z"
         fill="#ffe700"
         id="path79" />
    </g>
    <g
       stroke-width="1pt"
       id="g83">
      <path
         d="M261.425 375.25c0 .258-5.608 15.997-5.608 15.997l-5.1-15.74s-17.08-.515-17.08-.257 13.512-10.32 13.512-10.32-6.375-18.062-6.12-17.546c.255.516 14.787 10.837 14.787 10.837s14.786-10.32 14.53-10.32-5.607 17.03-5.607 17.03l13.256 10.063-16.57.258z"
         id="path85" />
      <path
         d="M260.662 374.45c0 .224-4.857 13.855-4.857 13.855l-4.416-13.63s-14.795-.448-14.795-.225 11.702-8.938 11.702-8.938-5.52-15.643-5.3-15.196c.222.447 12.808 9.386 12.808 9.386s12.806-8.94 12.585-8.94-4.857 14.75-4.857 14.75l11.48 8.716-14.35.223z"
         fill="#ffe700"
         id="path87" />
    </g>
    <g
       stroke-width="1pt"
       id="g91">
      <path
         d="M161.935 290.28c0 .258-5.608 15.997-5.608 15.997l-5.1-15.74s-17.08-.515-17.08-.257 13.512-10.32 13.512-10.32-6.375-18.062-6.12-17.546c.255.516 14.787 10.837 14.787 10.837s14.786-10.32 14.53-10.32-5.607 17.03-5.607 17.03l13.256 10.063-16.57.258z"
         id="path93" />
      <path
         d="M161.172 289.48c0 .224-4.857 13.855-4.857 13.855l-4.416-13.63s-14.795-.448-14.795-.225 11.702-8.938 11.702-8.938-5.52-15.643-5.3-15.196c.222.447 12.808 9.386 12.808 9.386s12.806-8.94 12.585-8.94-4.857 14.75-4.857 14.75l11.48 8.716-14.35.223z"
         fill="#ffe700"
         id="path95" />
    </g>
    <g
       stroke-width="1pt"
       id="g99">
      <path
         d="M198.655 175.85c0 .258-5.608 15.997-5.608 15.997l-5.1-15.74s-17.08-.515-17.08-.257 13.512-10.32 13.512-10.32-6.375-18.062-6.12-17.546c.255.516 14.787 10.837 14.787 10.837s14.786-10.32 14.53-10.32-5.607 17.03-5.607 17.03l13.256 10.063-16.57.258z"
         id="path101" />
      <path
         d="M197.892 175.05c0 .224-4.857 13.855-4.857 13.855l-4.416-13.63s-14.795-.448-14.795-.225 11.702-8.938 11.702-8.938-5.52-15.643-5.3-15.196c.222.447 12.808 9.386 12.808 9.386s12.806-8.94 12.585-8.94-4.857 14.75-4.857 14.75l11.48 8.716-14.35.223z"
         fill="#ffe700"
         id="path103" />
    </g>
  </g>
</svg>
