<svg xmlns="http://www.w3.org/2000/svg" height="480" width="640" viewBox="0 0 640 480" version="1"><defs><clipPath id="a"><path d="M-85 0h683v512H-85z"/></clipPath></defs><g fill-rule="evenodd" clip-path="url(#a)" transform="translate(80) scale(.94)"><path fill="#108c00" d="M-258 0H769v512H-258z"/><path fill="#ffd600" d="M-260 178H773v50H-260z"/><path fill="#ffd600" d="M181 0h49v512h-49z"/><path d="M228 0h48v512h-48z"/><path d="M-260 227H773v50H-260z"/><path fill="#fff" d="M-260 277H773v50H-260z"/><path fill="#fff" d="M276 0h49v512h-49z"/><rect transform="scale(-1)" ry="138" width="274" y="-394" x="-395" height="275" fill="#e72910"/><path d="M251 137l5-16 5 16h17l-13 10 6 18-15-11-14 10 5-17-13-10h17z"/><path d="M251 138l5-14 5 13 14 1-11 9 5 15-13-10-12 9 4-14-11-9h14z" fill="#ffe700"/><path d="M357 212l5-16 6 16h17l-14 10 6 18-15-11-14 10 6-17-14-10h17z"/><path d="M358 213l4-14 5 13 15 1-12 9 5 15-13-10-12 9 5-14-12-9h15z" fill="#ffe700"/><path d="M326 331l5-16 6 15 17 1-14 10 6 18-15-11-14 10 6-17-14-10h17z"/><path d="M327 331l4-13 5 13h15l-12 9 5 16-13-10-12 9 5-15-12-8 15-1z" fill="#ffe700"/><path d="M177 331l6-16 5 15 17 1-14 10 7 18-15-11-15 10 6-17-13-10h16z"/><path d="M178 331l5-13 4 13h15l-12 9 6 16-13-10-13 9 5-15-11-8 14-1z" fill="#ffe700"/><path d="M150 209l6-16 5 15 17 1-14 10 6 18-14-11-15 10 6-17-14-10h17z"/><path d="M151 210l5-14 4 13 15 1-12 8 5 16-12-10-13 9 5-15-12-8h15z" fill="#ffe700"/><path d="M325 174l-6 16-5-16h-17l13-10-6-18 15 11 15-10-6 17 13 10h-16z"/><path d="M324 173l-5 14-4-13-15-1 11-9-5-15 13 10 13-9-5 14 11 9h-14z" fill="#ffe700"/><path d="M367 290l-5 16-5-15-17-1 13-10-6-18 15 11 14-10-5 17 13 10h-17z"/><path d="M367 289l-5 14-5-13-15-1 12-8-5-16 13 10 12-9-5 15 12 8h-14z" fill="#ffe700"/><path d="M261 375l-5 16-5-15-17-1 13-10-6-18 15 11 14-10-5 17 13 10h-17z"/><path d="M261 374l-5 14-5-13-14-1 11-8-5-16 13 10 12-9-4 15 11 8h-14z" fill="#ffe700"/><path d="M162 290l-6 16-5-15-17-1 14-10-6-18 14 11 15-10-6 17 14 10h-17z"/><path d="M161 289l-5 14-4-13-15-1 12-8-5-16 12 10 13-9-5 15 12 8h-15z" fill="#ffe700"/><path d="M199 176l-6 16-5-16h-17l13-10-6-18 15 11 15-10-6 17 13 10h-16z"/><path d="M198 175l-5 14-4-14h-15l12-9-6-15 13 9 13-9-5 15 11 9h-14z" fill="#ffe700"/></g></svg>