<?xml version="1.0" encoding="UTF-8" standalone="no"?>
<svg
   xmlns:dc="http://purl.org/dc/elements/1.1/"
   xmlns:cc="http://creativecommons.org/ns#"
   xmlns:rdf="http://www.w3.org/1999/02/22-rdf-syntax-ns#"
   xmlns:svg="http://www.w3.org/2000/svg"
   xmlns="http://www.w3.org/2000/svg"
   xmlns:sodipodi="http://sodipodi.sourceforge.net/DTD/sodipodi-0.dtd"
   xmlns:inkscape="http://www.inkscape.org/namespaces/inkscape"
   height="480"
   width="640"
   viewBox="0 0 640 480"
   version="1.1"
   id="svg264"
   sodipodi:docname="ec.svg"
   inkscape:version="0.92.1 r15371">
  <metadata
     id="metadata270">
    <rdf:RDF>
      <cc:Work
         rdf:about="">
        <dc:format>image/svg+xml</dc:format>
        <dc:type
           rdf:resource="http://purl.org/dc/dcmitype/StillImage" />
      </cc:Work>
    </rdf:RDF>
  </metadata>
  <defs
     id="defs268" />
  <sodipodi:namedview
     pagecolor="#ffffff"
     bordercolor="#666666"
     borderopacity="1"
     objecttolerance="10"
     gridtolerance="10"
     guidetolerance="10"
     inkscape:pageopacity="0"
     inkscape:pageshadow="2"
     inkscape:window-width="2560"
     inkscape:window-height="1027"
     id="namedview266"
     showgrid="false"
     inkscape:zoom="0.056054688"
     inkscape:cx="6333.4849"
     inkscape:cy="-1115.8123"
     inkscape:window-x="1358"
     inkscape:window-y="-8"
     inkscape:window-maximized="1"
     inkscape:current-layer="svg264" />
  <g
     fill-rule="evenodd"
     stroke-width="1pt"
     id="g8">
    <path
       fill="#ffe800"
       d="M0 0h640v480H0z"
       id="path2" />
    <path
       fill="#00148e"
       d="M0 240h640v240H0z"
       id="path4" />
    <path
       fill="#da0010"
       d="M0 360h640v120H0z"
       id="path6" />
  </g>
  <path
     d="M301.18 272.84s-17.716 336.61 53.15 336.61 106.3-35.433 106.3-35.433l-.86-185.03-158.59-116.15z"
     fill-rule="evenodd"
     transform="matrix(.45 0 0 .64 72.37 -59.76)"
     stroke="#000"
     stroke-width="1pt"
     fill="#ffdf00"
     id="path18" />
  <path
     d="M301.18 272.84s-35.433 336.61 70.866 336.61c88.583 0 88.583-53.15 106.3-53.15l-17.72-124.02-159.45-159.44z"
     fill-rule="evenodd"
     stroke="#000"
     stroke-width="1pt"
     fill="#ffdf00"
     transform="matrix(.58 0 0 .62 9.63 -10.18)"
     id="path26" />
  <path
     d="M336.61 308.27c0 17.717-35.433 212.6 53.15 265.75 35.433 17.716 88.582-17.717 88.582 0l-17.71-141.74-124.02-124.01z"
     fill-rule="evenodd"
     transform="matrix(.58 0 0 .62 9.63 -10.18)"
     stroke="#000"
     stroke-width="1pt"
     fill="#0000c4"
     id="path78" />
  <path
     d="M372.05 343.7c0 17.717-17.716 159.45 35.433 194.88 35.433 35.433 124.02 25.822 124.02 25.822l-70.87-132.12-88.58-88.58z"
     fill-rule="evenodd"
     stroke="#000"
     stroke-width="1pt"
     fill="#e10000"
     transform="matrix(.58 0 0 .62 9.63 -10.18)"
     id="path80" />
  <g
     fill-rule="evenodd"
     stroke-width="1pt"
     id="g158">
    <path
       d="M301.18 272.84s-17.716 336.61 53.15 336.61 106.3-35.433 106.3-35.433l-.86-185.03-158.59-116.15z"
       transform="matrix(-.45 0 0 .64 567.65 -59.76)"
       stroke="#000"
       fill="#ffdf00"
       id="path104" />
    <path
       d="M344.46 304.2c0 17.717-7.846 269.82 27.587 269.82s88.583-17.717 88.583-17.717l-.86-167.31-115.31-84.79z"
       transform="matrix(-.45 0 0 .64 567.65 -59.76)"
       stroke="#000"
       fill="#0000c4"
       id="path106" />
    <path
       d="M301.18 272.84s-35.433 336.61 70.866 336.61c88.583 0 88.583-53.15 106.3-53.15l-17.72-124.02-159.45-159.44z"
       transform="matrix(-.58 0 0 .62 630.39 -10.18)"
       stroke="#000"
       fill="#ffdf00"
       id="path138" />
    <path
       d="M336.61 308.27c0 17.717-35.433 212.6 53.15 265.75 35.433 17.716 88.582-17.717 88.582 0l-17.71-141.74-124.02-124.01z"
       transform="matrix(-.58 0 0 .62 630.39 -10.18)"
       stroke="#000"
       fill="#0000c4"
       id="path140" />
    <path
       d="M372.05 343.7c0 17.717-17.716 159.45 35.433 194.88 35.433 35.433 124.02 25.822 124.02 25.822l-70.87-132.12-88.58-88.58z"
       transform="matrix(-.58 0 0 .62 630.39 -10.18)"
       stroke="#000"
       fill="#e10000"
       id="path142" />
  </g>
  <path
     d="M379.554 235.867c0 48.532-27.603 87.873-61.654 87.873-34.05 0-61.654-39.343-61.654-87.873 0-48.532 27.603-87.873 61.654-87.873 34.05 0 61.654 39.343 61.654 87.873z"
     fill-rule="evenodd"
     fill="#a7cfff"
     id="path218" />
  <g
     id="g262">
    <path
       d="M182.612 89.522s20.98-11.61 44.87-20.254c23.886-8.644 50.68-14.325 54.222-14.325 7.077 0 19.21 17.783 21.233 17.783 2.022 0 10.11-4.94 20.223-4.94s16.178 7.904 18.2 7.904h18.2c2.023 0-6.066-19.76 0-18.77 3.034.493 28.817 4.445 52.833 12.225 24.014 7.78 58.103 21.515 58.103 21.515s-55.714 7.44-70.488 5.24c-2.022.988-.1 13.07-2.933 7.754-4.656-1.063-21.744-3.727-24.778-3.727s-8.69 3.427-16.78 5.402c-8.088 1.976-18.2 4.94-18.2 4.94l13.146 20.747-16.178 7.903s-10.11-23.71-14.156-23.71-6.067 16.795-11.123 15.807c-5.056-.988-7.078-15.808-11.123-19.76-4.044-3.95-25.368-5.39-33.458-7.366-8.09-1.975-21.144-3.5-28.222-5.476-7.078-1.976-14.155 4.94-17.19 4.94-3.032 0 4.046-5.928 1.012-6.916s-5.055 2.964-7.078 2.964c-2.022 0-23.256-3.952-25.278-4.94-2.022-.988 5.056-4.94 3.034-4.94h-8.09z"
       fill-rule="evenodd"
       fill="#984000"
       id="path250" />
  </g>
</svg>
