<?xml version="1.0" encoding="UTF-8" standalone="no"?>
<svg
   xmlns:dc="http://purl.org/dc/elements/1.1/"
   xmlns:cc="http://creativecommons.org/ns#"
   xmlns:rdf="http://www.w3.org/1999/02/22-rdf-syntax-ns#"
   xmlns:svg="http://www.w3.org/2000/svg"
   xmlns="http://www.w3.org/2000/svg"
   xmlns:sodipodi="http://sodipodi.sourceforge.net/DTD/sodipodi-0.dtd"
   xmlns:inkscape="http://www.inkscape.org/namespaces/inkscape"
   height="480"
   width="640"
   viewBox="0 0 640 480"
   id="svg2"
   version="1.1"
   inkscape:version="0.91 r13725"
   sodipodi:docname="fj.svg">
  <metadata
     id="metadata234">
    <rdf:RDF>
      <cc:Work
         rdf:about="">
        <dc:format>image/svg+xml</dc:format>
        <dc:type
           rdf:resource="http://purl.org/dc/dcmitype/StillImage" />
      </cc:Work>
    </rdf:RDF>
  </metadata>
  <defs
     id="defs232" />
  <sodipodi:namedview
     pagecolor="#ffffff"
     bordercolor="#666666"
     borderopacity="1"
     objecttolerance="10"
     gridtolerance="10"
     guidetolerance="10"
     inkscape:pageopacity="0"
     inkscape:pageshadow="2"
     inkscape:window-width="2560"
     inkscape:window-height="1027"
     id="namedview230"
     showgrid="false"
     inkscape:zoom="0.15909903"
     inkscape:cx="185.70512"
     inkscape:cy="1036.4885"
     inkscape:window-x="1358"
     inkscape:window-y="-8"
     inkscape:window-maximized="1"
     inkscape:current-layer="g14" />
  <path
     d="M0 0v480h640V.079H402.442V0H0z"
     id="path4"
     fill="#68bfe5" />
  <g
     stroke-miterlimit="4.8"
     id="g6">
    <path
       d="M420.887 193.236v136.357c0 44.599 80.581 71.08 80.581 71.08s80.582-26.483 80.582-71.08V193.236z"
       fill="#fff"
       id="path8" />
    <path
       d="M490.299 241.146v61.396h-69.412v22.34H490.3v71.539l11.17 4.252 11.17-4.252v-71.54h69.41v-22.339h-69.41v-61.396z"
       fill="#d21034"
       id="path10" />
    <path
       d="M420.887 193.236H582.05v52.657H420.887z"
       fill="#d21034"
       id="path12" />
    <g
       stroke-miterlimit="3"
       id="g14" />
    <path
       d="M420.887 193.236v136.357c0 44.599 80.581 71.08 80.581 71.08s80.582-26.483 80.582-71.08V193.236z"
       fill="none"
       stroke="#000"
       stroke-width="2.792"
       id="path218" />
  </g>
  <path
     d="M0 0v240.339h358.036V0H0z"
     fill="#002868"
     id="path220" />
  <path
     style="line-height:normal;text-indent:0;text-align:start;text-decoration-line:none;text-decoration-style:solid;text-decoration-color:#000;text-transform:none;block-progression:tb;isolation:auto;mix-blend-mode:normal"
     d="M0 0v26.872l138.99 93.296L0 213.468v26.87h40.03l138.99-93.296 138.989 93.297h40.027v-26.872l-138.988-93.299 138.988-93.297V0H318.01L179.02 93.3 40.03 0H0z"
     color="#000"
     font-weight="400"
     font-family="sans-serif"
     white-space="normal"
     overflow="visible"
     fill="#fff"
     id="path222" />
  <path
     d="M0 0v14.867L169.725 99.73 0 184.592v14.867h29.732l169.725-84.863 169.727 84.863h29.732V184.59L229.191 99.729l169.725-84.862V0h-29.732L199.457 84.861 29.732 0H0z"
     style="line-height:normal;text-indent:0;text-align:start;text-decoration-line:none;text-decoration-style:solid;text-decoration-color:#000;text-transform:none;block-progression:tb;isolation:auto;mix-blend-mode:normal"
     color="#000"
     font-weight="400"
     font-family="sans-serif"
     white-space="normal"
     overflow="visible"
     fill="#ce1126"
     transform="scale(.89752 1.20495)"
     id="path224" />
  <path
     style="line-height:normal;text-indent:0;text-align:start;text-decoration-line:none;text-decoration-style:solid;text-decoration-color:#000;text-transform:none;block-progression:tb;isolation:auto;mix-blend-mode:normal"
     d="M149.182 0v80.113H0v80.113h149.182v80.113h59.673v-80.113h149.181V80.113H208.855V0h-59.673z"
     color="#000"
     font-weight="400"
     font-family="sans-serif"
     white-space="normal"
     overflow="visible"
     fill="#fff"
     id="path226" />
  <path
     style="line-height:normal;text-indent:0;text-align:start;text-decoration-line:none;text-decoration-style:solid;text-decoration-color:#000;text-transform:none;block-progression:tb;isolation:auto;mix-blend-mode:normal"
     d="M161.116 0v96.135H0v48.069h161.116v96.135h35.804v-96.135h161.116V96.135H196.92V0h-35.804z"
     color="#000"
     font-weight="400"
     font-family="sans-serif"
     white-space="normal"
     overflow="visible"
     fill="#ce1126"
     id="path228" />
</svg>
