<svg xmlns="http://www.w3.org/2000/svg" height="480" width="640" viewBox="0 0 640 480"><defs><clipPath id="a"><path d="M-85 0h682v512H-85z"/></clipPath></defs><g clip-path="url(#a)" transform="translate(80) scale(.94)"><path fill="#006" d="M-256 0H768v512H-256z"/><path d="M-256 0v57l910 455h114v-57L-142 0h-114zM768 0v57l-910 455h-114v-57L654 0h114z" fill="#fff"/><path d="M171 0v512h170V0H171zm-427 171v170H768V171H-256z" fill="#fff"/><path d="M-256 205v102H768V205H-256zM205 0v512h102V0H205zm-461 512L85 341h77l-342 171h-76zm0-512L85 171H9L-256 38V0zm606 171L692 0h76L427 171h-77zm418 341L427 341h76l265 133v38z" fill="#c00"/></g></svg>