<svg xmlns="http://www.w3.org/2000/svg" xmlns:xlink="http://www.w3.org/1999/xlink" height="480" width="640" viewBox="0 0 640 480"><defs><g id="c"><g id="b"><path fill="#fcd116" transform="rotate(18 0 -1)" d="M0-1v1h1" id="a"/><use transform="scale(-1 1)" xlink:href="#a"/></g><use transform="rotate(72)" xlink:href="#b"/><use transform="rotate(144)" xlink:href="#b"/><use transform="rotate(216)" xlink:href="#b"/><use transform="rotate(288)" xlink:href="#b"/></g></defs><path fill="#ce1126" d="M0 0h640v480H0z"/><path fill="#007a5e" d="M67 67h506v346H67z"/><path d="M67 67h506L67 413h506z" fill="#fcd116"/><circle cx="320" cy="240" r="58" fill="#ce1126"/><use height="100%" width="100%" xlink:href="#c" transform="matrix(52.8 0 0 52.8 320 240)"/><use height="100%" width="100%" xlink:href="#d" x="-100" transform="translate(-30)"/><use height="100%" width="100%" id="d" xlink:href="#c" transform="matrix(31.2 0 0 31.2 320 34)"/><use height="100%" width="100%" xlink:href="#d" x="100" transform="translate(30)"/><path d="M102 241c8 13 22 28 34 33 0-14-5-31-11-45l-23 12z" fill="#ce1126"/><path d="M90 195c11 21-27 73 36 86-8-11-13-28-11-42 13 5 27 19 32 30 17-59-42-55-57-74z" fill="#fcd116"/><use transform="translate(-30 415)" x="-100" xlink:href="#d" width="100%" height="100%"/><use transform="matrix(31.2 0 0 31.2 320 448)" xlink:href="#c" width="100%" height="100%"/><use transform="translate(30 415)" x="100" xlink:href="#d" width="100%" height="100%"/></svg>