<svg xmlns="http://www.w3.org/2000/svg" height="480" width="640" viewBox="0 0 640 480"><path fill-rule="evenodd" fill="#be0027" d="M0 0h640v480H0z"/><path fill-rule="evenodd" fill="#3b5aa3" d="M26 27h589v429H26z"/><path d="M314 413c3 2 7 1 9 0a197 197 0 0 0 0-346c-3-2-6-2-9 0a199 199 0 0 0 0 346z" fill-rule="evenodd" fill="#cbe0e5"/><path d="M314 417c2 2 7 1 9 0 101-76 102-123 97-123H219c-3 0 2 48 95 123z" fill-rule="evenodd" fill="#add2d9"/><path d="M235 331c9-2 20-3 28 2 8 4 12 4 20 4 9 0 16 6 25 7 17 0 24 9 11 9-6 0-20-5-26-4-14 2-22 5-35 19l15 10c12-5 14-11 22-11s10-5 20-5c10 1 24-2 33-4 14-3 7-13-2-17-7-3-20 0-29-3-6-3-1-7 2-8l12 2c8 0 17 0 24-2 14-2 13-6 20-6 5 0 9-2 12-4 4-3 8-8 13-8l13 1-18 40-51 52-26 10-58-38-29-45 4-1z" fill-rule="evenodd" fill="#fdf9a1"/><path d="M302 292l116-1 2-10-8-1c-4 0-11 5-16 5-3 0-7-6-10-6-6 0-7 5-12 5s-7-3-13-3-5 4-13 3c-10 0-14-9-22-9-14 0-15 13-24 17z" fill-rule="evenodd" fill="#179a3b"/><path d="M302 294h119v-3H299l3 3z" fill-rule="evenodd" fill="#fdf9a1"/><path d="M351 330c2 7 4 10 11 12 7 1 19-6 12-13-7-6-14-8-20-14-12-12-31-42-31-63l-2-92c0-2-7 7-7 9 0 32 0 55 2 87 2 23 13 38 22 53 5 6 11 14 13 21z" fill-rule="evenodd" fill="#a79270"/><text font-family="helvetica" font-size="26" stroke="#fff" y="269" x="465" stroke-width="2" fill="#bd0728" transform="matrix(1.33 0 0 1.33 -363 -108)"><tspan>G</tspan></text><text font-family="helvetica" font-size="26" stroke="#fff" y="270" x="488" stroke-width="2" fill="#bd0728" transform="matrix(1.33 0 0 1.33 -363 -108)"><tspan>U</tspan></text><text font-family="helvetica" font-size="26" stroke="#fff" y="270" x="516" stroke-width="2" fill="#bd0728" transform="matrix(1.33 0 0 1.33 -363 -108)"><tspan>A</tspan></text><text font-family="helvetica" font-size="26" stroke="#fff" y="270" x="540" stroke-width="2" fill="#bd0728" transform="matrix(1.33 0 0 1.33 -363 -108)"><tspan>M</tspan></text><path d="M260 161c-2 3 3-1 4-1 7-3 10-11 21-6 9 4 21 2 15 5-8 5-23 10-24 34 2 2 2 2 3-1 2-5 13-20 19-19 2 1 9-6 9-4 1 5-9 17-9 33 0 4 5 5 7 2l7-7c7-6 5-29 6-28 4 6 5 23 12 30 6 6 11 3 9-5-2-16-10-11-14-28 0-3-1-6 4-5s8 4 12 10 12 11 16 15c7 5 10 0 7-7-4-8-13-15-22-18l-13-4c-2 0-3-3-1-5 6-3 13-7 20-7 7-1 12 5 17 6 9 3 9-3 5-8-4-4-11-10-17-9-14 2-13 1-21 7-3 2-7 4-6 1l5-10c4-4 7-7 10-8 4-1 8-4 10-6 3-5 0-7-5-6s-7 4-10 5c-7 3-13 19-14 22-1 2-3 1-2-1 1-12 2-32-3-40-6-12-5-6-8-1-3 9-2 18 0 27l6 12c0 3-2 0-3-2-4-6-7-10-13-13-5-3-17-3-21-2l4 4c4 4 12 5 18 8 5 3 8 5 10 9 0 3 1 7-1 7-5 0-13-5-29-3-8 1-16 8-20 17z" fill-rule="evenodd" fill="#239e46"/><path fill-rule="evenodd" d="M295 311h5v7h-5z"/><path d="M272 258c19 26 49 41 49 53h-58c13-16 21-27 9-53z" fill-rule="evenodd" fill="#fdf9ff"/><path d="M255 312c25 5 56 8 75-1 0 5-6 14-11 14h-50c6-1 9-3 19-3h-26c-3 0-8-8-7-10z" fill-rule="evenodd" fill="#a68861"/><path d="M313 425h9a211 211 0 0 0 0-372h-10a214 214 0 0 0 1 372zm0-18c3 2 6 1 8 0 124-72 125-265 0-334h-8a199 199 0 0 0 0 334z" fill-rule="evenodd" fill="#be0027"/><text font-size="26" y="269" x="465" font-family="helvetica" fill="#bd0728" transform="matrix(1.33 0 0 1.33 -363 -108)"><tspan>G</tspan></text><text font-size="26" y="270" x="488" font-family="helvetica" fill="#bd0728" transform="matrix(1.33 0 0 1.33 -363 -108)"><tspan>U</tspan></text><text font-size="26" y="270" x="516" font-family="helvetica" fill="#bd0728" transform="matrix(1.33 0 0 1.33 -363 -108)"><tspan>A</tspan></text><text font-size="26" y="270" x="540" font-family="helvetica" fill="#bd0728" transform="matrix(1.33 0 0 1.33 -363 -108)"><tspan>M</tspan></text></svg>