<svg xmlns="http://www.w3.org/2000/svg" height="480" width="640" viewBox="0 0 640 480"><defs><clipPath id="a"><path d="M-89 0h683v512H-89z"/></clipPath></defs><g clip-path="url(#a)" transform="translate(83) scale(.94)"><path fill-rule="evenodd" fill="#ba0000" d="M618 512h-731V0h731z"/><path d="M242 248s-52-22-44-80c7-28 19-47 42-57l33-6-6 9c-3 7-1 13 2 19 4 7 7 14 8 24 1 13-4 25-15 33-6 5-14 7-21 13-5 5-8 10-9 18 0 16 5 18 10 27z" fill-rule="evenodd" fill="#fff"/><path d="M235 242c-20-18-18-63-3-78" stroke="#ba0000" stroke-width="2" fill="none"/><path fill-rule="evenodd" fill="#ba0000" d="M245 154l3 6-6-2-5 4 1-6-6-3 7-1v-6l4 5 6-1"/><path d="M246 244s6-56 64-66c28-1 50 6 67 25 6 9 10 19 15 29-4-2-7-3-11-3-7-1-12 3-17 8-5 6-11 10-20 14-12 5-26 3-37-4-7-5-10-12-18-17-6-3-12-4-20-3-15 5-16 9-23 17z" fill-rule="evenodd" fill="#fff"/><path d="M250 236c11-24 54-36 73-26" stroke="#ba0000" stroke-width="2" fill="none"/><path fill-rule="evenodd" fill="#ba0000" d="M336 219l-4 5 1-7-6-2 6-2 1-6 3 6 6-1-4 4 3 6"/><path d="M250 248s55-12 83 39c10 27 10 50-2 71-7 9-15 17-24 24v-11c-1-7-6-10-12-13-8-4-14-8-20-15-9-10-12-24-8-36 2-8 8-14 10-23 1-7 0-12-4-20-9-13-14-12-23-16z" fill-rule="evenodd" fill="#fff"/><path d="M259 249c27 3 51 40 47 61" stroke="#ba0000" stroke-width="2" fill="none"/><path fill-rule="evenodd" fill="#ba0000" d="M302 326l-6-3 7-2 1-6 3 6 6-2-4 5 3 6-6-3-5 5"/><path d="M249 254s27 49-15 90c-22 17-44 24-68 18-11-4-20-10-30-16 4 0 8-1 11-3 6-3 8-9 9-16 1-8 4-15 9-23 7-11 19-18 32-18 9 1 16 4 25 3 6 0 12-2 18-8 10-13 8-17 9-27z" fill-rule="evenodd" fill="#fff"/><path d="M250 262c5 27-24 61-45 63" stroke="#ba0000" stroke-width="2" fill="none"/><path fill-rule="evenodd" fill="#ba0000" d="M189 325l1-6 3 6 7-1-5 4 3 6-6-3-4 5 1-7-7-3"/><path d="M243 253s-38 41-90 16c-24-16-38-34-40-59 0-11 2-22 5-33l6 9c6 5 12 5 19 4 8-2 15-2 25 0 13 3 23 13 27 25 2 8 2 16 5 24 3 6 7 10 14 14 16 5 19 2 29 0z" fill-rule="evenodd" fill="#fff"/><path d="M235 257c-23 13-65-3-74-22" stroke="#ba0000" stroke-width="2" fill="none"/><path fill-rule="evenodd" fill="#ba0000" d="M155 220l7-1-5 5 3 6-5-3-5 5 1-7-6-3 6-1 1-7"/></g></svg>