<svg xmlns="http://www.w3.org/2000/svg" xmlns:xlink="http://www.w3.org/1999/xlink" height="480" width="640" viewBox="0 0 640 480" version="1"><path fill="#d21034" d="M0 0h640v480H0z"/><path fill="#00209f" d="M0 0h640v240H0z"/><g fill="#f1b517" stroke="#000" stroke-width="0"><path fill="#fff" d="M244 180h152v120H244z" stroke="none"/><path d="M350 267l-30 1h-31l-22 7c-7 2-6 4-11 5l-7 1-5 2v17h152v-16l-5-2-8-2c-5-1-4-3-10-5-7-1-23-8-23-8z" fill="#016a16" stroke="none"/><g transform="translate(-80) scale(1.6)"><g id="a"><path d="M245 144l1-1 2 11v4l-3-14z"/><path d="M246 155l-5-12h2l5 14-2-2zm-4-4l-3-6h1l5 9-3-3z"/><path d="M242 151l-11-12c-4 3-3 8-3 8l13 10 1-6z" fill="#0a328c"/><path d="M249 158l-9-8c-3 0 0 5 0 6l9 8v-6z" fill="#d20014"/><path d="M237 155l-14-12c-3 3-1 10-1 10l15 8v-6z" fill="#0a328c"/><path d="M249 164l-12-10c-4 1-1 7 0 8l12 6v-4z" fill="#d20014"/><path d="M236 162l-18-11c-2 2 0 6 0 6l1 6c0 2 1 4 3 5 1 6 8 7 10 1l4-7z" fill="#0a328c"/><path d="M248 169l-12-8c-4 1 0 8 0 9l12 4v-5z" fill="#d20014"/></g><use height="100%" width="100%" xlink:href="#a" transform="matrix(-1 0 0 1 500 0)"/></g><g transform="translate(-80) scale(1.6)"><path d="M249 126l-1 9h3v-9l3-1-1-3h-7v3l3 1z" fill="#016a16" stroke="none"/><g id="b" fill="#016a16"><path d="M250 122c-8-8-14-4-16-3h3l-1 1 3-1-1 1 2-1-1 1h1c1 0 0 0 0 0 2 0 5 2 5 3"/><path d="M248 123c-1-2-16-5-19 1l3-1v1l1-2v2l1-1v1l2-2v1l2-1-1 1m9 1c-2 0-10 3-12 6a13 13 0 0 1 1-1l1 1v-1 1h2v-1 1l1-1v1l1-2v1l1-1v1-2l1 1 1-1v1l4-3"/></g><use height="100%" width="100%" xlink:href="#b" transform="matrix(-1 0 0 1 500 0)"/></g></g></svg>