<?xml version="1.0" encoding="UTF-8" standalone="no"?>
<svg
   xmlns:dc="http://purl.org/dc/elements/1.1/"
   xmlns:cc="http://creativecommons.org/ns#"
   xmlns:rdf="http://www.w3.org/1999/02/22-rdf-syntax-ns#"
   xmlns:svg="http://www.w3.org/2000/svg"
   xmlns="http://www.w3.org/2000/svg"
   xmlns:xlink="http://www.w3.org/1999/xlink"
   xmlns:sodipodi="http://sodipodi.sourceforge.net/DTD/sodipodi-0.dtd"
   xmlns:inkscape="http://www.inkscape.org/namespaces/inkscape"
   height="480"
   width="640"
   viewBox="0 0 640 480"
   id="svg2"
   version="1.1"
   inkscape:version="0.91 r13725"
   sodipodi:docname="ht.svg">
  <metadata
     id="metadata230">
    <rdf:RDF>
      <cc:Work
         rdf:about="">
        <dc:format>image/svg+xml</dc:format>
        <dc:type
           rdf:resource="http://purl.org/dc/dcmitype/StillImage" />
      </cc:Work>
    </rdf:RDF>
  </metadata>
  <defs
     id="defs228" />
  <sodipodi:namedview
     pagecolor="#ffffff"
     bordercolor="#666666"
     borderopacity="1"
     objecttolerance="10"
     gridtolerance="10"
     guidetolerance="10"
     inkscape:pageopacity="0"
     inkscape:pageshadow="2"
     inkscape:window-width="2560"
     inkscape:window-height="1027"
     id="namedview226"
     showgrid="false"
     inkscape:zoom="0.079549513"
     inkscape:cx="5841.5419"
     inkscape:cy="-267.34019"
     inkscape:window-x="1358"
     inkscape:window-y="-8"
     inkscape:window-maximized="1"
     inkscape:current-layer="b" />
  <path
     fill="#d21034"
     d="M0 0h640v480H0z"
     id="path4" />
  <path
     fill="#00209f"
     d="M0 0h640v240H0z"
     id="path6" />
  <g
     fill="#f1b517"
     stroke="#000"
     stroke-width=".183"
     id="g8">
    <path
       fill="#fff"
       d="M244.286 179.654h151.428V300.2H244.286z"
       stroke="none"
       id="path10" />
    <path
       d="M350.475 266.826l-30.902.897-30.764.35s-15.806 5.845-22.266 7.157c-6.442 1.308-5.605 3.424-10.59 4.538-3.992.892-4.453 1.174-6.796 1.328-1.417.093-3.163 1.183-4.87 2.385v16.72h151.425v-15.902c-1.64-.895-3.205-1.51-4.806-2.054-2.224-.757-3.724-1.584-7.716-2.476-4.984-1.114-4.147-3.23-10.588-4.538-6.46-1.312-22.127-8.404-22.127-8.404z"
       fill="#016a16"
       stroke="#016a16"
       stroke-width=".293"
       id="path12" />
    <g
       transform="translate(-80) scale(1.6)"
       id="g14">
      <g
         id="a">
        <path
           d="M244.53 143.512l1.396-.033 2.555 10.748-.544 3.386-3.407-14.102z"
           id="path17" />
        <path
           d="M245.722 154.59l-4.293-11.54 1.6-.098 5.01 14.102-2.318-2.465z"
           id="path21" />
        <path
           d="M241.906 150.546l-2.52-5.424 1.09-.23 4.6 9.007-3.17-3.354z"
           id="path25" />
        <path
           d="M242.25 151.364l-11.437-12.484c-3.57 2.828-2.908 8.02-2.908 8.02l12.957 10.167 1.387-5.703z"
           fill="#0a328c"
           id="path29" />
        <path
           d="M248.86 158.235l-8.482-8.594c-3.587.126-.74 5.48-.56 6.153l9.043 7.734v-5.292z"
           fill="#d20014"
           id="path31" />
        <g
           id="g41">
          <path
             d="M237.252 154.672l-14.367-11.41c-2.46 2.502-.415 10.23-.415 10.23l14.043 7.608.74-6.428z"
             fill="#0a328c"
             id="path43" />
          <path
             d="M249.166 163.917l-11.818-9.467c-4.036.566-.864 6.506-.623 7.16l12.48 6.77-.04-4.463z"
             fill="#d20014"
             id="path45" />
        </g>
        <g
           id="g55">
          <path
             d="M236.224 161.65c-.19-.045-18.517-10.44-18.517-10.44-1.334 2.25-.128 5.52.457 6.028.034 1.5-.602 2.306.707 5.44.387 2.035 1.33 3.912 2.7 5.026 1.672 6.417 8.223 6.848 10.747 1.624l3.907-7.677z"
             fill="#0a328c"
             id="path57" />
          <path
             d="M248.352 168.512l-12.548-7.355c-4.036.567.085 8.056.326 8.71l12.116 4.304.106-5.658z"
             fill="#d20014"
             id="path59" />
        </g>
      </g>
      <use
         height="100%"
         width="100%"
         xlink:href="#a"
         transform="matrix(-1 0 0 1 499.86 0)"
         id="use69" />
    </g>
    <g
       transform="translate(-80) scale(1.6)"
       id="g71">
      <path
         d="M248.757 125.603l-.465 9.07h2.9l-.425-8.992 3.023-.423-.335-3.582-7.51.29.04 3.253 2.772.385z"
         fill="#016a16"
         stroke="#016a16"
         id="path73" />
      <g
         id="b"
         fill="#016a16">
        <path
           d="M249.817 121.898c-7.764-7.77-13.878-3.98-15.334-2.902.963.187 1.826-.412 2.273-.48-.28.353-.865 1.23-.865 1.23s2.4-1.135 2.67-1.03c-.347.275-.728.935-.728.935.178.07 1.528-1.056 1.795-1.076-.41.466-.54 1.528-.54 1.528l1.17-.545c.305.216-.084.63.18.61 1.945-.16 4.678 1.776 5.054 2.37"
           id="path76" />
        <path
           d="M247.895 123.32c-.81-1.853-15.588-5.004-18.56.245 1.164.293 2.276-.976 2.276-.976l-.1 1.17 1.972-1.512-.708 1.56 1.568-1.268-.05 1.27 1.92-2.1-.252 1.22 1.72-.73-.203 1.023"
           id="path78" />
        <path
           d="M246.38 124.053c-2.643-.05-10.226 2.812-12.188 5.806a13.29 13.29 0 0 1 1.263-.636l.387 1.203.473-1.203.1.927c.29-.723.618-.805 1.164-.048l.2-1.122.305 1.073.505-1.17s.318 1.27.506 1.22c0 0 .838-2.195 1.214-2.294l.1 1.365.506-1.366.456 1.024.1-1.464.506 1.122s.266-1.103.658-1.317l.758.683 3.378-2.427"
           id="path82" />
      </g>
      <use
         height="100%"
         width="100%"
         xlink:href="#b"
         transform="matrix(-1 0 0 1 499.86 0)"
         id="use88" />
    </g>
  </g>
</svg>
