<?xml version="1.0" encoding="UTF-8" standalone="no"?>
<svg
   xmlns:dc="http://purl.org/dc/elements/1.1/"
   xmlns:cc="http://creativecommons.org/ns#"
   xmlns:rdf="http://www.w3.org/1999/02/22-rdf-syntax-ns#"
   xmlns:svg="http://www.w3.org/2000/svg"
   xmlns="http://www.w3.org/2000/svg"
   xmlns:sodipodi="http://sodipodi.sourceforge.net/DTD/sodipodi-0.dtd"
   xmlns:inkscape="http://www.inkscape.org/namespaces/inkscape"
   height="480"
   width="640"
   viewBox="0 0 640 480"
   id="svg2"
   version="1.1"
   inkscape:version="0.91 r13725"
   sodipodi:docname="im.svg">
  <metadata
     id="metadata67">
    <rdf:RDF>
      <cc:Work
         rdf:about="">
        <dc:format>image/svg+xml</dc:format>
        <dc:type
           rdf:resource="http://purl.org/dc/dcmitype/StillImage" />
      </cc:Work>
    </rdf:RDF>
  </metadata>
  <sodipodi:namedview
     pagecolor="#ffffff"
     bordercolor="#666666"
     borderopacity="1"
     objecttolerance="10"
     gridtolerance="10"
     guidetolerance="10"
     inkscape:pageopacity="0"
     inkscape:pageshadow="2"
     inkscape:window-width="2560"
     inkscape:window-height="1027"
     id="namedview65"
     showgrid="false"
     inkscape:zoom="1.2727922"
     inkscape:cx="361.77088"
     inkscape:cy="189.6435"
     inkscape:window-x="1358"
     inkscape:window-y="-8"
     inkscape:window-maximized="1"
     inkscape:current-layer="g9" />
  <defs
     id="defs4">
    <clipPath
       id="a">
      <path
         fill-opacity=".67"
         d="M-77.62 0h682.67v512H-77.62z"
         id="path7" />
    </clipPath>
  </defs>
  <g
     clip-path="url(#a)"
     transform="translate(72.77) scale(.94)"
     id="g9">
    <path
       fill-rule="evenodd"
       fill="#ba0000"
       d="M629.43 512H-102V0h731.43z"
       id="path11" />
    <path
       d="M218.66 206.89c-7.647 3.938-36.996 37.486-41.02 42.718-3.373 7.596-9.97 17.205-16.763 23.39-7.252 5.488-11.282 12.983-10.284 20.08-.08 8.83 4.87 14.842 8.814 21.056 2.335 2.838 5.475 4.673 8.815 4.896 6.85.905 7.458 3.014 10.887 4.32 13.505 18.39 33.653 31.95 48.163 42.69 9.25 4.876 15.68 9.75 17.885 12.412 4.248 8.112 3.466 16.022 2.884 19.908-3.59 13.55-7.182 27.097-10.773 40.646-1.813 11.07 7.807 8.58 8.324 6.366 4.34-5.635 10.82-1.678 20.077-34.28 4.245-5.713 8.49-11.426 12.733-17.14 0 0 4.898-1.958 4.898-2.447 7.448-8.942 1.778-14.06-2.45-15.67-3.1-1.142-6.2-2.286-9.302-3.43 0 0-10.773-10.772-11.263-10.772-5.12-14.893-30.248-46.687-36.085-51.114-4.04-4.21-5.963-6.005-9.798-8.347-5.897-2.82-7.8-3.738-11.41-5.18-3.008-1.206-.867-4.507 1.045-6.016 19.903-10.834 35.68-22.875 54.778-35.118l2.938-1.96-6.856-39.175-31.83-11.264c-1.67 1.143-2.937 2.287-4.407 3.43z"
       fill-rule="evenodd"
       stroke="#000"
       stroke-width="2.636"
       fill="#fff"
       id="path15" />
    <path
       d="M264.93 257.9c7.18 4.736 50.806 13.878 57.34 14.822 8.274-.783 19.883.257 28.605 3.148 8.337 3.632 16.845 3.472 22.542-.876 7.737-4.258 10.552-11.52 14.035-18.003 1.33-3.425 1.39-7.062-.052-10.082-2.57-6.415-1.028-7.98-1.57-11.607 9.41-20.784 11.356-44.992 13.608-62.905-.284-10.45.814-18.447 2.054-21.672 4.988-7.68 12.267-10.874 15.94-12.27 13.57-3.512 27.14-7.02 40.71-10.53 10.537-3.846 3.652-11.01 1.47-10.377-7.04-1.022-6.766-8.61-39.72-.7l-21.18-2.7s-4.11-3.31-4.536-3.07c-11.444-2.108-13.126 5.343-12.458 9.816l1.57 9.79s-4.11 14.67-3.87 15.097c-10.473 11.76-26.062 49.528-27.06 56.785-.473 6.82-3.048 5.588-2.357 12.217.026 5.18-.576 1.946 1.153 12.618.422 3.213-3.505 2.965-5.758 2.037-19.198-12.04-37.426-19.89-57.458-30.538-1.05-.534-2.098-1.07-3.147-1.602l-30.788 25.175 5.78 33.266c1.815.895 3.433 1.44 5.15 2.16z"
       fill-rule="evenodd"
       stroke="#000"
       stroke-width="2.636"
       fill="#fff"
       id="path31" />
    <path
       d="M284.058 191.255c.03-8.6-16.22-50.106-19.01-56.09-5.187-6.492-10.676-16.774-13.035-25.654-1.527-8.963-6.322-15.994-13.08-18.378-7.8-4.14-15.418-2.517-22.75-1.88-3.595.764-6.67 2.706-8.407 5.566-3.96 5.663-6.11 5.23-8.85 7.672-22.544 3.513-43.862 15.146-60.082 23.074-8.588 5.962-15.878 9.425-19.256 10.154-9.156.033-15.816-4.306-18.997-6.613l-31.108-28.29c-8.99-6.71-11.212 2.975-9.486 4.454 3 6.45-3.496 10.375 21.172 33.613l9.344 19.197s-.518 5.25-.084 5.475c4.504 10.73 11.66 8.056 15.036 5.046l7.33-6.676s14.525-4.597 14.75-5.03c15.576 2.318 55.712-5.328 62.33-8.47 5.965-3.34 6.345-.51 11.512-4.72 4.32-2.858 1.944-.582 9.925-7.874 2.458-2.113 4.4 1.308 4.86 3.7.443 22.657 3.86 42.207 5.925 64.798.13 1.17.257 2.34.385 3.51 12.64 3.99 25.285 7.978 37.926 11.967 8.22-7.686 16.444-15.373 24.664-23.06-.244-2.007-.675-3.66-1.012-5.49z"
       fill-rule="evenodd"
       stroke="#000"
       stroke-width="2.637"
       fill="#fff"
       id="path47" />
  </g>
</svg>
