<?xml version="1.0" encoding="UTF-8" standalone="no"?>
<svg
   xmlns:dc="http://purl.org/dc/elements/1.1/"
   xmlns:cc="http://creativecommons.org/ns#"
   xmlns:rdf="http://www.w3.org/1999/02/22-rdf-syntax-ns#"
   xmlns:svg="http://www.w3.org/2000/svg"
   xmlns="http://www.w3.org/2000/svg"
   xmlns:sodipodi="http://sodipodi.sourceforge.net/DTD/sodipodi-0.dtd"
   xmlns:inkscape="http://www.inkscape.org/namespaces/inkscape"
   height="480"
   width="640"
   viewBox="0 0 640 480"
   id="svg2"
   version="1.1"
   inkscape:version="0.91 r13725"
   sodipodi:docname="io.svg">
  <metadata
     id="metadata279">
    <rdf:RDF>
      <cc:Work
         rdf:about="">
        <dc:format>image/svg+xml</dc:format>
        <dc:type
           rdf:resource="http://purl.org/dc/dcmitype/StillImage" />
      </cc:Work>
    </rdf:RDF>
  </metadata>
  <sodipodi:namedview
     pagecolor="#ffffff"
     bordercolor="#666666"
     borderopacity="1"
     objecttolerance="10"
     gridtolerance="10"
     guidetolerance="10"
     inkscape:pageopacity="0"
     inkscape:pageshadow="2"
     inkscape:window-width="2560"
     inkscape:window-height="1027"
     id="namedview277"
     showgrid="false"
     inkscape:zoom="0.31819805"
     inkscape:cx="578.66366"
     inkscape:cy="-138.42389"
     inkscape:window-x="1358"
     inkscape:window-y="-8"
     inkscape:window-maximized="1"
     inkscape:current-layer="g155" />
  <defs
     id="defs4">
    <clipPath
       id="a">
      <path
         fill-opacity=".67"
         d="M0 0h682.67v512H0z"
         id="path7" />
    </clipPath>
  </defs>
  <g
     clip-path="url(#a)"
     transform="scale(.9375)"
     id="g9">
    <path
       fill-rule="evenodd"
       fill="#fff"
       d="M0 0h1024v512H0z"
       id="path11" />
    <path
       d="M1024 445.24c-11.474 6.903-21.332 23.035-51.814 23.035-60.947 0-76.188-33.965-121.9-33.965-30.474 0-45.712 33.965-76.187 33.965-60.952 0-76.191-33.965-121.9-33.965-30.477 0-45.715 33.965-76.191 33.965-60.952 0-76.191-33.965-121.9-33.965-30.477 0-45.715 33.965-76.191 33.965-60.952 0-76.191-33.965-121.9-33.965-30.478 0-45.715 33.965-76.191 33.965-60.952 0-76.192-33.965-121.91-33.965-30.476 0-39.619 24.203-57.905 24.203v43.727c18.286 0 27.428-24.2 57.905-24.2 45.715 0 60.955 33.96 121.9 33.96 30.476 0 45.713-33.965 76.191-33.965 45.713 0 60.952 33.965 121.9 33.965 30.476 0 45.714-33.965 76.191-33.965 45.714 0 60.952 33.965 121.9 33.965 30.476 0 45.714-33.965 76.191-33.965 45.714 0 60.952 33.965 121.9 33.965 30.476 0 45.714-33.965 76.187-33.965 45.715 0 60.956 33.965 121.9 33.965 30.482 0 40.34-9.625 51.814-16.528v-50.235zM1024 360.32c-11.474 6.903-21.332 23.035-51.814 23.035-60.947 0-76.188-33.965-121.9-33.965-30.474 0-45.712 33.965-76.187 33.965-60.952 0-76.191-33.965-121.9-33.965-30.477 0-45.715 33.965-76.191 33.965-60.952 0-76.191-33.965-121.9-33.965-30.477 0-45.715 33.965-76.191 33.965-60.952 0-76.191-33.965-121.9-33.965-30.478 0-45.715 33.965-76.191 33.965-60.952 0-76.192-33.965-121.91-33.965-30.476 0-39.619 24.203-57.905 24.203v43.727c18.286.01 27.428-24.2 57.905-24.2 45.714 0 60.953 33.965 121.91 33.965 30.476 0 45.713-33.965 76.191-33.965 45.713 0 60.952 33.965 121.9 33.965 30.476 0 45.714-33.965 76.191-33.965 45.714 0 60.952 33.965 121.9 33.965 30.476 0 45.714-33.965 76.191-33.965 45.714 0 60.952 33.965 121.9 33.965 30.476 0 45.714-33.965 76.187-33.965 45.715 0 60.956 33.965 121.9 33.965 30.482 0 40.34-9.625 51.814-16.528v-50.235zM1024 275.41c-11.474 6.903-21.332 23.035-51.814 23.035-60.947 0-76.188-33.965-121.9-33.965-30.474 0-45.712 33.965-76.187 33.965-60.952 0-76.191-33.965-121.9-33.965-30.477 0-45.715 33.965-76.191 33.965-60.952 0-76.191-33.965-121.9-33.965-30.477 0-45.715 33.965-76.191 33.965-60.952 0-76.191-33.965-121.9-33.965-30.478 0-45.715 33.965-76.191 33.965-60.952 0-76.192-33.965-121.91-33.965-30.476 0-39.619 24.203-57.905 24.203v43.727c18.286 0 27.428-24.2 57.905-24.2 45.714 0 60.953 33.965 121.91 33.965 30.476 0 45.713-33.965 76.191-33.965 45.713 0 60.952 33.965 121.9 33.965 30.476 0 45.714-33.965 76.191-33.965 45.714 0 60.952 33.965 121.9 33.965 30.476 0 45.714-33.965 76.191-33.965 45.714 0 60.952 33.965 121.9 33.965 30.476 0 45.714-33.965 76.187-33.965 45.715 0 60.956 33.965 121.9 33.965 30.482 0 40.34-9.625 51.814-16.528v-50.235zM1024 190.5c-11.474 6.903-21.332 23.035-51.814 23.035-60.947 0-76.188-33.965-121.9-33.965-30.474 0-45.712 33.965-76.187 33.965-60.952 0-76.191-33.965-121.9-33.965-30.477 0-45.715 33.965-76.191 33.965-60.952 0-76.191-33.965-121.9-33.965-30.477 0-45.715 33.965-76.191 33.965-60.952 0-76.191-33.965-121.9-33.965-30.478 0-45.715 33.965-76.191 33.965-60.952 0-76.192-33.965-121.91-33.965-30.476 0-39.619 24.203-57.905 24.203V247.5c18.286 0 27.428-24.2 57.905-24.2 45.714 0 60.953 33.965 121.91 33.965 30.476 0 45.713-33.965 76.191-33.965 45.713 0 60.952 33.965 121.9 33.965 30.476 0 45.714-33.965 76.191-33.965 45.714 0 60.952 33.965 121.9 33.965 30.476 0 45.714-33.965 76.191-33.965 45.714 0 60.952 33.965 121.9 33.965 30.476 0 45.714-33.965 76.187-33.965 45.715 0 60.956 33.965 121.9 33.965 30.482 0 40.34-9.625 51.814-16.528v-50.235zM1024 105.59c-11.474 6.903-21.332 23.035-51.814 23.035-60.947 0-76.188-33.965-121.9-33.965-30.474 0-45.712 33.965-76.187 33.965-60.952 0-76.191-33.965-121.9-33.965-30.477 0-45.715 33.965-76.191 33.965-60.952 0-76.191-33.965-121.9-33.965-30.477 0-45.715 33.965-76.191 33.965-60.952 0-76.191-33.965-121.9-33.965-30.478 0-45.715 33.965-76.191 33.965-60.952 0-76.192-33.965-121.91-33.965-30.491-.002-39.634 24.2-57.92 24.2v43.727c18.286 0 27.428-24.203 57.905-24.203 45.714 0 60.953 33.965 121.91 33.965 30.476 0 45.713-33.965 76.191-33.965 45.713 0 60.952 33.965 121.9 33.965 30.476 0 45.714-33.965 76.191-33.965 45.714 0 60.952 33.965 121.9 33.965 30.476 0 45.714-33.965 76.191-33.965 45.714 0 60.952 33.965 121.9 33.965 30.476 0 45.714-33.965 76.187-33.965 45.715 0 60.956 33.965 121.9 33.965 30.482 0 40.34-9.625 51.814-16.528v-50.235zM1024 20.675c-11.474 6.903-21.332 23.035-51.814 23.035-60.947 0-76.188-33.965-121.9-33.965-30.474 0-45.712 33.965-76.187 33.965-60.952 0-76.191-33.965-121.9-33.965-30.477 0-45.715 33.965-76.191 33.965-60.952 0-76.191-33.965-121.9-33.965-30.477 0-45.715 33.965-76.191 33.965-60.952 0-76.191-33.965-121.9-33.965-30.478 0-45.715 33.965-76.191 33.965-60.952 0-76.192-33.965-121.91-33.965-30.491 0-39.634 24.203-57.92 24.203v43.727c18.286 0 27.428-24.203 57.905-24.203 45.714 0 60.953 33.965 121.91 33.965 30.476 0 45.713-33.965 76.191-33.965 45.713 0 60.952 33.965 121.9 33.965 30.476 0 45.714-33.965 76.191-33.965 45.714 0 60.952 33.965 121.9 33.965 30.476 0 45.714-33.965 76.191-33.965 45.714 0 60.952 33.965 121.9 33.965 30.476 0 45.714-33.965 76.187-33.965 45.715 0 60.956 33.965 121.9 33.965 30.482 0 40.34-9.625 51.814-16.528V20.674z"
       fill-rule="evenodd"
       fill="#000063"
       id="path13" />
    <path
       fill-rule="evenodd"
       fill="#000063"
       d="M0 .063h261.31v157.91H0z"
       id="path15" />
    <g
       stroke-width="1pt"
       id="g17">
      <path
         d="M0 .063v17.654L232.097 157.97h29.215v-17.654L29.215.064H0zm261.312 0v17.654L29.215 157.968H0v-17.654L232.097.064h29.215z"
         fill="#fff"
         id="path19" />
      <path
         d="M108.88.063v157.905h43.552V.063H108.88zM0 52.698v52.635h261.312V52.698H0z"
         fill="#fff"
         id="path21" />
      <path
         d="M0 63.225v31.581h261.312v-31.58H0zM117.59.063v157.905h26.132V.063H117.59zM0 157.968l87.104-52.635h19.476l-87.104 52.635H0zM0 .063l87.104 52.635H67.628L0 11.833V.063zm154.732 52.635L241.836.063h19.476l-87.104 52.635h-19.476zm106.58 105.27l-87.104-52.635h19.476l67.628 40.866v11.77z"
         fill="#c00"
         id="path23" />
    </g>
    <g
       fill-rule="evenodd"
       id="g155" />
  </g>
</svg>
