<svg xmlns="http://www.w3.org/2000/svg" height="480" width="640" viewBox="0 0 640 480" version="1"><defs><clipPath id="a"><path d="M-85 0h682v512H-85z"/></clipPath></defs><g clip-path="url(#a)" fill-rule="evenodd" transform="translate(80) scale(.9375)"><path fill="#fff" d="M-192 0h896v512h-896z"/><path fill="#da0000" d="M-192 344h896v168h-896z"/><path fill="#239f40" d="M-192 0h896v168h-896z"/><g fill="#fff"><path d="M-184 143h49v4h-49zm8 17h3v4h-3zm41 0v4h-9v-4zm6-17h3v21h-3z"/><path d="M-110 160v4h-18v-4zm-34-8h3v12h-3z"/><path d="M-113 143h4v21h-4zm-8 0h3v21h-3zm-45 8v4h-18v-4zm40 0v4h-18v-4z"/><path d="M-144 152h3v12h-3z"/><path d="M-144 152h3v12h-3z"/><path d="M-144 152h3v12h-3zm-40 0h4v12h-4zm29 0h3v12h-3zm-14 0h3v12h-3z"/><path d="M-153 160v4h-15v-4zm1-9v4h-9v-4z"/></g><g fill="#da0000"><path d="M280 197c8 11 34 68-16 106-24 17-9 18-8 21 38-20 50-47 50-72 0-24-13-46-26-55z"/><path d="M285 195c19 9 59 58 15 112 28-6 62-86-15-112zm-58 0a73 73 0 0 0-15 112c-28-6-62-86 15-112z"/><path d="M232 197c-8 11-34 68 16 106 24 17 9 18 8 21-38-20-50-47-50-72 0-24 13-46 26-55z"/><path d="M304 319c-15 0-33-2-47-9l6 12c13 1 32 2 41-3zm-95 0c15 0 34-2 48-9l-7 12c-13 1-31 2-41-3zm27-139c3 8 11 10 20 5 6 4 16 4 19-4 2 20-18 15-19 11-8 8-22 3-20-12z"/><path d="M256 332l8-9 1-121-9-8-9 8 2 121 7 9z"/></g></g></svg>