<svg xmlns="http://www.w3.org/2000/svg" xmlns:xlink="http://www.w3.org/1999/xlink" height="480" width="640" viewBox="0,0 30,18"><defs><clipPath id="a"><path d="M-5-6h40v30H-5z"/></clipPath></defs><g clip-path="url(#a)" transform="matrix(.75 0 0 .75 4 2)"><path fill="#fff" d="M-10-6h50v30h-50z"/><path d="M-10-6v2L12 9l-22 13v2h3l22-13 21 13h4v-2L18 9 40-4v-2h-4L15 7-7-6h-3z" fill-rule="evenodd" fill="#df112d"/><g transform="translate(-10 -6) scale(.20361)"><path d="M133 22c3 13 1 29-13 38-14-9-16-25-13-38 3-3 19-5 26 0z" fill="#e8112d"/><path d="M120 20c5 0 10 1 13 3 0-5 2-9 5-12-3 0-4 1-4 2h-4c3 1 1 5-1 4-2 0-2-1-2-2a1 1 0 1 0-1 0l-3 1-2-3c0-2 3-3 3-2 0-2-2-3-3-2 1-2 1-4-1-6-2 2-2 4-1 6-1-1-4 0-4 2 1-1 4 0 4 2l-2 3-3-1a1 1 0 0 0 0-1 1 1 0 1 0-1 1l-2 2c-2 1-4-3-2-4h-3l-4-2 5 12c3-2 8-3 13-3z" fill="#f9dd16"/><g id="b" stroke="#000" stroke-width="0"><g fill="#f9dd16"><path d="M131 32l-1 1 2-1h1l-1-2 1 1-1-2h1-1v-1h-5l3-2c0-1-1-2-4-1l-6-1h4l4-1h-4l-5 1c0 2 4 2 7 2h3l-3 1h-8l-3-1-2 2v2c1 1 0 1-1 1l-2-1-2-1v1h1-1c-1 0 0 1 0 0h1l-1 1c0 1 0 0 0 0h2l-1 1h2l-1 1 3-1v1l2-1 1-1 2-1h4l2-1 5 1c1-1 2 0 2 1h-2v1h-1 1v1h1l1-1zm-19-8l-1 1h1v-1zm3 0l1 1h-1v-1z"/><path d="M113 24l2 1-1 2-1 1v-1l-1-2 1-1zm-4 3l1 2h2v1h1v-2c-2 0-2-1-3-2l-1-2-1-1v1l1 1-1-1v2h-1 1l1 1zm13 5v1l2-1-1 1 2-1h1v-1l-1-1c-1-2-4-1-4 0l2 1h-3l1 1h-1 1a2 2 0 0 1 1 0z"/></g><path d="M124 29h-2m-6 0v2m-4-6h1s0 1 0 0m2 0h-1s0 1 0 0m0 0v1h-1v-1" fill="none"/><path d="M113 28l1-1v-1l-1 1v-1 2z" fill="#ff0016"/><path d="M113 26h-1m1 1h-1m1 0h-1m2-1h1m-1 1h1m-1 0h1"/><path d="M108 23l-1 1h1v-1zm0 1l-1 1h1v-1zm0 1l-1 1 1-1zm0 4l-1 1h1v-1zm0 1l-1 1 1-1zm0 1c0-1 0 0 0 0zm12 1l-1 1 1-1zm1 0l-1 1h1v-1zm-1-1c1 0 1 0 0 0zm9 1l-1 1 1-1zm0-1l-1 1h1v-1zm0 2zm-16-6l1 1v2l-1-2v-1z" fill="#0051ba"/></g><use xlink:href="#b" transform="matrix(.9 0 0 .9 12 14)" height="18" width="30"/><use xlink:href="#b" transform="matrix(.67 0 0 .75 39 28)" height="18" width="30"/></g></g></svg>