<svg xmlns="http://www.w3.org/2000/svg" xmlns:xlink="http://www.w3.org/1999/xlink" height="480" width="640" viewBox="0 0 640 480"><defs><path stroke-miterlimit="10" d="M-29 48l2 1 47-81c3-1 4-4 6-6 1-2 5-9 6-18-7 6-11 13-12 15s-3 5-2 8z" id="a"/></defs><path d="M0 0h640v480H0z" fill="#fff"/><path d="M0 0h640v144H0z"/><path d="M0 336h640v144H0z" fill="#060"/><g id="b" transform="matrix(3 0 0 3 320 240)"><use height="100%" width="100%" xlink:href="#a" stroke="#000"/><use height="100%" width="100%" xlink:href="#a" fill="#fff"/></g><use height="100%" width="100%" xlink:href="#b" transform="matrix(-1 0 0 1 640 0)"/><path d="M641 168H377c-9-24-39-72-57-72s-48 48-57 72H0v144h263c9 24 39 72 57 72s48-48 57-72h264V168z" fill="#b00"/><path id="c" d="M377 312c9-24 15-48 15-72s-6-48-15-72c-9 24-15 48-15 72s6 48 15 72"/><use height="100%" width="100%" xlink:href="#c" transform="matrix(-1 0 0 1 640 0)"/><g transform="matrix(3 0 0 3 320 240)" fill="#fff"><ellipse rx="4" ry="6"/><path id="d" d="M1 6s4 8 4 21-4 21-4 21z"/><use height="100%" width="100%" xlink:href="#d" transform="scale(-1)"/><use height="100%" width="100%" xlink:href="#d" transform="scale(-1 1)"/><use height="100%" width="100%" xlink:href="#d" transform="scale(1 -1)"/></g></svg>