<svg xmlns="http://www.w3.org/2000/svg" height="480" width="640" viewBox="0 0 640 480"><defs><clipPath id="a"><path d="M5 0h683v512H5z"/></clipPath></defs><g fill-rule="evenodd" clip-path="url(#a)" transform="translate(-5) scale(.93768)"><path stroke="#000" fill="#fff" d="M776 512H-76V1h852z"/><path fill="#3e5698" d="M776 419H-76v93h852z"/><path fill="#c60000" d="M776 398H-76V114h852z"/><path fill="#3e5698" d="M776 1H-76v92h852z"/><path d="M329 256c0 64-54 115-119 115-66 0-119-51-119-115 0-63 53-115 119-115 65 0 119 52 119 115z" fill="#fff"/><path fill="#c40000" d="M176 271l-57-41h71l22-67 22 66h71l-58 41 21 66-57-40-58 41z"/></g></svg>