<svg xmlns="http://www.w3.org/2000/svg" height="480" width="640" viewBox="0 0 640 480" version="1"><path fill="#006" d="M0 0h640v480H0z"/><path fill-rule="evenodd" fill="#006" d="M0 0h400v200H0z"/><path fill="#fff" d="M0 0v27l334 215h43v-27L42 0H0zm377 0v27L42 242H0v-27L334 0h43z"/><path fill="#fff" d="M157 0v242h63V0h-63zM0 81v81h377V81H0z"/><path fill="#c00" d="M0 97v48h377V97H0zM169 0v242h38V0h-38zM0 242l126-80h28L28 242H0zM0 0l126 81H97L0 18V0zm223 81L348 0h29L251 81h-28zm154 161l-126-80h28l98 62v18z"/></svg>