<?xml version="1.0" encoding="UTF-8" standalone="no"?>
<svg
   xmlns:dc="http://purl.org/dc/elements/1.1/"
   xmlns:cc="http://creativecommons.org/ns#"
   xmlns:rdf="http://www.w3.org/1999/02/22-rdf-syntax-ns#"
   xmlns:svg="http://www.w3.org/2000/svg"
   xmlns="http://www.w3.org/2000/svg"
   xmlns:sodipodi="http://sodipodi.sourceforge.net/DTD/sodipodi-0.dtd"
   xmlns:inkscape="http://www.inkscape.org/namespaces/inkscape"
   height="480"
   width="640"
   viewBox="0 0 640 480"
   id="svg2"
   version="1.1"
   inkscape:version="0.91 r13725"
   sodipodi:docname="ky.svg">
  <metadata
     id="metadata126">
    <rdf:RDF>
      <cc:Work
         rdf:about="">
        <dc:format>image/svg+xml</dc:format>
        <dc:type
           rdf:resource="http://purl.org/dc/dcmitype/StillImage" />
      </cc:Work>
    </rdf:RDF>
  </metadata>
  <defs
     id="defs124" />
  <sodipodi:namedview
     pagecolor="#ffffff"
     bordercolor="#666666"
     borderopacity="1"
     objecttolerance="10"
     gridtolerance="10"
     guidetolerance="10"
     inkscape:pageopacity="0"
     inkscape:pageshadow="2"
     inkscape:window-width="2560"
     inkscape:window-height="1027"
     id="namedview122"
     showgrid="false"
     inkscape:zoom="1.8"
     inkscape:cx="250.8347"
     inkscape:cy="171.83766"
     inkscape:window-x="1358"
     inkscape:window-y="-8"
     inkscape:window-maximized="1"
     inkscape:current-layer="svg2" />
  <path
     fill="#006"
     d="M0 0h640v480H0z"
     id="path4" />
  <path
     fill-rule="evenodd"
     fill="#006"
     d="M0 0h400v200H0z"
     id="path6" />
  <g
     stroke-width="1pt"
     id="g8">
    <path
       fill="#fff"
       d="M0 0v27.09l334.411 215.208h42.094v-27.09L42.093.002H0zm376.505 0v27.089L42.093 242.297H0v-27.089L334.411 0h42.094z"
       id="path10" />
    <path
       fill="#fff"
       d="M156.877 0v242.297h62.75V0h-62.75zM0 80.766v80.765h376.505V80.766H0z"
       id="path12" />
    <path
       fill="#c00"
       d="M0 96.919v48.46h376.505v-48.46H0zM169.427 0v242.297h37.65V0h-37.65zM0 242.297l125.502-80.766h28.062L28.062 242.297H0zM0 0l125.502 80.766H97.439L0 18.06V0zm222.941 80.766L348.443 0h28.062L251.003 80.766h-28.062zm153.564 161.53l-125.502-80.765h28.062l97.44 62.707v18.059z"
       id="path14" />
  </g>
</svg>
