<?xml version="1.0" encoding="UTF-8" standalone="no"?>
<svg
   xmlns:dc="http://purl.org/dc/elements/1.1/"
   xmlns:cc="http://creativecommons.org/ns#"
   xmlns:rdf="http://www.w3.org/1999/02/22-rdf-syntax-ns#"
   xmlns:svg="http://www.w3.org/2000/svg"
   xmlns="http://www.w3.org/2000/svg"
   xmlns:sodipodi="http://sodipodi.sourceforge.net/DTD/sodipodi-0.dtd"
   xmlns:inkscape="http://www.inkscape.org/namespaces/inkscape"
   height="480"
   width="640"
   viewBox="0 0 640 480"
   id="svg2"
   version="1.1"
   inkscape:version="0.91 r13725"
   sodipodi:docname="kz.svg">
  <metadata
     id="metadata42">
    <rdf:RDF>
      <cc:Work
         rdf:about="">
        <dc:format>image/svg+xml</dc:format>
        <dc:type
           rdf:resource="http://purl.org/dc/dcmitype/StillImage" />
      </cc:Work>
    </rdf:RDF>
  </metadata>
  <defs
     id="defs40" />
  <sodipodi:namedview
     pagecolor="#ffffff"
     bordercolor="#666666"
     borderopacity="1"
     objecttolerance="10"
     gridtolerance="10"
     guidetolerance="10"
     inkscape:pageopacity="0"
     inkscape:pageshadow="2"
     inkscape:window-width="2560"
     inkscape:window-height="1027"
     id="namedview38"
     showgrid="false"
     inkscape:zoom="1.2727922"
     inkscape:cx="639.15338"
     inkscape:cy="145.53699"
     inkscape:window-x="1358"
     inkscape:window-y="-8"
     inkscape:window-maximized="1"
     inkscape:current-layer="g22" />
  <g
     fill-rule="evenodd"
     id="g4">
    <path
       fill="#6fdcff"
       d="M0 0h640v480H0z"
       id="path6" />
    <g
       fill="#ffe400"
       transform="translate(-194.73 8.285) scale(1.0673)"
       id="g22">
      <rect
         rx="85.12"
         ry="80.648"
         height="161.3"
         width="170.24"
         y="104.45"
         x="425.9"
         id="rect24" />
      <g
         transform="matrix(2.1824 0 0 2.0629 -405.01 -272.56)"
         id="g30">
        <path
           d="M360.137 247.889c.625 2.5.781 16.562 14.844 30 14.062 13.437 37.969 16.406 37.969 16.406s.156 1.875-1.563 2.031c-1.719.157-9.844-1.562-13.906-2.812-4.063-1.25-7.656-3.438-8.125-3.281-.469.156-1.25 1.562-2.5 1.406s-7.031-6.25-9.531-7.813c-2.5-1.562-10.938-10.781-13.75-15.312-2.813-4.531-3.438-7.5-4.375-7.5-.938 0-4.219 2.187-4.219 2.187s-2.969-4.531-5.625-11.719c-2.656-7.187-2.344-11.406-1.719-11.718.625-.313.625 5.312 2.656 10.468 2.032 5.157 4.844 6.719 4.844 6.719s-1.875-2.656-3.281-9.375-1.875-13.125-.938-15.156c.938-2.031 1.875-2.656 2.032-2.5.156.156-1.719 3.125-.469 10.781s4.844 14.219 5.625 13.906c.781-.312-.469-1.875-1.094-6.406s.625-7.344 1.719-7.656c.469-.469 1.25 5 1.406 7.344zM350.292 260.699c-2.656-2.5-6.875-11.25-7.812-10.781-.938.469 6.875 12.969 7.031 14.063.156 1.093 1.875 4.531.625 4.062s-10.625-10.312-9.531-8.437 8.125 10.468 7.656 10.937-5.781-4.688-5.937-4.062c-.157.625 5.312 5.781 5.156 6.406s-3.438-3.281-3.438-2.5 3.438 4.687 3.438 5.312-2.969-2.812-2.031-.937c.937 1.875 3.593 3.594 3.437 4.219s-2.187-.782-2.187-.469c0 .312 3.906 1.719 4.843 2.812.938 1.094 7.344 8.438 12.188 12.188s18.594 10.156 19.531 10.156c.938 0 2.344-2.031 2.031-2.812-.312-.782-13.75-5.313-17.5-8.75-3.75-3.438-12.968-11.563-13.75-12.032-.781-.468-2.812-.312-2.812-.781s2.656.313 2.5 0c-.156-.312-3.75-1.875-3.594-2.187.156-.313 2.5.625 2.5.312 0-.312-4.219-2.656-4.062-3.125.156-.469 3.125 1.406 3.125 1.094 0-.313-4.063-3.125-3.907-3.594.157-.469 3.125 2.188 2.969 1.563s-2.344-3.907-2.344-4.375c0-.469 3.594 3.437 3.907 2.656.312-.781-1.25-7.188-1.094-7.344s2.645 1.422 3.114.484c.468-.937-1.837-2.241-4.052-4.078zM396.4 309.9c-1.893.249-2.747-.393-1.672-1.934 1.488-.11 5.449-1.379 6.849-1.96s2.894-1.416 4.137-2.534c1.24-1.22 1.903.782 1.282 1.819-.515.73-2.838 2.044-4.545 2.739-2.479.825-4.61 1.967-6.051 1.87zM408.887 304.769c-1.25-1.407-.156-2.344 1.719-3.438 2.812-1.562 2.032-3.593 5.625-5.312 1.563-.938 23.906-10 31.25-14.844s27.813-20.313 33.281-30.938c5.469-10.625 2.813-11.406 3.594-11.875.781-.468 1.563 1.563 1.406 3.907-.156 2.343-1.875 9.375-1.406 10s8.281-5.469 11.406-12.969 5.625-15.313 7.188-15.313c1.562 0-2.656 12.813-5.313 17.813-2.656 5-5.781 7.5-5 8.594.782 1.093 8.594-5.469 11.25-10.313 2.657-4.844 5.157-9.219 5.625-8.281.469.937-2.5 11.25-6.718 16.094-4.219 4.843-9.219 8.281-8.438 9.062.781.782 6.406 1.563 12.344-2.5 5.937-4.062 6.562-10 7.344-9.687.781.312-.782 8.437-6.407 13.437s-13.281 5.469-12.968 6.563c.312 1.094 16.25-4.531 15.937-3.281-.312 1.25-20.625 9.218-20.782 10 .001.625 3.439.781 8.907-.469 5.469-1.25 10.626-5.468 11.407-4.531.155 1.406-3.907 4.844-10.157 6.406-6.25 1.563-9.375 3.75-9.531 4.219-.156.468 11.094-1.407 11.094-.782s-14.688 3.438-14.844 4.22c-.156.781 14.062-2.813 13.75-2.032-.313.781-19.219 6.406-19.063 6.719.157.312 15.782-3.438 15.469-2.813-.312.625-26.406 7.969-26.562 8.438-.157.468 22.968-5.157 22.812-4.688s-12.031 3.437-12.031 3.75c0 .312 9.531-1.562 9.375-1.094-.156.469-24.063 6.563-24.532 7.5-.468.938 12.344-2.5 12.188-.781s-27.656 11.094-27.813 9.375c-.156-1.719 16.719-6.094 16.563-6.562-.156-.469-9.687 1.093-9.844.156-.156-.938 6.25-2.969 5.782-3.438-.469-.468-5.313 1.406-4.844.313.469-1.094 9.531-5.313 9.375-5.625-.156-.313-3.281 1.093-2.969 0 .313-1.094 19.687-6.719 19.375-7.344-.313-.625-8.906 1.406-9.687 1.562-.313-.624 12.031-5.156 11.718-5.937-.312-.781-6.562 2.656-6.874 1.719-.313-.938 10.781-5.313 10.156-5.938s-5.781 1.719-6.406 1.094 10.468-8.437 8.749-8.594c-1.718-.156-3.75 2.345-4.062.782.313-2.032 8.75-5.313 6.875-6.875-2.969-.938-13.125.625-17.344 3.125s-18.125 16.406-21.563 18.593c-3.437 2.188-15 7.032-17.187 7.969-3.438 1.25-4.063 3.125-7.5 4.844-6.251 1.719-6.25 3.594-9.219 4.687-1.093.313-12.343 5.781-12.5 5.313zM393.107 311.797c-1.875.938-3.593 3.438-2.501 4.375.626 1.25 2.501-2.656 4.063-2.5 1.563.156 3.75.157 7.969.47 4.219.312 6.406-.938 8.75-.782s7.657-1.25 10.157-1.25 2.968.312 3.281-.782c.312-1.093-7.813-.312-11.407-.468-3.593-.156-8.125.781-10.781.781-2.5-.156-6.875-.938-9.531.156z"
           id="path32" />
        <rect
           rx="1.719"
           ry="1.484"
           height="2.969"
           width="3.438"
           y="309.14"
           x="401.7"
           id="rect34" />
        <path
           d="M445.02 307.731c1.718-.313 6.307 1.25 9.478 2.031 5.828 2.188 16.603 1.094 16.603 2.188s-.67 2.5-3.242 2.656-8.758-.937-8.587-.937 4.972 2.187 3.6 2.812-5.486-1.25-6.171-.781 3.771 1.406 3.086 1.719c-.686.312-3.782-.469-4.811-.312-1.028.155.868 1.249-.333 1.718-1.199.469-3.216-.624-4.073-.313-.857.314 1.845 2.032.645 2.188-1.2.156-4.089-.781-5.632-.937-1.543-.156 1.518 1.562.49 1.718-1.03.156-3.827-1.249-4.512-1.249s.054 1.874-.974 1.874c-1.029 0-2.239-1.562-2.753-1.562s.01 1.875-1.018 1.875-1.397-2.031-2.254-1.875c-1.014.157.025 2.656-1.346 2.5-1.371-.157-1.553-2.656-2.581-2.5-1.03.156.182 2.5-.847 2.5-1.028 0-1.195-2.344-2.224-2.5-1.028-.156-.52 2.187-1.205 2.187s-1.195-2.187-1.538-2.187c-.342 0-.004 2.187-1.205 2.031s-1.194-2.5-1.538-2.344c-.342.157-.348 1.719-1.204 1.719s-.853-1.562-1.195-1.406c-.344.156-1.548 2.187-2.405 1.875-.857-.313.206-1.875-.136-1.875-.343 0-1.406 1.093-2.092.937s.035-1.406-.137-1.406c-.171 0-1.75.781-2.435.781s-2.571 1.094-3.086.156c-.513-.937 1.342-.937 1.684-1.875.344-.937-.998-3.593.373-4.531 1.372-.937 5.658 1.25 12-.312 11.656-3.125 20.652-6.718 21.575-6.563z"
           id="path36" />
      </g>
    </g>
  </g>
</svg>
