<?xml version="1.0" encoding="UTF-8" standalone="no"?>
<svg
   xmlns:dc="http://purl.org/dc/elements/1.1/"
   xmlns:cc="http://creativecommons.org/ns#"
   xmlns:rdf="http://www.w3.org/1999/02/22-rdf-syntax-ns#"
   xmlns:svg="http://www.w3.org/2000/svg"
   xmlns="http://www.w3.org/2000/svg"
   xmlns:sodipodi="http://sodipodi.sourceforge.net/DTD/sodipodi-0.dtd"
   xmlns:inkscape="http://www.inkscape.org/namespaces/inkscape"
   height="480"
   width="640"
   viewBox="0 0 640 480"
   id="svg2"
   version="1.1"
   inkscape:version="0.91 r13725"
   sodipodi:docname="me.svg">
  <metadata
     id="metadata240">
    <rdf:RDF>
      <cc:Work
         rdf:about="">
        <dc:format>image/svg+xml</dc:format>
        <dc:type
           rdf:resource="http://purl.org/dc/dcmitype/StillImage" />
      </cc:Work>
    </rdf:RDF>
  </metadata>
  <defs
     id="defs238" />
  <sodipodi:namedview
     pagecolor="#ffffff"
     bordercolor="#666666"
     borderopacity="1"
     objecttolerance="10"
     gridtolerance="10"
     guidetolerance="10"
     inkscape:pageopacity="0"
     inkscape:pageshadow="2"
     inkscape:window-width="2560"
     inkscape:window-height="1027"
     id="namedview236"
     showgrid="false"
     inkscape:zoom="0.079549515"
     inkscape:cx="-324.93503"
     inkscape:cy="-81.683201"
     inkscape:window-x="1358"
     inkscape:window-y="-8"
     inkscape:window-maximized="1"
     inkscape:current-layer="svg2" />
  <path
     fill="#d3ae3b"
     d="M0 0h640v480H0z"
     id="path4" />
  <path
     fill="#c40308"
     d="M24 24h592v432H24z"
     id="path6" />
  <path
     d="M361.205 237.75c0-10.178 4.683-16.614 4.683-16.614l-12.74-14.595c-12.133 4.69-23.25 4.976-33.147-.06-9.897 5.035-21.013 4.75-33.144.06l-12.744 14.595s4.685 6.436 4.685 16.614c0 10.179-1.968 17.73-3.119 22.654-1.149 4.925-2.133 14.117.494 20.685 2.625 6.564 5.416 12.311 16.743 17.072 11.326 4.761 17.236 7.221 21.175 10.506 3.941 3.28 5.91 5.907 5.91 5.907s1.97-2.628 5.91-5.907c3.938-3.283 9.848-5.745 21.176-10.506 11.325-4.761 14.117-10.507 16.743-17.071 2.625-6.569 1.641-15.761.492-20.685-1.14-4.92-3.105-12.465-3.105-22.65z"
     fill="#d4af3a"
     id="path10" />
</svg>
