<svg xmlns="http://www.w3.org/2000/svg" height="480" width="640" viewBox="0 0 640 480" version="1"><defs><clipPath id="a"><path d="M0 0h640v480H0z"/></clipPath></defs><g clip-path="url(#a)"><path fill-rule="evenodd" fill="#0071bc" d="M-160 0h960v480h-960z"/><path d="M370 366s15-16 30-13c4-17 21-19 21-19s-2-18 19-22c1-13 14-24 14-24s-3-20 11-24c-9-16 2-27 2-27 0-1-14-25-1-32-13-11-9-24-9-24s-14-3-9-20c-12-2-14-21-14-21s-18 3-20-12c-12 2-14-10-14-10s-23 6-28-11c-9 4-13-4-13-4s-13 6-21-6c-15 10-24-1-24-1s-20 14-27 4c-12 12-23 6-23 6s-9 17-23 12c-4 15-21 16-21 16s2 13-18 16c-3 16-13 18-13 18s1 16-9 20c4 9-5 19-5 19s9 12-4 25c13 3 4 25 4 25s17 7 6 21c12 4 8 14 9 20 7 3 14 1 11 17 24 3 12 16 12 16s12 0 7 9c21 0 23 15 23 15s19-5 22 3c2 7-8 56-8 56s-16 0-28-12c-28-1-22-20-22-20-1 0-10 4-14-11-19 3-18-12-18-12 0-1-9-4-5-12-20 2-18-17-18-17-4-2-6-6-5-9-3-1-20-2-11-24-16-10-6-21-6-21s-23-12-5-25c-13-19 1-28 1-28s-18-19 0-32c-3-27 14-34 14-34s-9-22 14-31c2-23 18-24 18-24s1-18 26-16c5-16 23-13 23-13s5-19 29-10c12-24 30-11 30-11s12-8 17-6c8-12 23 0 33 2 4-1 17-11 27 1 13-8 24 7 24 7s18-9 27 12c38-3 33 22 33 22s30-7 23 23c28 2 25 20 25 20s17 13 10 25c15 1 10 16 10 16s12 4 2 23c22 18 4 36 4 36s12 15 1 32c3 26-10 33-10 33s3 18-12 23c0 20-20 23-20 23s6 9-14 18c0 14-20 15-20 15s-2 25-28 18c-6 20-36 14-36 14l-6-43z" fill-rule="evenodd" stroke="#000" stroke-width="2" fill="#fff"/><path d="M344 172c3 2 5 5 6 12l1 16 13 116 11 85 1 13s-3 9-11 10c-5 12-35 15-38 15s-13-4-18-4c-6 1-16 5-21 4-4-1-15-4-16-11-13-4-15-14-15-14l13-98 14-123s1-17 8-19c7-1 42 1 52-2z" fill-rule="evenodd" stroke="#000" stroke-width="2" fill="#8c8a8c"/><path d="M405 387s-2 4 7 8m12-18s10-3 16 0m14-26s-2 5 6 11m-1-22s6 4 16 4m-75 9s0 11-6 16m26-34s9 2 17-2m45-15s2 3 13 2m-55-9s13 4 20 1m5-48l4 13m5-51s0 7-6 11m43-40s-9 7-7 10m-35-15s5 8-3 13m-18-44s8 0 11 6m-25-27h6m24-26s1 1-2 4m-51-4s4 7 3 14m20-35l7-3m-33-22s-2 8 1 11m-11 25c0 8 7 6 2 14m-18-21l-10 9m-17-13s5 4 4 10m-16-14l-5 9m-18-11l-6 10m-26-9s3 7-1 12m-6-48s0 5-3 10m-29 1c0 1 2 6-7 8m-10 45l9 2m-31 19l11-4m-28 17h9m-14 6s3 1 1 13m-35-44l5 7m-19 26c0-1 4 6 10 7m23 25l8-2m-11 26s0-4 5-7m-12 18s5 6 8 7m-11 5s6-5 12-5m-14 21s0 5 16 4m-14 15s4-11 14-15m-1 28s1-4 9-7m0 25l7-5m0 19s3 4 12-2m-54 5c1 0 13-3 18 4m-13 7s13-2 15-1m33 3s-2 4 14-2m6 9c-3 5 1 9-3 11m-47-4s6-2 5-10m0 22c1 0 10-4 12-2m6 14s1-9 4-10m10 22s8 0 11-3m4-25s7 4 22 0m-17 33l2 13" stroke="#000" stroke-width="2" fill="none"/></g></svg>