<?xml version="1.0" encoding="UTF-8" standalone="no"?>
<svg
   xmlns:dc="http://purl.org/dc/elements/1.1/"
   xmlns:cc="http://creativecommons.org/ns#"
   xmlns:rdf="http://www.w3.org/1999/02/22-rdf-syntax-ns#"
   xmlns:svg="http://www.w3.org/2000/svg"
   xmlns="http://www.w3.org/2000/svg"
   xmlns:sodipodi="http://sodipodi.sourceforge.net/DTD/sodipodi-0.dtd"
   xmlns:inkscape="http://www.inkscape.org/namespaces/inkscape"
   height="480"
   width="640"
   viewBox="0 0 640 480"
   id="svg2"
   version="1.1"
   inkscape:version="0.91 r13725"
   sodipodi:docname="mp.svg">
  <metadata
     id="metadata165">
    <rdf:RDF>
      <cc:Work
         rdf:about="">
        <dc:format>image/svg+xml</dc:format>
        <dc:type
           rdf:resource="http://purl.org/dc/dcmitype/StillImage" />
      </cc:Work>
    </rdf:RDF>
  </metadata>
  <sodipodi:namedview
     pagecolor="#ffffff"
     bordercolor="#666666"
     borderopacity="1"
     objecttolerance="10"
     gridtolerance="10"
     guidetolerance="10"
     inkscape:pageopacity="0"
     inkscape:pageshadow="2"
     inkscape:window-width="2560"
     inkscape:window-height="1027"
     id="namedview163"
     showgrid="false"
     inkscape:zoom="0.039774757"
     inkscape:cx="-781.6782"
     inkscape:cy="4380.2382"
     inkscape:window-x="1358"
     inkscape:window-y="-8"
     inkscape:window-maximized="1"
     inkscape:current-layer="g9" />
  <defs
     id="defs4">
    <clipPath
       id="a">
      <path
         fill-opacity=".67"
         d="M0 0h640v480H0z"
         id="path7" />
    </clipPath>
  </defs>
  <g
     clip-path="url(#a)"
     id="g9">
    <path
       fill-rule="evenodd"
       fill="#0071bc"
       d="M-160 0h960v480h-960z"
       id="path11" />
    <path
       d="M369.927 365.661s15.223-16.1 29.86-13.027c4.392-16.98 20.932-18.297 20.932-18.297s-1.61-18.736 19.615-22.834c.585-12.735 13.467-23.274 13.467-23.274s-2.635-19.76 10.832-24.298c-8.198-15.662 2.78-27.08 2.634-27.372-.146-.293-13.905-24.738-1.61-31.764-13.027-10.978-8.782-23.42-8.782-23.42s-14.2-3.66-9.076-20.64c-11.71-2.049-14.052-20.931-14.052-20.931s-18.004 3.659-20.2-12.004c-11.856 1.903-13.174-9.806-13.32-9.806-.146 0-23.567 6.294-28.25-11.418-9.075 4.684-13.028-3.66-13.028-3.66s-13.027 6.441-20.785-6c-15.516 9.66-24.152-.44-24.152-.44s-20.346 13.467-27.08 3.074c-12.003 12.15-22.688 6.88-22.688 6.88s-9.075 16.1-23.713 12.002c-3.366 14.93-20.2 15.223-20.2 15.223s1.757 13.174-18.443 16.687c-2.634 15.516-13.173 18.15-13.173 18.15s1.024 15.078-8.49 19.907c3.366 8.49-5.416 18.883-5.416 18.883s9.368 11.71-3.367 24.884c12.296 3.22 3.367 24.445 3.367 24.445s16.98 7.611 6.294 21.663c12.15 3.953 8.343 13.613 8.49 19.322 7.758 3.513 14.637 1.757 11.271 17.419 23.86 2.635 12.588 15.809 12.588 15.809s11.124.439 6.734 9.222c20.346-.44 23.273 15.223 23.273 15.223s18.883-4.977 21.372 2.342c2.488 7.319-8.197 56.647-8.197 56.647s-15.955 0-27.812-12.734c-27.81-.732-21.663-19.029-22.103-19.029-.439 0-9.222 3.367-13.76-11.856-18.59 3.806-18.004-11.856-18.15-12.002-.146-.147-8.343-3.806-5.27-11.564-19.174 1.756-17.71-16.98-17.71-16.98-4.197-1.707-5.758-5.61-5.124-9.514-2.488-.878-19.468-1.17-10.685-23.566-16.248-9.807-6.148-21.078-6.148-21.078s-22.396-11.563-5.123-24.883c-12.882-19.029 1.024-28.543 1.024-28.543s-17.858-18.151.293-31.032c-2.927-27.519 13.467-34.106 13.467-34.106s-8.636-22.395 14.784-31.764c1.463-22.688 17.858-23.273 17.858-23.273s.439-18.005 26.201-16.248c4.977-16.1 22.542-12.881 22.542-12.881s5.416-19.468 29.275-10.1c12.15-23.713 30.154-11.564 30.154-11.564s11.417-7.465 17.126-5.123c7.249-12.457 22.68-.483 32.66 1.928 3.615-1.406 16.522-11.15 26.476 1.146 13.174-8.636 24.445 6.88 24.445 6.88s18.15-9.221 26.64 11.856c38.498-3.513 32.935 21.664 32.935 21.664s30.3-6.88 23.713 23.273c27.519 1.903 24.738 20.054 24.738 20.054s17.418 13.174 9.806 25.03c15.516.732 9.807 15.662 9.807 15.662s11.856 4.538 2.05 22.982c22.687 18.15 4.39 36.155 4.244 36.009-.146-.147 12.15 14.637 1.025 31.617 3.367 26.933-10.246 33.813-10.246 33.813s3.513 17.419-11.71 22.396c-.293 20.492-19.615 22.981-19.615 22.981s5.124 8.902-14.051 18.27c-.757 13.712-20.786 14.812-20.786 14.812s-1.903 25.176-27.373 18.443c-6.181 20.2-36.008 14.198-36.593 13.905-.586-.293-5.709-43.327-5.709-43.474z"
       fill-rule="evenodd"
       stroke="#000"
       stroke-width="1.8570921599999999"
       fill="#fff"
       id="path13" />
    <path
       d="M344.333 172.337c2.462 2.073 4.793 4.405 5.312 12.049l1.036 15.287 12.955 116.595 11.4 84.339.778 13.085s-2.72 9.586-10.364 10.363c-5.57 11.66-35.756 15.028-38.736 14.899-2.72-.13-12.308-4.146-18.138-3.628-5.83.518-15.935 4.405-20.469 3.757-4.534-.647-14.768-4.145-16.582-11.53-12.696-4.016-14.769-13.732-14.769-13.732l13.733-97.554 13.343-123.33s1.555-16.453 8.162-18.915c6.866-.648 42.363.648 52.338-1.684z"
       fill-rule="evenodd"
       stroke="#000"
       stroke-width="1.8570921599999999"
       fill="#8c8a8c"
       id="path29" />
    <path
       d="M405.485 386.834s-2.259 4.344 6.777 8.167M423.56 376.583s10.078-2.433 16.855 0M453.618 351.207c0 .174-1.39 4.518 6.603 10.773M459.353 339.92s5.908 4.344 15.812 4.17M399.75 352.599s.348 11.468-5.56 16.855M419.557 334.872s9.73 2.433 17.724-1.564M481.944 318.024s2.085 2.954 12.859 2.433M439.894 311.245c.348.174 12.685 4.17 20.505.522M464.566 263.982s.52-.695 4.344 12.685M474.12 226.275s-.52 7.124-6.255 10.252M510.784 197.078s-8.34 6.777-6.777 9.557M469.256 192.214s4.344 7.298-2.78 12.337M448.231 160.937s7.472-.347 10.774 6.082M434.16 139.738h5.734M463.87 113.675c0 .173 1.563 1.563-1.39 4.517M410.524 114.37s3.996 6.256 3.301 13.902M433.637 93.17c1.738-.174 7.646-2.78 7.646-2.78M407.922 68.321c-.174 0-2.26 7.82 1.564 10.6M398.358 103.944c0 8.34 6.603 6.255 2.085 14.248M382.197 96.992c-.173 0-10.425 7.993-10.425 9.383M355.437 92.649s4.344 4.344 3.302 10.252M342.758 89.173s-2.259 6.603-5.213 8.34M319.644 87.435c-.173.348-3.649 7.82-6.081 9.21M288.02 87.61c.174 0 3.475 6.95-.869 11.99M280.719 51.64c.173.173.695 5.386-2.607 9.904M249.442 63.456c0 .173 1.39 5.908-7.82 7.82M231.724 116.45c.174.348 8.862 1.738 8.862 1.738M210.003 136.614c.174-.174 10.6-3.301 10.6-3.301M193.146 149.642c.348 0 7.298 1.216 9.036.347M188.282 156.073s2.259 1.216.347 12.858M154.395 125.492l4.17 6.256M140.149 157.64c0-.175 4.17 6.254 9.73 7.47M172.992 190.308c.173 0 6.776-1.39 7.82-2.085M170.033 213.935c.174 0-.174-4.344 5.213-7.298M162.906 224.709c0 .173 5.039 6.429 8.514 7.298M159.955 236.7c.522-.173 5.908-4.865 12.164-4.518M158.215 252.86s.174 5.388 16.16 3.998M159.781 271.797c0-.174 4.692-10.773 14.249-14.77M172.644 285.356s1.39-4.518 9.382-7.646M181.503 303.248s5.734-4.692 7.819-5.387M188.63 317.154s3.475 3.65 12.163-2.606M146.745 320.104c1.043-.174 13.727-3.127 18.072 3.476M151.793 330.53s13.38-1.738 15.117-.348M199.577 333.314s-1.737 3.65 14.77-2.432M220.08 339.92c-2.954 5.039.695 9.035-3.128 11.294M169.859 346.864c.521-.347 6.082-2.259 5.213-10.252M174.897 358.856c.696-.174 9.905-4.17 11.817-2.085M192.972 370.5s1.217-8.167 3.823-9.036M206.87 382.831s7.646-.174 10.948-2.606M221.638 355.21c.174.173 7.124 3.822 21.894.173M227.199 388.392s2.085 10.6 1.911 13.033"
       stroke="#000"
       stroke-width="1.8570921599999999"
       fill="none"
       id="path39" />
  </g>
</svg>
