<svg xmlns="http://www.w3.org/2000/svg" height="480" width="640" viewBox="0 0 640 480"><defs><clipPath id="a"><path d="M0 0h496v372H0z"/></clipPath></defs><g transform="scale(1.2902)" clip-path="url(#a)"><path fill-rule="evenodd" fill="#fff" d="M0 0h500v248H0z"/><path d="M0 0v19l119 61 45 1L0 0z" fill="#c00"/><path d="M51 0l145 75V0H51z" fill="#006"/><path fill="#c00" d="M215 0v96H0v55h215v97h66v-97h215V96H281V0h-66z"/><path d="M300 0v71L442 1 300 0z" fill="#006"/><path d="M305 79h39L499 1h-41L305 79z" fill="#c00"/><path d="M0 168v52l99-52-99-1z" fill="#006"/><path d="M382 170l-41-1 155 78-1-18-113-59zM39 248l146-76h-39L0 248" fill="#c00"/><path d="M498 22L380 80l116 1v87h-99l98 53 2 27h-53l-143-71v71H196v-71L61 248H1v248h991V0H499M1 28L0 79l104 2L1 28z" fill="#006"/><g fill-rule="evenodd" fill="#ffd900"><path d="M496 0h496v496H496z"/><path d="M0 248h523v248H0z"/></g><g fill-rule="evenodd"><path d="M291 125a43 43 0 1 1-86 0 43 43 0 0 1 86 0z" fill="#000067"/><path fill="#fff40d" d="M240 114l8-24 9 24h26l-21 15 8 25-22-15-21 15 8-25-21-15zm149 4l4-11 4 11h13l-11 7 5 12-11-7-11 7 4-12-10-7zm-145 86l4-12 4 12h13l-10 7 4 11-11-7-11 7 5-11-11-7zm0-167l4-12 4 12h13l-10 7 4 11-11-7-11 7 5-11-11-7zM99 118l4-11 4 11h13l-10 7 4 12-11-7-11 7 4-12-10-7z"/></g></g></svg>