<svg xmlns="http://www.w3.org/2000/svg" height="480" width="640" viewBox="0 0 640 480"><defs><clipPath id="a"><path d="M0 0h640v480H0z"/></clipPath></defs><g clip-path="url(#a)"><path fill="#fff" d="M0 0h640v480H0z"/><path fill-rule="evenodd" fill="#fff" d="M92 0h478v480H92z"/><path fill-rule="evenodd" fill="#db0000" d="M323 4h358v221H323z"/><path fill-rule="evenodd" fill="#0000ab" d="M3 225h320v255H3zm212-47l-42-30-42 30 16-48-42-30h52l15-48 17 48h51l-41 30 16 48z"/><path d="M517 414l-43-28-42 28 16-45-42-28 52-1 16-45 17 45h52l-42 28 16 46z" fill-rule="evenodd" fill="#d80000"/></g></svg>