<svg xmlns="http://www.w3.org/2000/svg" height="480" width="640" viewBox="0 0 640 480"><defs><clipPath id="a"><path d="M-52 0h682v512H-52z"/></clipPath></defs><g fill-rule="evenodd" clip-path="url(#a)" transform="translate(49) scale(.9375)"><path fill="#0c590b" d="M-95 0h768v512H-95z"/><path fill="#fff" d="M-95 0H98v512H-95z"/><g fill="#fff"><path d="M404 225l-31-6-17 27-3-32-31-7 29-13-3-31 21 23 30-12-16 27 21 24z"/><path d="M415 306c-27 61-100 88-161 59a122 122 0 0 1 12-226l-12 11a112 112 0 0 0 161 156z"/></g></g></svg>