<svg xmlns="http://www.w3.org/2000/svg" height="480" width="640" viewBox="0 0 640 480" version="1"><defs><clipPath id="a"><path d="M-15-7h30V8h-30z"/></clipPath></defs><path d="M0 0h640v480H0z" fill="#00247d"/><g clip-path="url(#a)" transform="translate(320 160) scale(21.33333)"><circle r="20" fill="#00247d"/><path d="M-20-10l40 20m-40 0l40-20" stroke="#fff" stroke-width="3"/><path d="M-20-10l40 20m-40 0l40-20" stroke="#cf142b" stroke-width="2"/><path d="M0 0l20 10h-3L-3 0m3 0l20-10h3L3 0M0 0l-20 10h-3L-3 0m3 0l-20-10h3L3 0" fill="#fff"/><path d="M-20 0h40M0-10v20" stroke="#fff" stroke-width="5"/><path d="M-20 0h40M0-10v20" stroke="#cf142b" stroke-width="3"/></g></svg>