<?xml version="1.0" encoding="UTF-8" standalone="no"?>
<svg
   xmlns:dc="http://purl.org/dc/elements/1.1/"
   xmlns:cc="http://creativecommons.org/ns#"
   xmlns:rdf="http://www.w3.org/1999/02/22-rdf-syntax-ns#"
   xmlns:svg="http://www.w3.org/2000/svg"
   xmlns="http://www.w3.org/2000/svg"
   xmlns:sodipodi="http://sodipodi.sourceforge.net/DTD/sodipodi-0.dtd"
   xmlns:inkscape="http://www.inkscape.org/namespaces/inkscape"
   height="480"
   width="640"
   viewBox="0 0 640 480"
   id="svg2"
   version="1.1"
   inkscape:version="0.91 r13725"
   sodipodi:docname="pn.svg">
  <metadata
     id="metadata113">
    <rdf:RDF>
      <cc:Work
         rdf:about="">
        <dc:format>image/svg+xml</dc:format>
        <dc:type
           rdf:resource="http://purl.org/dc/dcmitype/StillImage" />
      </cc:Work>
    </rdf:RDF>
  </metadata>
  <sodipodi:namedview
     pagecolor="#ffffff"
     bordercolor="#666666"
     borderopacity="1"
     objecttolerance="10"
     gridtolerance="10"
     guidetolerance="10"
     inkscape:pageopacity="0"
     inkscape:pageshadow="2"
     inkscape:window-width="1366"
     inkscape:window-height="715"
     id="namedview111"
     showgrid="false"
     inkscape:zoom="0.45"
     inkscape:cx="320"
     inkscape:cy="240"
     inkscape:window-x="-8"
     inkscape:window-y="301"
     inkscape:window-maximized="1"
     inkscape:current-layer="svg2" />
  <defs
     id="defs4">
    <clipPath
       id="a">
      <path
         d="M-15-7.5h30v15h-30z"
         id="path7" />
    </clipPath>
  </defs>
  <path
     d="M0 0h640v480H0z"
     fill="#00247d"
     id="path9" />
  <g
     clip-path="url(#a)"
     transform="matrix(21.33333 0 0 21.33333 320 160)"
     id="g11">
    <circle
       r="20"
       fill="#00247d"
       id="circle13" />
    <path
       d="M-20-10l40 20m-40 0l40-20"
       stroke="#fff"
       stroke-width="3"
       id="path15" />
    <path
       d="M-20-10l40 20m-40 0l40-20"
       stroke="#cf142b"
       stroke-width="2"
       id="path17" />
    <path
       d="M0 0l20 10h-3L-3 0m3 0l20-10h3L3 0M0 0l-20 10h-3L-3 0m3 0l-20-10h3L3 0"
       fill="#fff"
       id="path19" />
    <path
       d="M-20 0h40M0-10v20"
       stroke="#fff"
       stroke-width="5"
       id="path21" />
    <path
       d="M-20 0h40M0-10v20"
       stroke="#cf142b"
       stroke-width="3"
       id="path23" />
  </g>
</svg>
