<?xml version="1.0" encoding="UTF-8" standalone="no"?>
<svg
   xmlns:dc="http://purl.org/dc/elements/1.1/"
   xmlns:cc="http://creativecommons.org/ns#"
   xmlns:rdf="http://www.w3.org/1999/02/22-rdf-syntax-ns#"
   xmlns:svg="http://www.w3.org/2000/svg"
   xmlns="http://www.w3.org/2000/svg"
   xmlns:sodipodi="http://sodipodi.sourceforge.net/DTD/sodipodi-0.dtd"
   xmlns:inkscape="http://www.inkscape.org/namespaces/inkscape"
   height="480"
   width="640"
   viewBox="0 0 640 480"
   id="svg2"
   version="1.1"
   inkscape:version="0.91 r13725"
   sodipodi:docname="sh.svg">
  <metadata
     id="metadata154">
    <rdf:RDF>
      <cc:Work
         rdf:about="">
        <dc:format>image/svg+xml</dc:format>
        <dc:type
           rdf:resource="http://purl.org/dc/dcmitype/StillImage" />
      </cc:Work>
    </rdf:RDF>
  </metadata>
  <defs
     id="defs152" />
  <sodipodi:namedview
     pagecolor="#ffffff"
     bordercolor="#666666"
     borderopacity="1"
     objecttolerance="10"
     gridtolerance="10"
     guidetolerance="10"
     inkscape:pageopacity="0"
     inkscape:pageshadow="2"
     inkscape:window-width="2560"
     inkscape:window-height="1027"
     id="namedview150"
     showgrid="false"
     inkscape:zoom="0.04"
     inkscape:cx="-15904.819"
     inkscape:cy="-3812.8329"
     inkscape:window-x="1358"
     inkscape:window-y="-8"
     inkscape:window-maximized="1"
     inkscape:current-layer="g12" />
  <path
     d="M640.013 480.02V.03H.003v479.99h640.01z"
     fill="#006"
     id="path4" />
  <path
     d="M-.006 73.341h76.034L-.006 26.768V.03h43.503L149.86 64.75V.03h59.892v64.72L316.11.03h43.88v26.738L283.58 73.34h76.41v73.37h-76.41l76.41 46.573v26.746h-43.88l-106.36-64.73v64.73h-59.892V155.3L43.497 220.03H-.006v-26.746l76.034-46.574H-.006V73.341z"
     fill="#fff"
     id="path6" />
  <path
     fill="#ce1126"
     d="M331.685.027L211.525 73.39h28.764L359.983.027h-28.298zM359.998 220.03l-119.822-73.323h28.89l90.932 55.843v17.48zM120.38 73.372L-.01.009v17.52l91.373 55.843h29.016zM120.129 146.686L-.013 220.009h28.748l120.16-73.323h-28.766z"
     id="path8" />
  <path
     fill="#ce1126"
     d="M-.006 88.56h162.621V.027h35.195V88.56h162.18v42.962H197.81v88.505h-35.195v-88.505H-.005V88.56z"
     id="path10" />
  <g
     id="g12">
    <path
       d="M399.67 640.77c-.046 16.332-2.623 33.927-23.764 42.308-21.142-8.381-23.719-25.976-23.765-42.308h47.529z"
       stroke-width="1.112"
       fill="#8fc5ff"
       transform="matrix(4.4862 0 0 4.4867 -1190.9 -2609)"
       stroke="#fff"
       id="path14" />
    <path
       d="M375.9 683.08c9.584-3.799 15.353-9.493 18.8-16.104-.516.02-1.597-.011-2.064-.043-.52-.034-20.271-2.018-22.61-2.876-2.035-.746-9.799.634-13.423 1.929 3.381 7.032 9.237 13.106 19.297 17.094z"
       fill="#366cc9"
       transform="matrix(4.4862 0 0 4.4867 -1190.9 -2609)"
       stroke-width="1.102"
       stroke="#000"
       id="path16" />
    <path
       d="M399.67 640.77c.018-6.152-.324-12.125-.168-17.359-7.9-3.535-18.295-4.262-23.596-4.262-5.302 0-15.697.727-23.597 4.262.156 5.234-.185 11.207-.168 17.359h47.529z"
       stroke-width="1.08"
       transform="matrix(4.4862 0 0 4.4867 -1190.9 -2609)"
       stroke="#fff"
       fill="#ff0"
       id="path20" />
    <path
       d="M493.668 209.59c-.381.861-.39.776-1.633.852-1.243.081-2.808.292-3.495 1.014-.372.386-2.52.49-2.525 1.436-.01.951 0 1.75.933 1.808.928.058 1.045.175.7.875-.355.7-.584 1.867 1.045 1.983 1.633.117 2.8-.408 3.208.52.408.934-.032 2.423.291 2.975s1.427.907 3.136 1.436c1.14.355 5.442.556 6.765.404 1.32-.157.826-.947-.498-1.063-1.319-.117-2.292-.31-2.602-1.28-.31-.973-.583-1.48.157-2.292.736-.816 1.476-1.44 1.05-2.8-.43-1.36-1.13-2.956-2.683-3.383-1.556-.426-1.063-2.552-2.606-2.759-.583-.076-1.086-.076-1.243.274z"
       fill="#ff0"
       id="path118" />
  </g>
</svg>
