<svg xmlns="http://www.w3.org/2000/svg" height="480" width="640" viewBox="0 0 640 480"><defs><clipPath id="a"><path d="M-85 0h682v512H-85z"/></clipPath></defs><g clip-path="url(#a)" transform="translate(80) scale(.9375)"><path fill-rule="evenodd" fill="#3e5eb9" d="M-128 0h768v512h-768z"/><path fill-rule="evenodd" fill="#ffd900" d="M-128 91h768v330h-768z"/><path fill-rule="evenodd" fill="#b10c0c" d="M-128 128h768v256h-768z"/><rect fill-rule="evenodd" rx="6" ry="6" height="11" width="622" stroke="#000" y="251" x="-51" fill="#ffd900"/><g stroke="#000" transform="translate(-757 -26) scale(1.0321)"><path d="M-106 266l-89 35 89 36 88-36-88-35z" fill-rule="evenodd" transform="matrix(.34 0 0 .3 1257 136)" stroke-width="4" fill="#fff"/><rect fill-rule="evenodd" rx="4" ry="4" height="7" width="443" y="223" x="762" fill="#ffd900"/><path d="M1224 280c-3 0-7-4-7-7s4-7 7-7" transform="matrix(-.50001 0 0 .5 1806 90)" stroke-width="3" fill="none"/><path d="M1224 280c-3 0-7-4-7-7s4-7 7-7" transform="matrix(-.50001 0 0 .5 1803 90)" stroke-width="3" fill="none"/><path d="M1224 280c-3 0-7-4-7-7s4-7 7-7" transform="matrix(-.50001 0 0 .5 1799 90)" stroke-width="3" fill="none"/></g><g stroke="#000" transform="translate(-786 -4) scale(1.0321)"><path d="M-106 266l-89 35 89 36 88-36-88-35z" fill-rule="evenodd" transform="matrix(.34 0 0 .3 1257 136)" stroke-width="4" fill="#fff"/><rect fill-rule="evenodd" rx="4" ry="4" height="7" width="443" y="223" x="762" fill="#ffd900"/><path d="M1224 280c-3 0-7-4-7-7s4-7 7-7" transform="matrix(-.50001 0 0 .5 1806 90)" stroke-width="3" fill="none"/><path d="M1224 280c-3 0-7-4-7-7s4-7 7-7" transform="matrix(-.50001 0 0 .5 1803 90)" stroke-width="3" fill="none"/><path d="M1224 280c-3 0-7-4-7-7s4-7 7-7" transform="matrix(-.50001 0 0 .5 1799 90)" stroke-width="3" fill="none"/></g><g fill-rule="evenodd"><path d="M338 0c-6 12 4-5 28 16 5 4 9 14 9 21l-4-4c-1 2 2 12 3 17-4-2-4-4-5-7 0 4-1 15 1 19-3-1-3-4-4-4 1 4-1 10-1 15l-4-5-4 12-2-4c-2 3-8 14-8 17-5-5-18-19-20-27-1 5-4 6-8 9-1-12-8-25-4-35l-7 6c2-17 14-37 30-46z" transform="matrix(.9944 0 0 .77118 190 252)" stroke="#000" fill="#3d5da7"/><path d="M506 299l6-9c2-5 3-9 5-9 2 1 2 3-1 8s-4 6-10 10zm15 11l1-7c0-4-2-7 0-7s3 1 3 5 0 5-4 9zm12 7l-1-10c-1-6-3-9-1-10 2 0 3 1 4 7s1 7-2 13zm13-34l-7-4c-3-2-5-5-6-4-1 2 0 3 3 5 4 2 5 3 10 3zm-3 16l-4-6c-1-4-1-7-3-6s-2 3 0 6 3 4 7 6z" fill="#a70000"/></g><g fill-rule="evenodd"><path d="M330 21c-1-3 0-3-2-5 3 1 3 3 5 1 1 0 2 0 1-3l13 4c4 0 11-5 16 1 4 5 3 10 3 17l-3-4v24l-2-2c-2 6-4 7-4 14l-1-4c-2 5-15 9-10 13-4-2-6-2-8-5l-3 4c-8-4-5-13-11-19l-2 6-3-12-3 4c-1-6-3-8-2-12l-3 3c2-17 12-29 19-25z" transform="matrix(1.1372 0 0 1.0495 -399 239)" stroke="#000" fill="#3d5da7"/><path d="M-36 290l6-11c3-7 3-12 6-11 2 1 2 3-1 10-3 6-5 7-11 12zm9 14l3-10c1-6 1-10 3-10s2 2 1 8c-2 6-3 7-7 12zm11 10l1-10c1-6-1-10 1-10s3 2 3 8l-5 12zm22-32c-4-5-7-6-9-8-5-5-8-10-9-8-2 1-1 4 4 9 5 4 7 5 14 7zm-2 16l-7-8c-3-5-4-9-6-8s-2 3 2 8c3 5 5 6 11 8z" fill="#a70000"/></g><g fill-rule="evenodd"><path d="M638 230c-53 59-124 177-266 177-124 0-213-118-266-177 53-59 142-177 266-177 142 0 213 118 266 177z" transform="matrix(.68807 0 0 .61926 0 113)" stroke="#000" stroke-width="2" fill="#fff"/><path d="M243 184c10 11 2 16 12 17 11 0 5 11 14 11 6 1-1 26 5 35 7 8 12 2 12 9 0 6-17 5-17 26-1 11-15 12-15 20-1 7 27 11 27 17-1 6-31 5-32 12s41 12 45 31c-7 2-24 4-38 4-85 0-146-73-183-110 37-37 98-110 183-110 0 0-25 23-13 38z"/><path d="M141 217h9v29h-9zm0 49h9v29h-9zm18-49h9v29h-9zm0 49h9v29h-9zm18-49h9v29h-9zm0 49h9v29h-9zm18-49h8v29h-8zm0 49h8v29h-8zm17-49h9v29h-9zm0 49h9v29h-9zm18-49h9v29h-9zm0 49h9v29h-9z" fill="#fff"/><path d="M275 217h9v29h-9zm0 49h9v29h-9zm18-49h9v29h-9zm0 49h9v29h-9zm18-49h9v29h-9zm0 49h9v29h-9zm18-49h9v29h-9zm0 49h9v29h-9zm17-49h9v29h-9zm0 49h9v29h-9zm18-49h9v29h-9zm0 49h9v29h-9z"/></g><g fill-rule="evenodd"><path d="M338 0c-6 12 10-5 34 16 4 4 11 19 11 27l-14-8s10 13 10 27c-4-3-5-2-7-6 0 5 4 8 4 15l-8-6c4 7-6 21-1 26-9-2-18-8-21-15-2 1-2 3-3 6 1 0-13-12-12-16l-2 8c-5-6-10-12-11-19l-5 6c-2-11-2-11 2-21l-7 6c2-17 14-37 30-46z" transform="matrix(.9094 0 0 .78749 -111 166)" stroke="#000" fill="#3d5da7"/><path d="M184 214l3-14c1-8 0-13 3-13s4 3 2 10c-1 8-2 10-8 17zm15 12v-12c-1-6-3-11-1-11 3 0 4 2 4 8 1 7 0 9-3 15zm22 10l-6-9c-3-6-4-11-6-10s-2 3 1 9c3 5 5 6 11 10zm7-44l-13-5c-7-4-11-8-12-6-2 2 0 5 7 8s10 3 18 3zm2 18l-9-6c-6-4-8-9-10-7-1 2 0 4 5 8s7 4 14 5z" fill="#a70000"/></g></g></svg>