<?xml version="1.0" encoding="UTF-8" standalone="no"?>
<svg
   xmlns:dc="http://purl.org/dc/elements/1.1/"
   xmlns:cc="http://creativecommons.org/ns#"
   xmlns:rdf="http://www.w3.org/1999/02/22-rdf-syntax-ns#"
   xmlns:svg="http://www.w3.org/2000/svg"
   xmlns="http://www.w3.org/2000/svg"
   xmlns:sodipodi="http://sodipodi.sourceforge.net/DTD/sodipodi-0.dtd"
   xmlns:inkscape="http://www.inkscape.org/namespaces/inkscape"
   height="480"
   width="640"
   viewBox="0 0 640 480"
   id="svg2"
   version="1.1"
   inkscape:version="0.91 r13725"
   sodipodi:docname="tc.svg">
  <metadata
     id="metadata136">
    <rdf:RDF>
      <cc:Work
         rdf:about="">
        <dc:format>image/svg+xml</dc:format>
        <dc:type
           rdf:resource="http://purl.org/dc/dcmitype/StillImage" />
      </cc:Work>
    </rdf:RDF>
  </metadata>
  <defs
     id="defs134" />
  <sodipodi:namedview
     pagecolor="#ffffff"
     bordercolor="#666666"
     borderopacity="1"
     objecttolerance="10"
     gridtolerance="10"
     guidetolerance="10"
     inkscape:pageopacity="0"
     inkscape:pageshadow="2"
     inkscape:window-width="1366"
     inkscape:window-height="715"
     id="namedview132"
     showgrid="false"
     inkscape:zoom="0.9"
     inkscape:cx="451.87939"
     inkscape:cy="216.36067"
     inkscape:window-x="-8"
     inkscape:window-y="301"
     inkscape:window-maximized="1"
     inkscape:current-layer="g16" />
  <path
     d="M640 480V0H0v480h640z"
     fill="#006"
     id="path4" />
  <path
     fill-rule="evenodd"
     fill="#006"
     d="M0 0h373.68v232.168H0z"
     id="path6" />
  <g
     stroke-width="1pt"
     id="g8">
    <path
       d="M0 0v25.957l331.901 206.21h41.778v-25.956L41.777.001H0zm373.679 0v25.956L41.777 232.166H0V206.21L331.901 0h41.778z"
       fill="#fff"
       id="path10" />
    <path
       d="M155.7 0v232.167h62.28V0H155.7zM0 77.389v77.389h373.679v-77.39H0z"
       fill="#fff"
       id="path12" />
    <path
       d="M0 92.867V139.3h373.679V92.867H0zM168.155 0v232.167h37.368V0h-37.368zM0 232.167l124.56-77.39h27.851l-124.56 77.39H0zM0 0l124.56 77.389H96.708L0 17.305V0zm221.267 77.389L345.827 0h27.852l-124.56 77.389h-27.852zM373.68 232.167l-124.56-77.39h27.852l96.708 60.085v17.305z"
       fill="#c00"
       id="path14" />
  </g>
  <g
     id="g16">
    <path
       d="M612.54 212.442v79.91c0 65.607-25.77 125.663-102.217 162.169-76.416-36.506-102.189-96.56-102.189-162.168v-79.911h204.444z"
       fill-opacity=".996"
       fill="#fff"
       id="path18" />
    <path
       d="M605.691 220.585v74.535c0 61.192-24.036 117.209-95.34 151.256-71.307-34.048-95.34-90.063-95.34-151.256v-74.535h190.69z"
       fill-opacity=".996"
       fill="#fdc300"
       id="path20" />
  </g>
</svg>
