<svg xmlns="http://www.w3.org/2000/svg" xmlns:xlink="http://www.w3.org/1999/xlink" height="480" width="640" viewBox="0 0 640 480"><path fill="#060" d="M0 0h640v480H0z"/><path fill="#fff" d="M0 0h640v343H0z"/><path fill="#c00" d="M0 0h640v137H0z"/><path d="M301 234a9 9 0 0 1 16 4v34h6v-34a9 9 0 0 1 16-4 20 20 0 1 0-38 0" fill="#f8c300"/><path d="M305 225a14 14 0 0 1 15 6 14 14 0 0 1 15-6 15 15 0 0 0-30 0" fill="#fff"/><path d="M317 258a26 26 0 0 1-44 17 27 27 0 0 1-41 12c3 25 40 20 43-4 12 20 37 14 45-11z" id="a" fill="#f8c300"/><use transform="matrix(-1 0 0 1 640 0)" xlink:href="#a" width="100%" height="100%" fill="#f8c300"/><path d="M292 303c-5 11-16 13-25 4l8-4c-1-3 0-7 2-9 3 1 6 4 7 8 5-1 8 1 8 1z" id="b" fill="#f8c300"/><use transform="rotate(9 320 551)" xlink:href="#b" width="100%" height="100%" fill="#f8c300"/><use transform="rotate(19 320 551)" xlink:href="#b" width="100%" height="100%" fill="#f8c300"/><path d="M253 328a233 233 0 0 1 134 0" fill="none" stroke="#f8c300" stroke-width="11"/><g transform="translate(320 165) scale(.68571)" fill="#f8c300"><path id="c" transform="scale(.00005)" d="M301930 415571l-790463-574305h977066l-790463 574305L0-513674z"/></g><g id="d" transform="translate(320 261) scale(.68571)" fill="#f8c300"><use height="100%" width="100%" xlink:href="#c" transform="translate(-70 -121)"/><use height="100%" width="100%" xlink:href="#c" transform="translate(-121 -70)"/><use height="100%" width="100%" xlink:href="#c" transform="translate(-140)"/></g><use height="100%" width="100%" xlink:href="#d" transform="matrix(-1 0 0 1 640 0)" fill="#f8c300"/></svg>