<svg xmlns="http://www.w3.org/2000/svg" height="480" width="640" viewBox="0 0 640 480" version="1"><defs><clipPath id="a"><path d="M43 0h682v512H43z"/></clipPath></defs><g fill-rule="evenodd" clip-path="url(#a)" transform="translate(-40) scale(.9375)"><path fill="#28ae66" d="M0 0h768v512H0z"/><path d="M263 137c28 14 61 0 73-18 13-17 14-47-7-73 33 27 40 58 24 84-22 29-71 28-90 7z" fill="#fff"/><path fill="#ca3745" d="M48 0h164v512H48z"/><path d="M116 505s6-11 21-14 17 7 26 7c8 0 22-7 22-7s-14 13-24 13-14-7-25-6c-10 1-20 7-20 7z" fill="#faae29"/><path d="M145 505s-6-11-21-14-17 7-26 7c-8 0-22-7-22-7s14 13 24 13 14-7 25-6c10 1 20 7 20 7z" fill="#faae29"/><g fill="#faae29"><path d="M96 488c-1-3-4-15-3-17 3-1 10 12 9 23-4 2-20-1-20-5 2-4 10-3 14-1z"/><path d="M87 477c-1-3-2-16 0-17 2 0 7 14 5 25-5 1-20-7-19-10 2-4 10 0 14 2z"/><path d="M79 465c0-3-1-16 1-16 3 0 7 15 4 25-5 0-19-10-18-13 2-4 10 2 13 4z"/><path d="M73 453c0-3 1-16 3-16 3 1 5 16 1 25-5-1-18-13-17-16 3-3 10 3 13 7z"/><path d="M69 440c0-3 3-16 5-15s3 16-3 24c-4-1-15-16-14-18 3-3 9 5 12 9z"/><path d="M70 425c0 13-3 13-7 4-2-4-2-19 0-20 2 0 7 11 7 16z"/></g><g fill="#faae29"><path d="M164 489c1-3 5-15 3-16-3-1-10 11-9 22 5 2 20-1 20-4-1-5-10-3-14-2z"/><path d="M173 478c1-3 3-15 1-16-3 0-8 13-6 24 5 1 20-7 19-10-2-4-10 0-14 2z"/><path d="M181 467c1-3 1-16-1-17-3 0-7 15-3 25 5 0 18-10 17-12-2-4-10 1-13 4z"/><path d="M187 454c0-3-1-16-3-16-3 1-5 16 0 25 5 0 17-13 16-16-3-3-10 4-13 7z"/><path d="M191 441c0-3-3-15-5-15-2 1-2 16 3 25 5-2 16-17 14-19-3-3-9 5-12 9z"/><path d="M190 426c0 13 3 14 7 4 2-4 2-19 0-19s-7 10-7 15z"/></g><path d="M111 362l-38 21v34l38 20h38l37-20v-34l-37-21h-38z" fill="#28ae66"/><path d="M130 435v-35h55v16l-37 19h-18zm0-71v36H75v-17l37-19h18z" fill="#faae29"/><path d="M130 364v36h55v-17l-37-19h-18zm0 71v-35H75v16l37 19h18z" fill="#fff"/><path d="M101 414H79l22 10v-10zm-26 2v-16h35v13h7l9 4v12l-5 5h7v-17h2v18h-18l-37-19z" fill="#faae29"/><path d="M159 414h22l-22 10v-10zm26 2v-16h-35v13h-7l-10 4v12l6 5h-7v-17h-2v18h18l37-19z" fill="#fff"/></g></svg>