<?xml version="1.0" encoding="UTF-8" standalone="no"?>
<svg
   xmlns:dc="http://purl.org/dc/elements/1.1/"
   xmlns:cc="http://creativecommons.org/ns#"
   xmlns:rdf="http://www.w3.org/1999/02/22-rdf-syntax-ns#"
   xmlns:svg="http://www.w3.org/2000/svg"
   xmlns="http://www.w3.org/2000/svg"
   xmlns:sodipodi="http://sodipodi.sourceforge.net/DTD/sodipodi-0.dtd"
   xmlns:inkscape="http://www.inkscape.org/namespaces/inkscape"
   height="480"
   width="640"
   viewBox="0 0 640 480"
   id="svg2"
   version="1.1"
   inkscape:version="0.91 r13725"
   sodipodi:docname="tm.svg">
  <metadata
     id="metadata403">
    <rdf:RDF>
      <cc:Work
         rdf:about="">
        <dc:format>image/svg+xml</dc:format>
        <dc:type
           rdf:resource="http://purl.org/dc/dcmitype/StillImage" />
      </cc:Work>
    </rdf:RDF>
  </metadata>
  <sodipodi:namedview
     pagecolor="#ffffff"
     bordercolor="#666666"
     borderopacity="1"
     objecttolerance="10"
     gridtolerance="10"
     guidetolerance="10"
     inkscape:pageopacity="0"
     inkscape:pageshadow="2"
     inkscape:window-width="2560"
     inkscape:window-height="1027"
     id="namedview401"
     showgrid="false"
     inkscape:zoom="0.225"
     inkscape:cx="1235.4395"
     inkscape:cy="923.45517"
     inkscape:window-x="1358"
     inkscape:window-y="-8"
     inkscape:window-maximized="1"
     inkscape:current-layer="g9" />
  <defs
     id="defs4">
    <clipPath
       id="a">
      <path
         fill-opacity=".67"
         d="M42.666 0h682.67v512H42.666z"
         id="path7" />
    </clipPath>
  </defs>
  <g
     fill-rule="evenodd"
     clip-path="url(#a)"
     transform="translate(-40) scale(.9375)"
     id="g9">
    <path
       fill="#28ae66"
       d="M0 0h768v512H0z"
       id="path11" />
    <g
       stroke-width="1pt"
       id="g13">
      <path
         d="M263.306 137.494c27.9 13.453 61.12-.064 73.139-18.637 12.323-17.332 13.836-46.437-7.468-73.14 33.07 27.425 40.379 58.513 23.927 84.113-21.944 29.254-70.627 28.407-89.598 7.664z"
         fill="#fff"
         id="path15" />
    </g>
    <path
       fill="#ca3745"
       d="M47.542 0H212.11v511.984H47.542z"
       id="path19" />
    <path
       d="M116.122 504.693s5.904-10.366 20.782-13.507c14.879-3.142 17.477 6.91 25.978 6.91 8.502 0 21.964-6.91 21.964-6.91s-13.462 13.193-23.853 12.879c-10.391-.314-13.934-6.91-24.561-5.968-10.628.942-20.31 6.91-20.31 6.596z"
       fill="#faae29"
       id="path77" />
    <path
       d="M144.845 504.693s-5.904-10.366-20.783-13.507c-14.878-3.142-17.476 6.91-25.978 6.91-8.502 0-21.963-6.91-21.963-6.91s13.461 13.193 23.852 12.879c10.392-.314 13.934-6.91 24.561-5.968 10.628.942 20.31 6.91 20.31 6.596z"
       fill="#faae29"
       id="path79" />
    <g
       stroke-width="1pt"
       fill="#faae29"
       id="g81">
      <path
         d="M96.193 487.544c-1.31-2.743-4.585-14.71-2.839-16.206 2.62-.996 9.607 11.22 8.952 22.19-4.585 2.493-20.086-.998-19.868-4.24 1.092-4.487 9.825-2.99 13.755-1.744z"
         id="path83" />
      <path
         d="M86.824 477.085c-.857-3.044-2.208-15.654-.268-16.638 2.718-.254 7.663 13.622 5.324 24.176-4.872 1.177-19.5-6.505-18.784-9.616 1.763-4.09 10.076-.223 13.728 2.078z"
         id="path85" />
      <path
         d="M79.212 465.383c-.58-3.158-.8-15.893 1.214-16.562 2.722.178 6.397 14.738 3.135 24.847-4.943.398-18.782-9.544-17.796-12.52 2.115-3.783 10.026 1.373 13.447 4.235z"
         id="path87" />
      <path
         d="M73.21 452.922c-.206-3.24 1.057-15.867 3.125-16.112 2.668.738 4.605 15.882.208 25.195-4.929-.628-17.446-13.31-16.125-16.047 2.529-3.3 9.744 3.429 12.792 6.964z"
         id="path89" />
      <path
         d="M69.036 439.868c.145-3.246 2.755-15.5 4.827-15.346 2.561 1.241 2.848 16.6-2.507 24.973-4.81-1.565-15.832-16.513-14.23-18.968 2.858-2.781 9.274 5.259 11.91 9.341z"
         id="path91" />
      <path
         d="M70.2 425.014c-.354 12.998-2.716 13.15-7.029 3.543-1.908-3.63-2.144-18.704-.424-19.266 2.486-.051 7.386 10.699 7.454 15.723z"
         id="path93" />
    </g>
    <g
       stroke-width="1pt"
       fill="#faae29"
       id="g95">
      <path
         d="M164.034 488.912c1.31-2.742 4.585-14.71 2.838-16.205-2.62-.997-9.606 11.22-8.952 22.19 4.585 2.492 20.086-.998 19.869-4.24-1.092-4.487-9.825-2.991-13.755-1.745z"
         id="path97" />
      <path
         d="M173.402 478.453c.857-3.044 2.209-15.654.269-16.637-2.719-.254-7.663 13.622-5.324 24.175 4.872 1.177 19.499-6.504 18.784-9.616-1.763-4.09-10.077-.223-13.729 2.078z"
         id="path99" />
      <path
         d="M181.014 466.752c.58-3.158.8-15.893-1.214-16.562-2.722.177-6.396 14.737-3.135 24.846 4.943.398 18.783-9.543 17.796-12.52-2.115-3.782-10.025 1.373-13.447 4.236z"
         id="path101" />
      <path
         d="M187.016 454.29c.207-3.24-1.057-15.866-3.124-16.111-2.668.738-4.606 15.882-.209 25.194 4.93-.628 17.446-13.31 16.125-16.046-2.528-3.3-9.744 3.428-12.792 6.963z"
         id="path103" />
      <path
         d="M191.19 441.236c-.144-3.245-2.754-15.499-4.827-15.345-2.56 1.24-2.847 16.599 2.508 24.973 4.81-1.566 15.831-16.513 14.229-18.968-2.858-2.782-9.274 5.258-11.91 9.34z"
         id="path105" />
      <path
         d="M190.026 426.383c.354 12.998 2.717 13.15 7.029 3.542 1.909-3.63 2.144-18.703.424-19.265-2.485-.052-7.385 10.698-7.453 15.723z"
         id="path107" />
    </g>
    <g
       id="g341">
      <path
         d="M333.07 170.08l-10.63 5.315v8.858l10.63 5.315h10.63l10.63-5.315v-8.858l-10.63-5.315h-10.63z"
         transform="matrix(3.555 0 0 3.847 -1073.157 -292.234)"
         stroke="#000"
         stroke-width=".07"
         fill="#28ae66"
         id="path343" />
      <path
         d="M129.827 435.389v-35.855h54.856v16.298l-36.57 19.557h-18.286zM129.828 363.673v35.856H74.972V383.23l36.57-19.558h18.286z"
         fill="#faae29"
         id="path347" />
      <path
         d="M129.827 363.673v35.856h54.856V383.23l-36.57-19.558h-18.286zM129.828 435.389l-.001-35.854-54.855-.001v16.298l36.57 19.557h18.286z"
         fill="#fff"
         id="path349" />
      <path
         d="M-177.16 368.5h21.259l-21.259-10.63v10.63zm24.803-1.772l-.001 17.717h-33.661v-14.173h-7.086l-8.858-5.315v-12.402l5.314-5.315h-7.086v17.717h-1.772v-19.489h17.717l35.433 21.26z"
         transform="matrix(-1.0321 0 0 -.92 -82.279 753.19)"
         stroke="#000"
         stroke-width=".133"
         fill="#faae29"
         id="path355" />
      <path
         d="M-177.16 368.5h21.259l-21.259-10.63v10.63zm24.803-1.772l-.001 17.717h-33.661v-14.173h-7.086l-8.858-5.315v-12.402l5.314-5.315h-7.086v17.717h-1.772v-19.489h17.717l35.433 21.26z"
         transform="matrix(1.0321 0 0 -.92 341.935 753.19)"
         stroke="#000"
         stroke-width=".133"
         fill="#fff"
         id="path359" />
    </g>
  </g>
</svg>
