<svg xmlns="http://www.w3.org/2000/svg" height="480" width="640" viewBox="0 0 640 480"><defs><clipPath id="a"><path d="M0 0h640v480H0z"/></clipPath></defs><g clip-path="url(#a)"><g fill-rule="evenodd" transform="matrix(.64508 0 0 .92059 0 23)" fill="#009fca"><path d="M506-20h486v516H506z"/><rect ry="0" height="521" width="523" y="-25"/></g><path fill-rule="evenodd" fill="#fff" d="M0 0h396v197H0z"/><path d="M0 0v15l94 48 36 1L0 0z" fill="#c00"/><path d="M40 0l115 60V0H40z" fill="#006"/><path fill="#c00" d="M170 0v76H0v44h170v76h53v-76h170V76H223V0h-53z"/><path d="M238 0v56L350 0H238z" fill="#006"/><path d="M241 63l32-1L395 0l-32 1-122 62z" fill="#c00"/><path d="M0 133v42l79-42H0z" fill="#006"/><path d="M303 134h-33l123 62-1-14-89-48zM31 197l115-61h-30L0 197" fill="#c00"/><path d="M395 17l-94 47h92v69h-78l78 42 1 22-42-1-114-56v57h-83v-57L49 197H0v196h786V0H395M0 22v41l83 1L0 22z" fill="#006"/><g fill-rule="evenodd" transform="scale(.79241 .79977)" fill="#009fca"><path d="M496 0h496v496H496z"/><rect rx="0" ry="0" height="251" width="526" y="245" x="-2"/></g><path d="M593 123h28l-22 15 8 25-22-16-22 16 8-25-22-15h27l9-25zm-69 196h28l-23 16 9 24-22-15-23 15 9-24-22-16h27l9-24zm69-44h28l-22 15 8 25-22-15-22 15 8-25-22-15h27l9-25zM296 418h27l-22 15 9 25-23-16-22 16 9-25-23-15h28l8-25zm62-77h-27l22-15-8-25 22 16 22-16-8 25 22 15h-28l-8 25zm82-112h-28l22-15-8-25 22 15 22-15-8 25 22 15h-27l-9 24zm68-24h-28l23-15-9-25 23 16 22-16-9 25 23 15h-28l-8 25zm-68 195h-28l22-15-8-25 22 15 22-15-8 25 22 15h-27l-9 25zm-82 20h-27l22-15-8-25 22 15 22-15-8 25 22 15h-28l-8 25z" fill-rule="evenodd" fill="#fff40d"/></g></svg>