<svg xmlns="http://www.w3.org/2000/svg" height="480" width="640" viewBox="0 0 640 480"><defs><clipPath id="a"><path d="M-85 0h682v512H-85z"/></clipPath></defs><g clip-path="url(#a)" transform="translate(80) scale(.9375)"><path fill-rule="evenodd" fill="#ffe700" d="M-128 341h768v86h-768z"/><path fill-rule="evenodd" d="M-128 256h768v85h-768z"/><path fill-rule="evenodd" fill="#de3908" d="M-128 171h768v85h-768z"/><path fill-rule="evenodd" fill="#ffe700" d="M-128 85h768v86h-768z"/><path fill-rule="evenodd" d="M-128 0h768v85h-768z"/><path d="M336 256a80 80 0 1 1-160 0 80 80 0 0 1 160 0z" fill-rule="evenodd" stroke="#000" fill="#fffdff"/><path d="M242 195l-5-10c2-2 5-3 10-3v10l-5 3z" fill-rule="evenodd" stroke="#000" fill="#de3108"/><path d="M247 192l1-10s10-1 16 6l-6 8-11-4z" fill-rule="evenodd" stroke="#000" fill="#ffe700"/><path d="M259 196l5-8c3 4 5 6 5 10 1 1-8 3-8 2l-2-4z" fill-rule="evenodd" stroke="#000" fill="#de3108"/><path stroke-linejoin="round" d="M245 331s9-11 29-9c-3-4-13-4-13-4s-2-22 0-23h12c1 0 3-3 1-6-1-2-6-10-4-12 2-1 13 1 13 1l-32-41s-3-15 3-23c8-6 7-13 7-13-1-7-12-13-19-6-5 5-2 9-2 9s-11 3-11 5c-1 2 12 0 12 0l-1 9s-26 24-6 44l1-1s7 9 14 11l6 6s2 11 0 13h-22c-2 1-11 0-9 15l4-8s-1 6 1 8c0-6 2-10 2-10l2 7c2 1 2-10 9-9l13 1s3 21 2 23c-6-1-19 1-19 4l11 1s-6 5-4 8z" fill-rule="evenodd" stroke="#000" stroke-linecap="round"/><path stroke-linejoin="round" d="M248 215s-19 21-11 37v-4l3 1-1-3h2l-1-2h3v-3h2c-5-10 0-18 3-26z" fill-rule="evenodd" stroke="#9ca69c" stroke-linecap="round" fill="#9ca69c"/><path d="M254 197s1 7-3 9c0 1-3 1-2 3 0 2 1 2 3 1 4-1 8-9 2-13z" fill-rule="evenodd" stroke="#9ca69c" fill="#9ca69c"/><path d="M247 203a2 2 0 1 1-3 0 2 2 0 0 1 3 0z" fill-rule="evenodd" fill="#fff"/><path d="M241 209c-1 1-6 6-1 8 5-1 4-2 5-3 0-3-3-3-4-5z" fill-rule="evenodd" stroke="#000" fill="#de3108"/><path stroke-linejoin="round" d="M253 261c-1 1-2 5 0 8h8l-8-8z" fill-rule="evenodd" stroke="#9ca69c" stroke-linecap="round" fill="#9ca69c"/><path stroke-linejoin="round" d="M260 281l1 10h5c1 0 0-7-6-10z" fill-rule="evenodd" stroke="#fff" stroke-linecap="round" fill="#fff"/><path d="M286 282s-6-15-23-19-15-22-13-23c0-2 1-4 6-2s27 14 30 14 0 31 0 30z" fill-rule="evenodd" stroke="#000" fill="#9ca69c"/><path stroke-linejoin="round" d="M270 263s22 13 16 24c6-4 4-11 4-11s5 13-7 20l2 1-2 2s-1 2 7-3l-2 4s0 2 6-3l-6 7c13-1 39-41-8-53l2 3-12 9z" fill-rule="evenodd" stroke="#000" fill="#de3108"/><path stroke-linejoin="round" d="M271 259l5 4-6-1-7-6-5-3c-3-1-5-9 4-7l10 5 11 3 6 7-12-6 4 6-10-2z" fill-rule="evenodd" stroke="#000" stroke-linecap="round" fill="#fff"/><path d="M228 210l12-2" stroke="#fff" stroke-linecap="round" fill="none"/><path fill-rule="evenodd" fill="#de3908" d="M-128 427h768v85h-768z"/></g></svg>