<?xml version="1.0" encoding="UTF-8" standalone="no"?>
<svg
   xmlns:dc="http://purl.org/dc/elements/1.1/"
   xmlns:cc="http://creativecommons.org/ns#"
   xmlns:rdf="http://www.w3.org/1999/02/22-rdf-syntax-ns#"
   xmlns:svg="http://www.w3.org/2000/svg"
   xmlns="http://www.w3.org/2000/svg"
   xmlns:xlink="http://www.w3.org/1999/xlink"
   xmlns:sodipodi="http://sodipodi.sourceforge.net/DTD/sodipodi-0.dtd"
   xmlns:inkscape="http://www.inkscape.org/namespaces/inkscape"
   height="480"
   width="640"
   viewBox="0 0 640 480"
   id="svg2"
   version="1.1"
   inkscape:version="0.91 r13725"
   sodipodi:docname="vi.svg">
  <metadata
     id="metadata61">
    <rdf:RDF>
      <cc:Work
         rdf:about="">
        <dc:format>image/svg+xml</dc:format>
        <dc:type
           rdf:resource="http://purl.org/dc/dcmitype/StillImage" />
      </cc:Work>
    </rdf:RDF>
  </metadata>
  <defs
     id="defs59" />
  <sodipodi:namedview
     pagecolor="#ffffff"
     bordercolor="#666666"
     borderopacity="1"
     objecttolerance="10"
     gridtolerance="10"
     guidetolerance="10"
     inkscape:pageopacity="0"
     inkscape:pageshadow="2"
     inkscape:window-width="2560"
     inkscape:window-height="1027"
     id="namedview57"
     showgrid="false"
     inkscape:zoom="0.31819805"
     inkscape:cx="988.61779"
     inkscape:cy="216.1698"
     inkscape:window-x="1358"
     inkscape:window-y="-8"
     inkscape:window-maximized="1"
     inkscape:current-layer="svg2" />
  <path
     fill="#fff"
     d="M0 0h640v480H0z"
     id="path4" />
  <path
     d="M204.348 314.932s-.518-3.508 6.144-6.08c6.66-2.573 7.18-12.162 5.847-18.554 0 0-3.48 6.08-7.7 8.107 0 0-6.883 3.586-7.198 10.436 0 0-.055 2.506-.573 4.454-.284 1.067-3.332-8.574 2.442-15.746 5.958-7.4 7.624-13.408 2.886-25.1 0 0-.444 7.093-5.107 11.146-4.662 4.054-5.255 4.366-5.18 14.032 0 0 .074 3.352-1.703 4.443 0 0-3.627-5.302-4.59-8.81-.96-3.507-1.405-4.99 2.74-9.042 0 0 13.28-8.58 3.7-27.362 0 0-.295 6.47-4.884 10.29-4.59 3.82-4.22 6.392-4.442 13.018-.22 6.626-.665 6.16-1.183 7.094 0 0-8.438-15.513-1.924-23.776 6.513-8.263 10.14-9.978 2.96-25.335 0 0 .32 7.874-5.43 11.77-5.747 3.9-4.414 13.02-4.414 13.02s.37 3.43-.815 5.924c0 0-8.13-15.858-.37-24.398 6.587-7.25 7.032-12.317 3.48-22.607 0 0-.446 4.755-4.072 7.328-3.627 2.572-6.514 5.145-5.848 15.045 0 0 .296 6.937-.592 8.886 0 0-3.405-6.314-4.367-10.445-.962-4.133-1.333-6.55 1.184-10.68 2.517-4.132 12.51-15.98.592-33.053 0 0-.37 5.535-3.405 10.524-3.035 4.99-1.628 10.914-.962 15.435.666 4.522-1.554 8.887-1.554 8.887s-5.18-9.51-4.07-20.424c1.11-10.913-3.33-19.878-13.398-26.348 0 0-7.328 16.994 2.665 25.647 0 0 8.512 8.42 10.66 18.63 0 0-6.44-.623-12.29-12.004-5.846-11.38-17.985-9.59-18.8-9.667 0 0 2 17.618 20.652 22.607 0 0 11.916 2.027 14.136 10.757 0 0 2 6.003 2.813 9.2 0 0-3.776-1.482-7.255-6.627-3.48-5.145-3.035-5.77-14.804-6.938 0 0-4.736-.546-7.253-3.898 0 0 4.96 18.63 17.69 18.475 0 0 11.622-1.247 18.136 14.032 0 0-1.26-.78-2.96-1.95-1.704-1.168-5.997-3.35-14.51-2.338-8.51 1.014-10.88-.39-13.026-1.09 0 0 8.586 15.746 20.725 11.07 12.14-4.68 18.003 12.377 18.135 12.705 0 0-1.628-1.246-3.775-3.35-2.147-2.106-6.603-4.7-15.026-2.028 0 0-6.07 2.34-12.213.468 0 0 5.92 11.46 19.763 9.51 13.842-1.95 17.32 10.212 17.32 10.212s-1.85-1.09-3.108-2.105c-1.26-1.013-5.922-3.664-15.914-.7-9.993 2.96-13.62-.47-13.62-.47s5.55 10.135 16.21 11.304c0 0 5.922-.077 8.438-1.012 2.517-.936 9.18-2.417 13.768 4.21 0 0-1.258.233-3.183-.624 0 0-7.106-2.573-12.51 1.948 0 0-4.81 4.91-11.62 3.976 0 0 8.808 8.575 22.798 1.325 0 0 4.737-3.43 8.216-.78 3.48 2.652 11.548-2.57 11.548-2.57z"
     stroke-miterlimit="10"
     fill="#369443"
     stroke="#010002"
     stroke-width="1.506"
     id="path6" />
  <g
     stroke-miterlimit="10"
     fill="#f4c53d"
     stroke="#010002"
     stroke-width="10"
     id="g8">
    <path
       d="M363.778 139.586c-1.727 2.234-8.635 3.014-8.635 3.014s7.106 5.457 10.165 13.252c3.06 7.795-82.357.052-82.357.052s3.702-2.65 6.22-7.64c0 0-3.776 1.404-7.55-2.338 0 0 2.81.935 6.512-4.677 0 0 5.478-7.017 9.327-8.888 0 0-1.778 1.092-6.07-1.247 0 0 7.4-.935 10.066-13.564 0 0 .444-2.805 3.256-6.858 2.813-4.054 2.22.78 7.402-5.457 0 0 2.37-4.417.296-7.12-2.072-2.702-4.293-1.714-8.635-4.313-4.343-2.598-6.267-4.053-4.787-8.055 1.48-4 5.33-3.378 5.872-3.378.543 0 .84-3.483 5.577-5.873s17.32-1.35 19.195-.312c1.875 1.04 9.474 3.274 13.915 14.5 4.44 11.224-1.184 15.434 10.906 32.375 0 0-4.836 1.04-7.945.104 0 0 6.266 11.12 17.27 16.422z"
       stroke-width="1.505"
       id="path12" />
    <path
       d="M310.93 92.217c-9.845-.468-6.07-9.848-6.07-9.848"
       fill="none"
       stroke-width="1.505"
       id="path14" />
  </g>
  <path
     d="M202.813 336.456s-.222-6.314 7.772-6.782l23.537 32.74s-.888 2.103-11.547 1.87c0 0-1.128-.008-1.72 1.24-.91 1.914-18.042-29.068-18.042-29.068z"
     stroke-miterlimit="10"
     fill="#369443"
     stroke="#010002"
     stroke-width="1.506"
     id="path18" />
  <g
     id="a"
     transform="translate(3.597 26.17) scale(.15055)"
     fill="#f4c53d"
     stroke="#010002"
     stroke-width="10">
    <path
       d="M1494.918 1807.886s-49.82 85.606-110.13 86.987c0 0-103.74-12.628-133.073 14.498-20.454 18.916-41.3 34.52-49.82 82.846-8.523 48.326 16.387 58.682 22.287 60.753 0 0 4.59 34.518 38.676 25.543 0 0 1.967 35.9 62.276 18.64 60.31-17.26 85.22-11.736 97.02-71.8 11.8-60.06 22.693-59.078 33.43-66.275 14.423-9.665 41.518-18.8 61.62-30.376 18.062-10.4 87.187-45.565 110.786-48.326 23.6-2.76 18.355-82.154 18.355-82.154h-60.964l-29.498-43.493-60.964 53.156zm192.01-429.409s-60.965 49.707-112.096 0c0 0-20.65 24.853-61.948 17.604-41.3-7.248-48.182-28.995-52.115-41.42 0 0-35.728 20.84-65.882 4.38-30.155-16.463-30.155-41.316-30.155-41.316s-52.443 10.338-79.32-25.207c-26.876-35.545-10.488-70.754 3.934-74.897 0 0-56.7 14.854-72.11-33.828-13.11-41.422 16.39-62.824 16.39-62.824s-119.47-.574-168.473-37.97c0 0-40.643-25.544-16.388-52.468 0 0-107.507-17.26-134.384-60.062 0 0-11.8-11.736-7.866-32.448 0 0 .656-11.736 12.455-12.427 0 0-122.6-18.937-157.982-59.372 0 0-17.044-18.64-8.522-43.492 0 0 1.803-6.56 4.753-10.96 0 0-111.605-23.56-166.67-73.266 0 0-31.787-28.32-15.4-66.29 0 0-186.505-51.073-143.24-133.228 0 0-87.185-28.305-59.653-107.008 0 0-72.11-36.59-40.643-94.58 30.114-55.5 122.585 9.664 232.08 39.96 0 0 296.28 93.28 442.188 118.106l414.573 617.222 241.892 93.2 24.58 172.593z"
       id="path21" />
    <path
       d="M1689.878 923.866s-38.857-29.17-108.163 5.178c0 0-23.333 16.068-41.687-1.536-15.336-14.71-16.775-41.83 4.322-57.49 51.623-38.316 70.798-153.263-7.866-200.898 0 0-114.063-67.656-532.32-174.095 0 0-35.044-9.717-53.727-5.057-20.572 5.13-34.743 22.782-37.65 37.886 0 0-18.715 53.188 44.206 83.62 0 0 28.408 13 57.687 21.402 0 0-32.16-6.952-45.887 24.853-13.11 30.375 5.9 61.442 64.898 81.463 0 0 15.958 6.21 38.677 11.736 0 0-50.476 14.497-26.22 55.23 0 0 21.632 42.802 98 50.396 0 0-57.03 6.213-16.715 60.408 0 0 17.7 29.686 73.42 40.732 0 0-42.282 1.38-20.977 39.35 21.305 37.972 71.44 59.373 120.775 62.825 0 0 26.72 1.382 45.403-2.76 0 0-46.87 23.473-19.338 62.824 0 0 20.32 27.96 71.125 26.58 0 0-13.187 43.944 24.09 60.58 29.008 12.943 53.1-7.768 53.1-7.768s-9.834 47.118 32.448 63.687c0 0 21.14 10.873 52.606 0 0 0 24.09 53.85 109.638 16.05 85.545-37.798 20.156-355.197 20.156-355.197zm5.074 489.39s-12.552 67.393-112.09 152.22c0 0-76.8 67.745-74.834 145.757 2.003 79.44-13.766 88.368-43.92 115.292 0 0 62.275 4.833 92.43-36.59 0 0-1.312 69.037-10.49 75.25 0 0 19.532 1.246 47.854-29.685 0 0 17.044-17.95 32.777-24.853 0 0-18.356 47.636-3.934 91.82 0 0 4.59-17.26 28.843-24.854 0 0 43.92-8.975 60.964-72.49 0 0 11.144-42.112 79.975-79.392 0 0 78.007-29.42 76.04-67.87-1.965-38.447-173.618-244.604-173.618-244.604z"
       id="path23" />
    <path
       d="M2056.524 2282.172s-17.87 78.856-79.975 72.49c0 0-43.922-4.143-40.644-77.323 0 0-64.898 34.518-75.386-51.088 0 0-58.998 13.807-58.342-66.276 0 0-55.065 9.665-48.51-61.443 0 0-59.653 15.88-59.653-51.088 0 0-139.628-23.157 151.428-288.576l259.59 154.642-48.51 368.66z"
       stroke-miterlimit="10"
       id="path25" />
    <path
       d="M2085.368 1928.287s-43.265 38.385-74.075-18.915c0 0-41.954-2.07-48.51-33.828 0 0-34.087-3.452-40.642-35.9 0 0-46.542-4.832-45.23-44.183 0 0-84.62-6.53-.028-102.333 84.59-95.802 228.153 158.945 228.153 158.945l-19.667 76.215zm48.275-23.747c41.94 0 89.463 261.995 77.13 419.84-4.48 57.328-35.19 104.152-77.13 104.152s-72.65-46.824-77.13-104.15c-12.333-157.846 35.19-419.843 77.13-419.843"
       id="path27" />
    <ellipse
       ry="85.951"
       rx="58.032"
       cy="1902.468"
       cx="2133.643"
       id="ellipse29" />
  </g>
  <use
     transform="matrix(-1 0 0 1 647.195 0)"
     xlink:href="#a"
     width="100%"
     height="100%"
     stroke="#010002"
     stroke-width="10"
     id="use35" />
  <path
     d="M324.823 309.767s74.102-32.838 74.287-108.803H250.536c.185 75.965 74.287 108.803 74.287 108.803z"
     fill="#fff"
     stroke="#010002"
     stroke-width="1.506"
     id="path47" />
  <g
     fill="#a60032"
     stroke="#010002"
     stroke-width="10"
     id="g49">
    <path
       d="M261.96 200.96v48.537s5.675 11.257 11.428 18.317V200.96H261.96z"
       stroke-width="1.5054999999999998"
       id="path51" />
    <path
       d="M284.817 200.96v80.01s7.147 7.008 11.428 10.386V200.96h-11.428zm22.857 0v98.9s8.154 5.265 11.43 6.993V200.96h-11.43zm80 0v48.537s-5.676 11.257-11.43 18.317V200.96h11.43zm-22.857 0v80.01s-7.147 7.008-11.43 10.386V200.96h11.43zm-22.857 0v98.9s-8.154 5.265-11.43 6.993V200.96h11.43z"
       stroke-width="1.505"
       id="path53" />
  </g>
  <path
     d="M399.11 145.773s-36.36 19.02-74.287-1.56c-37.926 20.58-74.287 1.56-74.287 1.56v55.19H399.11v-55.19z"
     stroke-miterlimit="10"
     fill="#162667"
     stroke="#010002"
     stroke-width="1.506"
     id="path55" />
</svg>
