<svg xmlns="http://www.w3.org/2000/svg" xmlns:xlink="http://www.w3.org/1999/xlink" height="480" width="640" viewBox="0 0 640 480" version="1"><path fill="#fff" d="M0 0h640v480H0z"/><path d="M204 315s0-4 6-6c7-3 8-12 6-19 0 0-3 6-7 8 0 0-7 4-8 11v4c0 1-3-8 2-15 6-8 8-14 3-26 0 0 0 8-5 12s-5 4-5 14c0 0 0 3-2 4l-4-9c-1-3-2-5 2-9 0 0 14-8 4-27 0 0 0 6-5 10-4 4-4 7-4 13l-1 7s-9-15-2-24c6-8 10-9 3-25 0 0 0 8-6 12s-4 13-4 13l-1 6s-8-16 0-25c6-7 7-12 3-22 0 0 0 5-4 7-4 3-7 5-6 15v9l-5-10c-1-4-1-7 1-11 3-4 13-16 1-33 0 0 0 5-3 10-4 5-2 11-1 16l-2 9s-5-10-4-21-3-20-13-26c0 0-8 17 2 26 0 0 9 8 11 18 0 0-7 0-12-12-6-11-18-9-19-9 0 0 2 17 20 22 0 0 12 2 15 11l2 9s-3-1-7-6c-3-6-3-6-15-7 0 0-4-1-7-4 0 0 5 18 18 18 0 0 11-1 18 14l-3-2c-2-1-6-3-15-2-8 1-10 0-13-1 0 0 9 16 21 11s18 12 18 13l-4-4c-2-2-6-4-15-2 0 0-6 3-12 1 0 0 6 11 20 9s17 10 17 10l-3-2c-1-1-6-3-16 0s-13-1-13-1 5 10 16 11l8-1c3 0 10-2 14 5l-3-1s-7-3-13 2c0 0-4 5-11 4 0 0 9 9 23 1 0 0 4-3 8 0 3 2 11-3 11-3z" stroke-miterlimit="10" fill="#369443" stroke="#010002" stroke-width="2"/><g stroke-miterlimit="10" fill="#f4c53d" stroke="#010002" stroke-width="2"><path d="M364 140c-2 2-9 3-9 3s7 5 10 13-82 0-82 0 4-3 6-8c0 0-4 2-7-2 0 0 2 1 6-5l9-9s-1 1-6-1c0 0 8-1 10-13l4-7c3-4 2 0 7-6 0 0 2-4 0-7s-4-2-8-4c-5-3-6-4-5-8s5-4 6-4c0 0 1-3 5-6s18-1 20 0 9 3 14 15c4 11-2 15 10 32h-7s6 11 17 17z"/><path d="M311 92c-10 0-6-10-6-10" fill="none"/></g><path d="M203 336s0-6 8-6l23 32s-1 3-11 2c0 0-2 0-2 2-1 1-18-30-18-30z" stroke-miterlimit="10" fill="#369443" stroke="#010002" stroke-width="2"/><g id="a" transform="translate(4 26) scale(.15055)" fill="#f4c53d" stroke="#010002" stroke-width="10"><path d="M1495 1808s-50 85-110 87c0 0-104-13-133 14-21 19-42 35-50 83-9 49 16 59 22 61 0 0 5 34 39 26 0 0 2 35 62 18s85-12 97-72 23-59 34-66c14-10 41-19 61-30 18-11 87-46 111-49 24-2 18-82 18-82h-61l-29-43-61 53zm192-430s-61 50-112 0c0 0-21 25-62 18s-48-29-52-41c0 0-36 21-66 4-30-16-30-41-30-41s-53 10-80-25c-26-36-10-71 4-75 0 0-56 14-72-34-13-42 17-63 17-63s-120-1-169-38c0 0-40-26-16-52 0 0-108-18-135-61 0 0-11-11-7-32 0 0 0-12 12-12 0 0-123-19-158-60 0 0-17-18-9-43 0 0 2-7 5-11 0 0-111-24-166-73 0 0-32-29-16-67 0 0-186-51-143-133 0 0-87-28-60-107 0 0-72-37-40-95 30-55 122 10 232 40 0 0 296 94 442 118l414 618 242 93 25 172z"/><path d="M1690 924s-39-29-108 5c0 0-24 16-42-1a37 37 0 0 1 4-58c52-38 71-153-8-201 0 0-114-68-532-174 0 0-35-10-54-5-20 5-34 23-37 38 0 0-19 53 44 83 0 0 28 13 58 22 0 0-32-7-46 25-13 30 6 61 65 81l38 12s-50 14-26 55c0 0 22 43 98 51 0 0-57 6-17 60 0 0 18 30 74 41 0 0-42 1-21 39s71 59 121 63c0 0 26 1 45-3 0 0-47 24-19 63 0 0 20 28 71 27 0 0-13 43 24 60 29 13 53-8 53-8s-10 47 32 64c0 0 22 11 53 0 0 0 24 54 110 16 85-38 20-355 20-355zm5 489s-13 68-112 152c0 0-77 68-75 146 2 80-14 89-44 116 0 0 62 4 93-37 0 0-2 69-11 75 0 0 20 1 48-30 0 1 17-17 33-24 0 0-19 47-4 91 0 0 4-17 29-24 0 0 44-9 61-73 0 0 11-42 80-79 0 0 78-30 76-68-2-39-174-245-174-245z"/><path d="M2057 2282s-18 79-80 73c0 0-44-4-41-78 0 0-65 35-75-51 0 0-59 14-59-66 0 0-55 10-48-61 0 0-60 15-60-52 0 0-140-23 151-288l260 155-48 368z" stroke-miterlimit="10"/><path d="M2085 1928s-43 39-74-19c0 0-42-2-48-33 0 0-34-4-41-36 0 0-46-5-45-45 0 0-85-6 0-102 84-96 228 159 228 159l-20 76zm49-23c42 0 89 262 77 419-5 58-35 105-77 105s-73-47-77-105c-13-157 35-419 77-419"/><ellipse ry="86" rx="58" cy="1902" cx="2134"/></g><use transform="matrix(-1 0 0 1 647 0)" xlink:href="#a" width="100%" height="100%" stroke="#010002" stroke-width="10"/><path d="M325 310s74-33 74-109H251c0 76 74 109 74 109z" fill="#fff" stroke="#010002" stroke-width="2"/><path d="M262 201v48l11 19v-67h-11zm23 0v80l11 10v-90h-11zm23 0v99l11 7V201h-11zm80 0v48s-6 12-12 19v-67h12zm-23 0v80l-12 10v-90h12zm-23 0v99l-11 7V201h11z" fill="#a60032" stroke="#010002" stroke-width="2"/><path d="M399 146s-36 19-74-2c-38 21-74 2-74 2v55h148v-55z" stroke-miterlimit="10" fill="#162667" stroke="#010002" stroke-width="2"/></svg>