<?xml version="1.0" encoding="UTF-8" standalone="no"?>
<svg
   xmlns:dc="http://purl.org/dc/elements/1.1/"
   xmlns:cc="http://creativecommons.org/ns#"
   xmlns:rdf="http://www.w3.org/1999/02/22-rdf-syntax-ns#"
   xmlns:svg="http://www.w3.org/2000/svg"
   xmlns="http://www.w3.org/2000/svg"
   xmlns:xlink="http://www.w3.org/1999/xlink"
   xmlns:sodipodi="http://sodipodi.sourceforge.net/DTD/sodipodi-0.dtd"
   xmlns:inkscape="http://www.inkscape.org/namespaces/inkscape"
   height="480"
   width="640"
   viewBox="0 0 640 480"
   id="svg2"
   version="1.1"
   inkscape:version="0.91 r13725"
   sodipodi:docname="zw.svg">
  <metadata
     id="metadata36">
    <rdf:RDF>
      <cc:Work
         rdf:about="">
        <dc:format>image/svg+xml</dc:format>
        <dc:type
           rdf:resource="http://purl.org/dc/dcmitype/StillImage" />
      </cc:Work>
    </rdf:RDF>
  </metadata>
  <sodipodi:namedview
     pagecolor="#ffffff"
     bordercolor="#666666"
     borderopacity="1"
     objecttolerance="10"
     gridtolerance="10"
     guidetolerance="10"
     inkscape:pageopacity="0"
     inkscape:pageshadow="2"
     inkscape:window-width="1366"
     inkscape:window-height="715"
     id="namedview34"
     showgrid="false"
     inkscape:zoom="0.45"
     inkscape:cx="-58.888889"
     inkscape:cy="240"
     inkscape:window-x="-8"
     inkscape:window-y="301"
     inkscape:window-maximized="1"
     inkscape:current-layer="g9" />
  <defs
     id="defs4">
    <clipPath
       id="a">
      <rect
         fill-rule="evenodd"
         ry="0"
         height="420.1"
         width="545.96"
         y=".113"
         x="1.928"
         fill="#00f"
         id="rect7" />
    </clipPath>
  </defs>
  <g
     clip-path="url(#a)"
     transform="matrix(1.1722 0 0 1.1426 -2.26 -.129)"
     id="g9">
    <path
       fill="#006400"
       d="M0 0h840v420H0z"
       id="path11" />
    <path
       fill="#ffd200"
       d="M0 60h840v300H0z"
       id="path13" />
    <path
       fill="#d40000"
       d="M0 120h840v180H0z"
       id="path15" />
    <path
       d="M0 180h840v60H0z"
       id="path17" />
    <path
       stroke-width="20"
       stroke="#000"
       d="M0 0v420l280-210z"
       id="path19" />
    <path
       fill="#fff"
       d="M0 0v420l280-210z"
       id="path21" />
    <path
       fill="#d40000"
       d="M106.52 104.41l55.459 170.68L16.789 169.6h179.47l-145.2 105.5z"
       id="path23" />
    <path
       id="b"
       d="M124.76 217.76c-2.964 0-5.081 2.188-5.081 5.269 0 4.8 5.397 7.125 8.662 3.731s1.038-9-3.58-9zm-.02 1.24c2.19-.087 4.069 1.617 4.069 4.088 0 2.89-3.346 4.906-5.925 3.562-2.759-1.437-2.554-6.057.319-7.294a4.283 4.283 0 0 1 1.537-.356z" />
    <use
       xlink:href="#b"
       height="100%"
       width="100%"
       y="-.6"
       x="-20.065"
       id="use30" />
    <path
       d="M88.012 145.28a1.723 1.764 0 0 0-1.594 1.762 1.725 1.766 0 1 0 3.45 0 1.723 1.764 0 0 0-1.856-1.762zm.113.619a1.16 1.143 0 0 1 1.124 1.144 1.163 1.146 0 1 1-2.324 0 1.16 1.143 0 0 1 1.2-1.144z"
       id="path32" />
  </g>
</svg>
